<mxfile host="app.diagrams.net" modified="2020-12-03T13:53:59.236Z" agent="5.0 (Macintosh; Intel Mac OS X 10_15_7) AppleWebKit/605.1.15 (KHTML, like Gecko) Version/14.0.1 Safari/605.1.15" etag="SYr02QVFoIfz32Fk_tgi" version="13.10.6" type="github">
  <diagram name="Page-1" id="12e1b939-464a-85fe-373e-61e167be1490">
    <mxGraphModel dx="2365" dy="1655" grid="1" gridSize="10" guides="1" tooltips="1" connect="1" arrows="1" fold="1" page="1" pageScale="1.5" pageWidth="1169" pageHeight="826" background="#ffffff" math="0" shadow="0">
      <root>
        <mxCell id="0" />
        <mxCell id="1" parent="0" />
        <mxCell id="QaM1sbVamnLzecE5Oj-k-7" value="" style="aspect=fixed;html=1;points=[];align=center;image;fontSize=12;image=img/lib/azure2/general/Image.svg;" vertex="1" parent="1">
          <mxGeometry x="79.55000000000001" y="340" width="130.91" height="90" as="geometry" />
        </mxCell>
        <mxCell id="QaM1sbVamnLzecE5Oj-k-11" value="" style="aspect=fixed;html=1;points=[];align=center;image;fontSize=12;image=img/lib/azure2/general/Image.svg;" vertex="1" parent="1">
          <mxGeometry x="99.55000000000001" y="360" width="130.91" height="90" as="geometry" />
        </mxCell>
        <mxCell id="QaM1sbVamnLzecE5Oj-k-12" value="" style="aspect=fixed;html=1;points=[];align=center;image;fontSize=12;image=img/lib/azure2/general/Image.svg;" vertex="1" parent="1">
          <mxGeometry x="119.55000000000001" y="380" width="130.91" height="90" as="geometry" />
        </mxCell>
        <mxCell id="QaM1sbVamnLzecE5Oj-k-13" value="" style="aspect=fixed;html=1;points=[];align=center;image;fontSize=12;image=img/lib/azure2/general/Image.svg;" vertex="1" parent="1">
          <mxGeometry x="79.55000000000001" y="580" width="130.91" height="90" as="geometry" />
        </mxCell>
        <mxCell id="QaM1sbVamnLzecE5Oj-k-14" value="" style="aspect=fixed;html=1;points=[];align=center;image;fontSize=12;image=img/lib/azure2/general/Image.svg;" vertex="1" parent="1">
          <mxGeometry x="99.54999999999995" y="600" width="130.91" height="90" as="geometry" />
        </mxCell>
        <mxCell id="QaM1sbVamnLzecE5Oj-k-15" value="" style="aspect=fixed;html=1;points=[];align=center;image;fontSize=12;image=img/lib/azure2/general/Image.svg;" vertex="1" parent="1">
          <mxGeometry x="119.54999999999995" y="620" width="130.91" height="90" as="geometry" />
        </mxCell>
        <mxCell id="QaM1sbVamnLzecE5Oj-k-16" value="&lt;font style=&quot;font-size: 24px&quot;&gt;Plate Data Set&lt;/font&gt;" style="text;html=1;strokeColor=none;fillColor=none;align=center;verticalAlign=middle;whiteSpace=wrap;rounded=0;" vertex="1" parent="1">
          <mxGeometry x="40" y="480" width="250" height="40" as="geometry" />
        </mxCell>
        <mxCell id="QaM1sbVamnLzecE5Oj-k-18" value="&lt;font style=&quot;font-size: 24px&quot;&gt;Food Data Set&lt;/font&gt;" style="text;html=1;strokeColor=none;fillColor=none;align=center;verticalAlign=middle;whiteSpace=wrap;rounded=0;" vertex="1" parent="1">
          <mxGeometry x="40" y="720" width="250" height="40" as="geometry" />
        </mxCell>
        <mxCell id="QaM1sbVamnLzecE5Oj-k-22" value="" style="endArrow=none;html=1;exitX=0.613;exitY=0.002;exitDx=0;exitDy=0;exitPerimeter=0;entryX=1;entryY=0;entryDx=0;entryDy=0;" edge="1" parent="1" source="QaM1sbVamnLzecE5Oj-k-30" target="QaM1sbVamnLzecE5Oj-k-30">
          <mxGeometry width="50" height="50" relative="1" as="geometry">
            <mxPoint x="980" y="319" as="sourcePoint" />
            <mxPoint x="1260" y="319" as="targetPoint" />
            <Array as="points">
              <mxPoint x="940.45" y="281" />
              <mxPoint x="1230" y="281" />
              <mxPoint x="1260" y="281" />
            </Array>
          </mxGeometry>
        </mxCell>
        <mxCell id="QaM1sbVamnLzecE5Oj-k-23" value="&lt;font size=&quot;5&quot;&gt;IMAGE PROCESSING&lt;/font&gt;" style="text;html=1;strokeColor=none;fillColor=none;align=center;verticalAlign=middle;whiteSpace=wrap;rounded=0;" vertex="1" parent="1">
          <mxGeometry x="970.45" y="291" width="249.55" height="20" as="geometry" />
        </mxCell>
        <mxCell id="QaM1sbVamnLzecE5Oj-k-30" value="" style="rounded=0;whiteSpace=wrap;html=1;" vertex="1" parent="1">
          <mxGeometry x="430" y="330" width="830" height="459" as="geometry" />
        </mxCell>
        <mxCell id="QaM1sbVamnLzecE5Oj-k-32" style="edgeStyle=orthogonalEdgeStyle;rounded=0;orthogonalLoop=1;jettySize=auto;html=1;exitX=1;exitY=0.5;exitDx=0;exitDy=0;entryX=0.567;entryY=-0.029;entryDx=0;entryDy=0;entryPerimeter=0;" edge="1" parent="1" source="QaM1sbVamnLzecE5Oj-k-24" target="QaM1sbVamnLzecE5Oj-k-27">
          <mxGeometry relative="1" as="geometry" />
        </mxCell>
        <mxCell id="QaM1sbVamnLzecE5Oj-k-24" value="&lt;font style=&quot;font-size: 24px&quot;&gt;RESIZE &amp;nbsp;&lt;/font&gt;" style="rounded=0;whiteSpace=wrap;html=1;" vertex="1" parent="1">
          <mxGeometry x="470.45000000000005" y="364" width="240" height="70" as="geometry" />
        </mxCell>
        <mxCell id="QaM1sbVamnLzecE5Oj-k-33" style="edgeStyle=orthogonalEdgeStyle;rounded=0;orthogonalLoop=1;jettySize=auto;html=1;exitX=1;exitY=0.5;exitDx=0;exitDy=0;entryX=0.5;entryY=0;entryDx=0;entryDy=0;" edge="1" parent="1" source="QaM1sbVamnLzecE5Oj-k-27" target="QaM1sbVamnLzecE5Oj-k-28">
          <mxGeometry relative="1" as="geometry" />
        </mxCell>
        <mxCell id="QaM1sbVamnLzecE5Oj-k-27" value="&lt;font style=&quot;font-size: 24px&quot;&gt;SPLIT TRAIN &amp;amp; TEST&lt;/font&gt;" style="rounded=0;whiteSpace=wrap;html=1;" vertex="1" parent="1">
          <mxGeometry x="620.45" y="464" width="240" height="70" as="geometry" />
        </mxCell>
        <mxCell id="QaM1sbVamnLzecE5Oj-k-34" style="edgeStyle=orthogonalEdgeStyle;rounded=0;orthogonalLoop=1;jettySize=auto;html=1;exitX=1;exitY=0.5;exitDx=0;exitDy=0;entryX=0.5;entryY=0;entryDx=0;entryDy=0;" edge="1" parent="1" source="QaM1sbVamnLzecE5Oj-k-28" target="QaM1sbVamnLzecE5Oj-k-29">
          <mxGeometry relative="1" as="geometry" />
        </mxCell>
        <mxCell id="QaM1sbVamnLzecE5Oj-k-28" value="&lt;font style=&quot;font-size: 24px&quot;&gt;TRAIN A MODEL&lt;/font&gt;" style="rounded=0;whiteSpace=wrap;html=1;" vertex="1" parent="1">
          <mxGeometry x="790.45" y="564" width="240" height="70" as="geometry" />
        </mxCell>
        <mxCell id="QaM1sbVamnLzecE5Oj-k-29" value="&lt;font size=&quot;5&quot;&gt;EXPORT A MODEL&lt;/font&gt;" style="rounded=0;whiteSpace=wrap;html=1;" vertex="1" parent="1">
          <mxGeometry x="950.45" y="664" width="240" height="70" as="geometry" />
        </mxCell>
        <mxCell id="QaM1sbVamnLzecE5Oj-k-45" value="" style="shape=flexArrow;endArrow=classic;html=1;entryX=0;entryY=0.25;entryDx=0;entryDy=0;" edge="1" parent="1" target="QaM1sbVamnLzecE5Oj-k-30">
          <mxGeometry width="50" height="50" relative="1" as="geometry">
            <mxPoint x="260" y="437" as="sourcePoint" />
            <mxPoint x="290" y="880" as="targetPoint" />
          </mxGeometry>
        </mxCell>
        <mxCell id="QaM1sbVamnLzecE5Oj-k-46" value="" style="shape=flexArrow;endArrow=classic;html=1;entryX=0;entryY=0.75;entryDx=0;entryDy=0;" edge="1" parent="1" target="QaM1sbVamnLzecE5Oj-k-30">
          <mxGeometry width="50" height="50" relative="1" as="geometry">
            <mxPoint x="260" y="672" as="sourcePoint" />
            <mxPoint x="420.46000000000004" y="664" as="targetPoint" />
            <Array as="points" />
          </mxGeometry>
        </mxCell>
        <mxCell id="QaM1sbVamnLzecE5Oj-k-48" value="" style="html=1;whiteSpace=wrap;shape=isoCube2;backgroundOutline=1;isoAngle=15;" vertex="1" parent="1">
          <mxGeometry x="1450" y="364" width="90" height="100" as="geometry" />
        </mxCell>
        <mxCell id="QaM1sbVamnLzecE5Oj-k-49" value="&lt;font style=&quot;font-size: 24px&quot;&gt;Plate Model&lt;/font&gt;" style="text;html=1;strokeColor=none;fillColor=none;align=center;verticalAlign=middle;whiteSpace=wrap;rounded=0;" vertex="1" parent="1">
          <mxGeometry x="1380" y="473" width="250" height="40" as="geometry" />
        </mxCell>
        <mxCell id="QaM1sbVamnLzecE5Oj-k-50" value="" style="html=1;whiteSpace=wrap;shape=isoCube2;backgroundOutline=1;isoAngle=15;" vertex="1" parent="1">
          <mxGeometry x="1450" y="590.5" width="90" height="100" as="geometry" />
        </mxCell>
        <mxCell id="QaM1sbVamnLzecE5Oj-k-51" value="&lt;font size=&quot;5&quot;&gt;Food Model&lt;/font&gt;" style="text;html=1;strokeColor=none;fillColor=none;align=center;verticalAlign=middle;whiteSpace=wrap;rounded=0;" vertex="1" parent="1">
          <mxGeometry x="1380" y="699.5" width="250" height="40" as="geometry" />
        </mxCell>
        <mxCell id="QaM1sbVamnLzecE5Oj-k-52" value="" style="shape=flexArrow;endArrow=classic;html=1;entryX=0;entryY=0.25;entryDx=0;entryDy=0;" edge="1" parent="1">
          <mxGeometry width="50" height="50" relative="1" as="geometry">
            <mxPoint x="1260" y="424" as="sourcePoint" />
            <mxPoint x="1430" y="424" as="targetPoint" />
          </mxGeometry>
        </mxCell>
        <mxCell id="QaM1sbVamnLzecE5Oj-k-53" value="" style="shape=flexArrow;endArrow=classic;html=1;entryX=0;entryY=0.25;entryDx=0;entryDy=0;" edge="1" parent="1">
          <mxGeometry width="50" height="50" relative="1" as="geometry">
            <mxPoint x="1260" y="650" as="sourcePoint" />
            <mxPoint x="1430" y="650" as="targetPoint" />
          </mxGeometry>
        </mxCell>
        <mxCell id="QaM1sbVamnLzecE5Oj-k-54" value="" style="verticalLabelPosition=bottom;verticalAlign=top;html=1;shadow=0;dashed=0;strokeWidth=1;shape=mxgraph.android.phone2;strokeColor=#c0c0c0;fillColor=#000000;" vertex="1" parent="1">
          <mxGeometry x="1770" y="180" width="374" height="725.5" as="geometry" />
        </mxCell>
        <mxCell id="QaM1sbVamnLzecE5Oj-k-56" value="" style="shape=image;verticalLabelPosition=bottom;labelBackgroundColor=#ffffff;verticalAlign=top;aspect=fixed;imageAspect=0;image=data:image/png,iVBORw0KGgoAAAANSUhEUgAAAVAAAAGlCAYAAACst65zAAAAAXNSR0IArs4c6QAAAERlWElmTU0AKgAAAAgAAYdpAAQAAAABAAAAGgAAAAAAA6ABAAMAAAABAAEAAKACAAQAAAABAAABUKADAAQAAAABAAABpQAAAACVOvYmAABAAElEQVR4AeydB4BlRZX+z3uvX+fuyYkhzBAlJxEUBSQpCiqiKKtrAAPLGncNf+OioqKCiqtrVthdUdY1EBZRAVEUyUEGhswwzDA5ds7/73fuPc2ddmKn6Wnumam+76a6VaeqvvrqVCr0SSyXXAO5BnIN5BrYZg0Ut/mN/IVcA7kGcg3kGnAN5ACaZ4RcA7kGcg0MUgM5gA5ScflruQZyDeQayAE0zwO5BnIN5BoYpAZyAB2k4sbja/Qn9vb29jvOo48xjpuLN++GZH9zLft+9vfGnuc+7/f09Fh3d7cf+b2x97gWjmezz0Rc4htxzD6TvdbZ2RmnfuT9eDYbn+zveCG+zb2NhXVj78S7+XHH1UBBGSTvhd9x029MhRyQKBaTOjmyVaFQcBACYPhdUVHRH+auri4HG67F9ex7/Q9u5AfP8T38zH6T8xDu8xz3s9fj/qaOAYARJp4LAAx/8HdTfgfwc5/n8adUKm3qc/n1HVgDOYDuwIk30kEPkAAEAjj4JtcDnDgHoALEOEcCMLPAsW7dOlu0aJEtWLDA1qxZ437w3Nq1a417LS0t1traauvXr7fm5mZ3/OZZ7vEswrfwt7Ky0mpqaqyurs6qqqps5syZfuS8oaHBGhsb/Rj3icOUKVNsl112sZ122skmTZrk4EZc8Bugy8YjgJRvZePvgdCf0EHoh/NsfOO5/Dh+NZAD6PhN2yHHDKBEBoIHwMK1LNjExzo6OmzlypUOlI899pjNmzfP7r//flu4cKEtWbKk/z2Ahvf5Bv7hyuWygxJAxL1wAdjcj988z3OEI/wKgA1Ai7BH+AHS9vZ2B2n8njZtmu2zzz524IEHOqjuu+++NmvWLNt55537GTHfQHieb4ZOsuyU+zT/AXQk4jMwfPiRy/jSQA6g4ys9hxQbwCHAZqBHWSCJezDD+fPn25133mmA5cMPP2yrVq1yAIVJAhiAXgAHTfYAO/wDaBDAiOcAX4RwBAhxzjs47sfv8JNnw+FP/N7Ykfd5JhxxzT4HwOJvbW2tM1QA9ZBDDrH999/fgRVwDQGseZfnCRMSOuJ3hI/fuYxfDeQAOn7TdlAxAxQAB8AFoMkKAHnvvffaDTfcYLfddpszSp6vrq72pjPvwcQAkgApgBDgAjxpMvM7+wzggx+8wzO8lwVdfuM/bvr06R4unscPmvVNTU3OKDnnekgAG8cASsLHd3A8y70s0AH6XCdMsEm+zXk8P3XqVDviiCPsFa94hb3oRS9yUI3vberIN9EB/hCHXMaXBnIAHV/pOayxeeqpp+zWW2+1G2+80f72t7/Z0qVLHVwBBEApmBcggQOMABuE+wjAARgFyM6ZM8cZHc1kmB7Xw1Y5efLkfrtmPM8Rh3/4nQU8zgOg+A0A0kQHVLGdhuOc67hnnnnGHn30UbfDrl692kGbcOI/4cE//CLcxDPiFaDOPRxxh5EeeeSRdtJJJ9mhhx5qEf6oeAI445zv5DK+NJAD6PhKzyHFBnABKINhPv300/3NagAGlgeA8RuHxG+OgA4sc45Aco899rDddtvNf++999626667eofO5gLI++Ff9rkAM0Arvst9riPZa5yHP/wO4RrAx7MB9AAsttlHHnnEFi9ebA899JA9+eST9sQTTzj4Zp8N0Mx+c+B3afIDpCeccIIddthhbmPlGUCY9wDhXMaXBnIA3QHTcyBAZAs1BZ0CGx0aRI9rARpZBocN84477rDrr7/e7rnnHnvggQf8XQp9NF9pVvMOvdwwOEAMWyG92ADjfvvtZ7vvvrv3bgMa3IdxcczKwDBn742V3wGw6C/AFbMFALts2TLvDKMjjFED6AeHTmCaoS90h0Nf9Pa/8IUvtJe//OV2+OGHO8MNNhrf4lmEc3TNewh+IqHHMG/E834z8wfTSLybuZz/HGEN5AA6wgoeTu8pRBQgAC0LhPENGGIWOLOgFSBK4f/9739vV1xxhd199939Tdi2tjYvrBRC/OBbNIkpwDNmzPAhQqeddpozrKOOOqq/YGOHBBR4L8LHO9mCTjhwGwtzhH2sHtFbhJ94cv7ggw86S//d737nowwAL5r/HAE+nkEH6JE4cw1QPvnkk+3Vr361nXLKKW6W4FqkJ7qLtON6AC1pym/8iefRVaRtAOxY1d94D1cOoDtQCkehiSBToCicFCIKWZaFwKBgRYyTZEwldr8f/vCHdt9999njjz/uBZf7vEOB5zn8BxA5nzt3rh1//PHOnsK+F9+lsCMU6q0pwAFAYx1Ag/URN4AtHOcIYIZuiA9gR9yxr/7xj39099vf/taoiNAhekVIF54j7oxNXbFihXeGvf71rzfcXnvt1c8ceQ92jwRYhn7ROemVFcJBePA7W2Fln8l/j6wGcgAdWf0Ou+8UrLBF0rkSQmGiEGUZIYUbpvmzn/3MmVIAAoUuC774AyA8//nPt+OOO84ZEgCK8Bx+B1jyLo6CHYWW+wBGNjwRrvFwBFhxAFjEOfQQTJGmPPFnWBedboAqTJVhXQGGgCtMHX+4xrsHHHCAveENb7BXvvKV3inFd/hGVDb4y3k0zyOdQ6+cE5YcREMjo3vMAXR09T2sX6PgUICiEAGCFNI///nP9uMf/9gLMgUQdsmzFE5+A35xnWE5b3zjG715STM0Cm4ALH4GaGQLL7/xDwkQGdbIbQfPqJiQiGcAWbDACFLoPXs9rsU7PMuEgj/96U/2i1/8wm6++WYHQdInwJNn+c338Ovoo4+2N7/5zXbqqad6OlABhkkF//gGjvey3+ZeLttHAzmAbh+9D+qrFDQKXDBQwBDBVgnT+fznP29//etfvdODpiA94jwLOwQIEd5n9s2ZZ57prGf27Nn9ABwskwI6UGhCApSEAQmgjef4Tnwjro23I3HHZeOOPgcCGrriGvoC8EgfWgY/+MEP7C9/+Yt32PEM4Mj7+FdfX+/qYmgV001PP/10O/vssz2tuAGYYgII2VhY4l5+HD0N5AA6eroe8pcGNu/wkAHt3//+9+3nP/+529Z4hkJLwaTQUlAnTJjg98466yxvor/gBS/wsPDMQPYYLIdCnQUKXuBeXOM3oAlQbKp56R/Zgf5Q0RA/2F3EM+JNfENXAXrZZ3huoD4BOd4Ltsg5+qJnH7PKtdde61Neo5KjQqTiIw3p7KNFgB367W9/u5144oluyw6g5XtRqeFn+M31XEZPAzmAjp6uh/wlCjhgRQG7+uqrvZkO46TgApJ0HGGHozBRuJi5w5hEOisYTkNBi8IcgaGAR+EDEDjnORwSIBkdGDyLy4IH7wSjCn/jyLPIwHfi/lg9EidkoC4A0WzcQx8D4zHwGfwL3YeOYabM7MJO/Zvf/MZbCnT48RxAie55hnRkyNhnPvMZmzNnjg/Y53vcD9ZPOCLNBoYlPx85DeQAOnK6/TufA0wAQCQYDb+5RsGJgkAhi0KX7aD5n//5H7vsssu8GRh2TAorz/AuBQpbGs2/Y4891s/xJwCQb+UyNjUAK73yyivdXkp+gIECoFE5kY509L373e928wuAGZUqMQoGHHmJa9n7nOcyvBrIAXR49blNvpHhKRyAW4ApmZ+CEaAYzePvfOc7DpwMfmcoDM9TwGimA5xMK6RgMcaQge0UHNgM9jSEzouwmW5TIPOHR1UDpCUzoX7605/af//3fxs2Uaa6ks7kDfIKacuspw984AN2xhlnePioTGl90HHFnH38gaGSf3ieyjny2KhGaJx/LAfQUUxg2AQMEXDMNg0JQjTHYBncB/D4fdVVV9kXv/hFLxB0JFBA6EygsACkTJf853/+Z/uHf/gHb8ZvrBmHP7i8AI1iYg/iU5FOpD+OjkFaGwApU04BUqacsu4pHYQLtK4qU2Q/8pGP2Jve9Kb+FgufBmwBUfyMZv4ggpS/sgUN5AC6BQWN1G2YZ7DPaF7DMuhEgJnSnPvyl7/sUwgpMEyzhFlwn8WHmSb4wQ9+0Ie9UNiCgcA2eB/mAesIRsvvXMa+BgA80hMhLUlHKlPspN/61rccVOlg4hlaIIBk/AZImS3GoibhB+lP2sNkuZ7L8GogB9Dh1ecWfQM0KSTRNOcFCkEwR2ycDEdiUQtYBsDIfZ6HpT7vec+z8847zwdf8y7NdEA13udaCEBKQYrCFNfz49jUQIAnLRVaCzBH8gt5gFYHgHr55Zc7K2X9VdKcNObIfSpg8gydTa997Wv7I5nNX/0X8x/DooEcQIdFjVvnSbBEnibjIxQUrtMcx6bF/PRovtNko1DBOFl/Ehvni1/8Yps4cWI/O3FP9CdMAAAq7/BuCN/Km++hjbF9zOYR0pTWCQAJqMI4Ea5fc8019tWvftWn6FKBwkoBzwBchj2df/753nu/fPly78kf2zHfMUOXA+gopxvgFp0BfJqm1be//W377ne/2880sHNSWAA9OoQ+9rGP+Zz0gUGl0MBM6RzCXwoWttEQzvEjmEqYCuJ+fhxbGsi2JgDCSLtsKAemMwvDfPOb37S77rqrf7A9IEyrg0qUSvfDH/7w31W4WT/z34PXQA6gg9fdkN4E3H71q1+5XYs1OINtBjNlkQlsnNEUo+BQKLjP7+gYoHlGYcueR5MN4Mxlx9JApDOhJl2xX5Lu5BeO0ZIgH3CNipbORabv0nRnDVfSnee4T2vm4IMPtg996EM+RXTH0sbYD20OoMOcRjS3ycAA4qaazgvUe/r+97/fV3uHPZLRKTgwU977p3/6J3vPe97jbDIK1Kb8Gubg597twBqgRQIbvfTSS72zibxEngpGyhx7Oppo1VDhku+QqHwBbCrfOOc9Wjjk5+iM2oHVMyJBzwF0GNUaveh4GYAXmZSMiVx88cU+g4gMGbZOZhExZOVVr3qVffSjH/WOIsZ70jEAk4jeWPcg/5NrYAsawI7+jW98w6677jqvmJnVBDhiR8VOiq2diRZhU8W7sL2SLwFM2C7Ce5zDhDnmsqEGcgDdUB9DPgM4yYTRyx6gylS9z372s97EIiOTIbFJhg3zkksusWOOOab/vWxAANp8EHxWI/nvjWmAihYhT9FywUT07//+7z5dlMqYfMTi2LSS2NKZypxOSYAxax+Pip3OqZAwC8V5fkw0kAPoCOSEaHbH2Lt3vOMdxurlZFQ6CmCVZE6eY0jS+973Ps/03IeJ0vQiQ/MshYHfwRBGILi5l+NYA+xzxdKGP/rRj5yBUqHT4iFvMS6UpQzJfwArJgBGeCBZwIzW1DhW06CjlgPooFW38RezQIdBn4VyGUZCJgQgWRgihiVdcMEFviI515HsUBXAFZc3nTau5/zq32sA5kjlTPMbF/kKMxImIezqt9xyiy9UQl4DRAFT9rcCYBljHJI1G9GMzzLUeCY/arEZ1TSJcS7XxpA1EOAJi2QK5pe+9CUfpoTdicyKwC4vuugiB1bOyahkTpr9kUnJ3DBPwBNhlSXeyyXXwNZogCIN6AWY8k6YgWgJvfOd7/QWDXmM/AeIkucYV8pCNKwRi2SZJ/kz8qPfzP+4BnIAHeaMwK6Nn/70p33jNjJgOAAQBvDe977X2QGsALtmgC6Znmtk6hCaW5xTEHLJNbAlDQCa5CMq4mCf5L9oxQQI8syFF17oCzxznxYR04Sp+AFXRogEiAKw5D/eyfPh36dADqB/r5NBX2G+Oos60FzCYecEAJnLzoIQDB9ByIxk6sjQXIvfZGgyP/d5LgoCz+SSa2BrNZDNO/wmXwGA5Kdgo4w/ZiEaNhnEXESFvnTpUu/M/OQnP2kveclL/HORN7f228+l55KxCs+lGG9DXGGHIWQihIwWQsYMobeTYUhPPfWUP8MycjBKBsIz7W7PPffst01FUyiO+BG/yeTx+7kHnkxvxaHjrNNpRrTGkG3otK+Qv5d56Dn+M5t3+B1mItTCOE/y8UEHHeQ7GTCkidYOwEpznhXzybeXajwpwvWsZM8B5uey5Ax0QOoDetkZH9nbsS8NwEoGZBwdNTa1+K233tpvTyJTAbgMW2I7BjJwNNWz/uW/B2ogCuPAen3Dc8BzQ0nONf9mw8v52SY1EIyUBxZoYgdjR//1X//V82300GMXxSbKXk6YoKI5TyXPb4CYvA2RoDxExb/Jj47DGzmAbiRRsSVFTyYZhQySHYcZwz3YTuPcc891GxLgSpOdRUEOOeQQXzEnWOdGPpFf2ogGBgKjhnMnTwXRT8dxx6nGKWzgiyY9bnCen2yoAcgBoEd+pkIH8GLWERU++2sxU2nRokXOOgFFgJPW1Ne+9jUH0xiah8/Z3nn8zLLeDb88fs9yAM2kbdiGNlejRo/4v/3bv9kPf/jD/tqXzAbIsh4jzJOMGQORw7gfmTXzyfxnRgM5gGaUMYo/ye/kUfInHUrMVGKREq4j3CMv0wkKS43JIdyPjs8A51EM9pj4VA6gmWQIY3k2M3ANNkqNHSyUTdrY5xuhKcR1VkEig9GDGUAcXgfoxnl+3LgGEiuztkxObxeCam78cetLGWnw0HzJ6E0oasDlyOcDLvef0uqCHLCgN+AJYEYeZ3NC1iTlOnZVnqW8MNPpuSg5gG4k1SNzkNEAP8ZxIiwzx6wi7J0wTmplamEM72Q4NvwK8KRJj4007ELh50Y+l19KNZAD6MhmBSp78iuEgHxJHg4w5Vrk0Wim33777b4cHsObEPI07wGiv/zlL/139r2RDf3Y9D0H0Ey6RAYikw2057BCPFPeMLZjRCczknkwsrPVAnaieA8jfOzfDXPFr+z4zswn859ZDWyScQbHjIcH2EYHXI7T/LihBiJ/Zq8ColwHGOk0oiVFvo5FmAFTVgdjuTwEUsBz7MXF7gk777yzXw/i4CfPoT/RWnoORXnTUY2ZQAApmYrMhTBejt70O+64wzMXTRru/eM//qPvXRQ7XwKUXI/Vb3iXDJmDJ5rIZXtrgPwJ4yR/c0QAy2glAY40yXFMOeYZOpHYj4nxzZQJWmS8T8/9OeecY/Pnz3d/wg8/eQ79ec4x0OzwjWw6k1nIILBLfpMhOM6bN8+BkmYMTfZly5Z5pmLxWsbPIfkQpawmh/BbZbp1favVNFZbQQW7p5BUYD2mQt/XZVUFTXnVvyqrTD7SoftKL++M79TvupwPDEH7W3yVXRNYvwEGitmKDqc99tjDR5ywzXJItjwAxhCIOMYz4+X4nAPQSDiYYgAltTCCMZxrsEZqaxgn2wVj+wFYaaYArIyLY9A8NlEyEswV8OWdXAavgc4mDbOpFTimvUddxXTN1JLG3FbWWneP7pcqrdSX2OsqS+n2JQwfJQnLg/92/uaWNUCZYY1Rhu4BopQbwBFiwaD7o446yj2hDFGWotN1yz7vuE88pwCUDBBgGeA5MOmiB/63v/2tnXXWWb5uIgDKdeYLMyWTzqKsnfO5av8ZqLuhnveJgdJErJ5U70yzVbOLtK6QLbU1XkHVF2rFPSs1XF47m/b12vRCssBK9+o2Kzdo7cocQIeaBJt9P8oP/QBvfvObfaEcyhPkAbPVd77zHTv22GOdbIRHlA2GR/FumMji3ng4PifbPIBnACmJSPMCuw61Kon9v//7vz6gmN/cg1myD/tPfvITn/5GZiDDYA6I4U08l8vQNACBnzCxUdMyNb6wSzPC9K9F/zCffOITn7A/3/VnW69/VfpXLDybdcsaRmbdSXN/aCHI396cBgBD5MADD3TGyTJ4tNZondEae9e73mU33nijl6MoD7BQWm3jETzRxXOKgRJhJGpSfsfQjkhgatGvf/3rPqed5jmgCuPE/sNGb2HfAXDjnSwbxc9cBqeBDp/j3ifGqVld+veofi1atsg+/rXPu94n1Df4HO03HvZKkc2y1ajSaqxqtAlM4RQLskI+EnRwmt+2twIcKTv77befAyjlgVYaHazsMgtDjf6GOG7bV3aMp5+txneM8A45lDQ3gn2S6NSeACGJ/IUvfMHX8AzbJgB6/PHH209/+lM3lgd4Egj8wSHYgHg/l6FrYPW61Vajf63619zR7DtNUuExFpdOCxZmufqPVzsznVA1QY186d3BM7c/D137W/YBQoHdMzqGWDyH1ca4TnlglXtmMrG4DmUL8xfpN16ldL5kvEZuY/Ea2HwHTNn2AJBkAWRqUYZzkPCHHXaYr1YDQNIMIUMgLFVHE56mPYU6xs5t7Hv5ta3XwDrrkC7rZPHssjsevcfO+/InrX7WVFtk62xtX7vVzppsj69abEsWLTWbVG27z5wtW6mGjomJlirKls+F33pdD/ZJygCACAtl9hFl4IwzzrDHHnvMm/GUB7YFYUFx7NnsyEDZGa/ynGOgkZBkgug1Z5Dwxz/+cbd/xn2aILAd2CmgG2yTJgpsiHMyCCwVGc+1bOhkNI4MU7rj4Tt8aAyVGwO6qaywR2MLZe8e9P6LX/zC/nDTH9Tolz26WvZomGguI6oByAVlJmyaUX4gGJdddpn3wgOqLLbDERBlkgllJcrPiAZwO3g+rhgoCUzikljxG2CLJjtASA0aTXcyADsXsko8QMk9muJve9vbfHsD0gMmSgZBeJ6CHL9pxoREZorz5+KxQyDWI0BL+IaGdcVk9VQZPWpl98jq4Udda+tst2KJ4WHNYpBFe6zQbPc1P2IX/fw7ds/TD1rf3Fprr+m21UUN3q4vWGe505o619iEGRNtSfsKe/TxR6xql0abNmWWupa6bWqvOpPUk98tWtDU1mI9mGbEUJetWm7VtWpF0JLE6pIeNRrKha6RLrm8Ez/Rx6b+ZplklCme5Tr5//TTT/flHe+9914vJ5QdVniaM2eO20rDX8oY71M2Kas7ctkZVwBKQpI4ACXgRsJEQpNQ/AZYAwTZH4bpmXQCMeOCQfIsBsLe7IAsz9OLiO0zOowiE+THv9cA4ImoOPmxkB79RH+Y+1LUrQ6lEThWpWZ3V49WAVLFVSqW7P6+hT7G9m+Pz3em2VrV47rvFvL1KS1V4qxajH/9ohVuZmnsrrTFixfb3F13tp0a1CO8vtvK1ZXW0tnmZhWluHX2ddrE2kaFrNcqBgC6brsEd80BNNHHYP9S9k466SQH0UcffdTtopRJxlPTY59d3pFnISwx8mVHBdJxBaAkPMAXzJBhFyQUQIrjXoDn/fffb6973eu8IHKdpvmZZ55pn//8551xkqA8yxHwDEY72Mz1XHhP1kjHJHEKB0hnFsK9BE4BVgEoyKkfJaVHu55qkd2zo1hhj61dZP/xxyvsd7fcZD0TNVi+odqWtK6w3irtxwPRZ5BoWS0EAS62Tk15sGJvwRavWW4rV6+yXQ7bw3arnm1thaRgEoZSX7dVF9RJKOAs9mCySRGTA3gsR3AIH5cS5qwfuQxKAxAO0vzEE0905gkxoX+BsgOI0qcwa9YsZ6wAK9djsD02VQB1R5M0R+1owd54eGGeJEwIQEoCkTAkbtgzmb/LIHnANRZHPvLII+3iiy/uT8QAXI5Z1hp+58fBaaCzU8xe/2CnrT1avKJYLSjssd/85jd2ww03+KIstAZ8BSClJR16ME+VTMacucOkQsVGWtOBx3TbX/7ql2reN/mUz2C+pXRYUzetiUy+GFzI87e2RgMQEYTVyRg7zdA/yiVA+rGPfax/sWaegaBwj6Y86bgjyrgCUEASsCRRoglOotBM4BwwpDnOep4UUACWRKQg0ilBhxDPIZG48dsv5n82qwGmWOJC0KRrE4qHEwssaQaRUNDdejXNV4tL/uDuq+x/H/yTrajRWMKZtfZ063JrKXdY7YzJYqjyQfPgfbeOHk1qaKy1tW3rrDSx1pobC7a8os06dm6wK+68wS757eX2dKHdVmocaatAWf3F1t60zioA0g75kYajGyyWg33iKvUHl8vQNRAjVgDEn/3sZ14BTps2zYkMtlFaeRAX2ClC2YPE7KjybG7fUWOQCTcAiWTBE0M2YAj7xMZ53HHHOXvhORJxzpw59oc//METGqAlA8RAYTIB1xASPZehaaCPFoIqrY5uzfzq7fLxno8vfdyuvPJK1zlp5LqntaCe91alXZ963NUNn7BQmCfnqiRhLaQfFSbpTkHEpj3viXlWq39Ir77nDJaTNG/wM5eR00CUF9IDQnP99dc7UeE6hIUdQOlsIt1o2SGMHY33Ri5kI+PzuAJQ2CVC4pCACENgOGfs5rvf/W4fr8a+RRRUZlF873vf6x8aE8t5kdDhF9d4Fz9y2YIGIJfej0S2Ui9rekrnEU6LKelPt3VV9FlrodMetqftl7ddZ3e2PW3Lp6l1UNlpK6zZqqY2Wk+1/GgSM6nQjpIwSHXfl8saAdHaZlVioV1dbdZZ0H5VjZX2TOdqs+m19mRdq33vlivt4e6F7k9be7Oa7vpmu6bZhv1Tpwn/1Y+QCGic58dBaYCWH5UgAuFgPCgmNFp37DNPWYSg3HPPPfaGN7zBKz7KYd6EH5S6h/+lADnsYwiJAzuBqTBUiRW2GZ/GfYzZ3/zmN22OGCiC3Y3r+AGDhX2SIXCM+4ymvT+c/xmcBmCB0jHTMNH1PX+7x/7yl7+47mEg1SpwGtNkHaoIe1UAC1qkuqxrXVrUV3TGusRIy5r10qGjEsoqlWbtMBsV0hYxU9L2vvvuc3sqve5UhJ2dAk8dlZCDC3P+1lZrgLIGgNJ5G2URIgN40pyHcXKPssbwJubOw1LDbfWHxtCD44qBUpMhJAiAF016NsJikQNYJQlKTXjRRRfZoYce6gkdzfNoCkYtyrPBZOPaGEq7MRiUhHnSB49LzrAzJvu4dxR61OPea8tk2Xy8fZl955r/tqYJfbau3GKtOra3CRhrxGDcTqpKsK3Tupu0bFqFVkkXbSz2aY1WrRdaVK99UYy0s1tNQI0f7egTSNaU7Jmypg3uUmc/+cOVdsvKv1mn2Gt3pSioWK/GMCkc8jOx8rju+Omn1Le9SaU7BpW6wwSJcodEzzq/KVO04mjtMdvPK0qRE8CUjkM6lpBozgdRibIcZTOu+8Nj6M+4AlBsncxSCeDjnO1YmRFBjUhCkoCXXHKJnXzyyc6C4tkxlCbjNihd6hACxFQt+XYQ2Ke9ghIb7U3tYUOJPOndKjs3yw4yQWL5uuXW1qth8mnBHorf+btD18Dhhx/u6YJJjNYCZZKVzyAzpB3XISrRcuSLPMP5WCUw42ocaNRaYYthKw42gcNIzfAKakbY6Fvf+lZnqSQQNRuJRE0XNSjXcxmEBlLKWdAAS/5hfsR1i3nSpF4j6+Naa7Prlt5ll139c1s7UR1BGgeqNXys0MCSdEkzWyTV11ROBjsVrELnRcZypq5P9kz/AoRSLsbH99SIT2poVFVVrT2+/GlrLNXZXnseIpIq2FZrgnGgPj40DRdhcwYRjDcHWmlk5AQQZC8lwJOFmTHjUFYpp8ccc4zNnTvXm/gxpIkySQXLc17RjlzQBu3zuGKgACDKx/a1ZMkS37MFQzZj0ADK17zmNb5SDAlDkyGa7GgvwHfQmsxf3KwGYJ6AaHNns7cIKBQUKG+iiX1483qzPmz5Zp/SWAY2b4WQB1jjYHn3ck/b4fB/yyHIn9icBgBLyAqb1L32ta/1sgq7JA/QR8FwpiAxYX7DP/LJWC2f4wpAs3aU87XI1NKlS23hwoVutH7BC15gn/70pz19STCaDCQKNVucby7x83tb1oAskeKTEkzRuLS7G/6JW6q7tz79sP112SO2rE5z3DWvvbexpApPXFDL2DGzCCdemTiopVyPeuGzLrGwPvscc+593r2mbWppJmup6bW1FR32WO9q+9FNv7bmYtmWaN5TjAYoibXihNqJ0+dlXs1lhDVAWQMwka9+9avOONm8jjHZDz/8sC9dSMXHik5INNsB3gBWvzGG/owrAA2aj93z//7v/5xlsmMmQydYJJmB8mzTGk0EEgXwpFbMZRg1ALZlBPYXDJDZRpFOxbQS61DPbFHmlSELTXA52C1pSsG78847bWXXSt8KZMj+5x4MWQO0BCE6NONZqYnyOGfOHCc0P/nJT3wtBMppDCOE5GTZ6JADMMwejDsAxZ7CqvLYPLF9ApKf/OQnbZ999vEOJK4hFDIkEirYq1/M/wxKA/3jK4PZpZQvAPTeNQ/b7Y/eby11BWtr0DYP9VXW1d1mha5ua6x8dmWr+HivbJa4HqVh1sV1yKoT1nhBtlYNGrWOkha3qynailKHWG+rXfmn62VrJRTJaIB+KsqoDTlnyOkOoOFVfhwZDcTShPjOAiN06AKilEfcl7/8ZWej0evONcowleFYlHEFoFB/Bssz7hPbJ034t7zlLb4tMcqnFx4BXKnVAM8YckGTPpeR0wAFAfaJUDhg/h3Mm1azDsaxVj2wQxYKmdhstVocbfKPtOVb2ELX6V8u21cD5AGEZjzMEjLDrrfMTILAkF405+n4jVZivDNWWegOBaAoPRSazQpRO/3Lv/yLzzTCdsJwpYMPPtiwhSJZhkmTHiGRojnpF/I/Q9IAhhA3hjDvHBtopYYt9TVrvlGPzSustqseu82WTdEtBnWqa73cqymbWhyUtKqU7atXRtPebq3RVC/7dFmMROy0WFmwiZq4jqvWxnFVXQLJSrlqFUZIq9hmsVsjKXo1C6azbIV22Us1VVRd9tak8aVrCutsSXmd3b32IbHRbtlCu6xHgcR59738LKlgV6QjAHR18NKjeOFSZus6QA8pIxfR9p/xgb5eXeAhrRqF4wzHBEdc2JTjnHvSbL/3/rBU4Rc71aMtv3DSort4jyGuPsyVsGQcr+KnRt+602FEJcpu2DTj/HOf+5wdcMABXkZhm4AowIqEKYbrGxNIUNhVN3Z/pK9tPFQj/dVB+o8SQ+kUuhBAkO2Gr776at+fBYYJA2XgbuwkmDPM0NbIHRN+If/DpixG6ExfHTi333P7Fj/slRlpHACkN6g0w26GB57+cV+tCBnPvLOBdymYfM87H9IwcJ3xpthCacRX6F9/OPFQ911SdpScjMzfUAuf6hZwEzdFqP/7HZ26lgkcpmQcwkLUYHy0ZB1PKL08wLEUT+p3RogzasK54D/IKcdPLqOB0ehD8/jqW1EWSVfAj5l+NN3ZbQBAZAQNC4+wohNCGkarhTQOf7gHCSK9swSJ66MlOxSAohTsJYgXNv9lPrf2ggsucFvJggULvEn4xS9+0RMGIM2CbfpKfhgBDUBuvPyzarIYoQimmGRJozzb7aY/35ysRE+JTV3YMHv0HI7xoxg1K8SmuFBfqLPJWhhkQmfJGtoLfpzcI1MLrksUMqVkhS5ZN9u1SLO+iwu0ENe0otYTbdW8+dvvucPW965X+DSDSQHlEw46AA/h4b2hSkmRwIFuOLzMeOtmVtHCvk5WitLKVVqNv/8BIVyd3oFcV3ZrLdoOdW5q6b+yaKu6w7SuqRaE1upVOBg8kxI6i53WrtWnmnubbX33epHLrn7XJ+VofIm/yzqtOFbDcsBOw1Whb4nAW2WbZu1phtdoCZUgDiCNcnzEEUfYhz70IWecdDBBgijDDz30kAcLkISN8nwQqQDSTbHT0YiPUnnHEdgks0yotaLnHHbxwQ9+0O2d1EYYqU899VTfzIpzwDNsnztOTMdBSAUIrMFJ5m7tbfVtorcqVnovCgaFBVsp4wOpODnCNPDTbWLORBNGAjNhCAzsFbaC8C7PUlB5lx0kEQqvM7Jgf1zUcyMujl9Jp0gygj/9IrSSsCi87vgtsCgKNAo6MmkA4Gccbbea/axkxZFrrHlaXa62Wk0eQG/O0FNvue//uI6uiCMR5zvoSJcA+IoqbRFdn/QPjLgO9AHKbqQRv2GdnLPU3dlnn+3pRrklrZn0wjGeJ50R0p/0xSHBav1kFP9QBe4wgpEZxXJEgQApiyDDOik8KJmZDqwq74VJGTHAk8y1PWuqHUbJQwgoENSlleOrWT1JjK5TJZQtNZ7Q3u6tmo/e7YMv9VDa4x0ziJhZhFSJMxXFCAva1Igmbq3KOFNzWx94xjuHrLFOu3TOsroqzY3XMkvrsH8KFMoqhBUlDbbWHHlAoUvrhtIbzwSjToWnVwABsNzz0Dzbc+6+mqGk/KNvJUCa0jFHVA/GoP8oNP5uNIfx2QW2i+h2EabLVCtBGztIdctm2qtgsw1KoToBg2TCq5iynmGx6Rb94liQhrrFPrUOlZ8DJcni1MnMLNOaAGyNUql/LNgivoavTooB0hpd5/lKWLKEHaPw18R4KR91lSMLooBllEMqR4ATkgP4UZ5xbC1Opx8rplFpQpo+9alP9e+YC2DyPH5xBFBx/ZWqx2z0/uxQAIpaAhBRLOt7fve73/UaCuZJTXX55Zc7C0XRKBmhORAdR34h/zOyGoBBpUI6PfDAA2lTLWGGcW/gkcKVFQoUaSoUZbyZCrq2/2BoWlrYYG28w7IlgKGzFN1DSmJvGA7JB/6M7rMTQccpWgKvT6uf6zEHUB4mvOl7nI6GUOj7VKGUBfz65Z9sY0iXwtGbAlyrKgIqkCXrtES0WloPPvmY66Ops9XJQ7s6z/AHDRCXieUaz+dTJ091e+IMDVKnp3tSdaODKi0BABZLMNIt0wfAU11R5cDqF0f4D6QHAgSABvjxOwTiwzBE2ChlGn1cccUVvvwdW4IAmqQpaU2znnf5nfUj/BqN4w4FoMEYKJQkAjYTrqE8jp/97Gdt5513duCk4JFYKBzw5JzfuYycBoAuX7uzlDRJ6UVuF0jc9ejfrKMqsd1lvx4wG0y0Uza6oiq9sooz3KpOxb5Z9KyrizUmda2jzybodzeUDazFfikA6NShG0ASsy1WqQe/KGCRDbaglZr6xGS7ZDeksC5Y+rSztw6x0qL2SsJGC24CsLH9RzZ82/pbCz4lEkcUgiSET98WQ9S/VgW+W+yZzU1onLN+/uq21dZTU2dPtD5ht997ty/L9+SSRc7AMPdCBoraMI94qAHv+b0goAUAfcM9faanPe1EE6PnOpvoUS5ovnM8eK/9fZuNw3c/wObsOsdmlycLSiusXuGBme4mjY+0AHqUS4CS8ki40D8gCFhybd999/XNHi+88EKvOADS888/3/7rv/7L+zfQBRUKfiG8t71khwJQah6UBniiTFa7poYlQXbddVe3l5AAWbsnzYRIrO2l5OfKd8E0x4oElTzapBctha0SvUfBp1VJoQqGIsqRvJ4WNq57oSkn9k211l261IR1u7c6X5Qp1KGkClOVaxQ0WiLYEfE7CehWhWrYHqIZjdCsJhx0ctEZ9PgzTxi7WH7n+sudXWH6cABUB5jPymExFkBG8SfeRQGkxz/t+OpN9RIEod9Swpd4PmV4TJfE/aX9RgfkOQ0zfPjQCYe9yPbdZd9hi+emPAriAwBGC5G05JwyGkIavv3tb/cVuxYtkvlHZjs2pWPHgVe84hVOiCJNecfTM14e5WNBNUDUl6P86Y1/DmV4IcrcDroel1j2il47EgQHiNJ0Z757LttPA4w77FKzuU4lGMa/vLLdmtqb7KQL3+0FZtmUFAhBSEnRV0FSAUgZmrntVCetatqqIpy9suCdP2tvmufPM7ZzF80oa9t/mgPDigYBJYDLHHgJwIT0VWxoKpjQnEwTnb0iWY3rlJ2Pciao5Zr9eXqrYayl4rOF2G9s6x8+2ypTQ32yQVoX+46qeHUIIJB1AstW/WsRkDLq809P3uOrEs1f+Jgzr6cakn2CYNJIZnspPw/bcXLCAwOKrswBLlQQyIDbFQXZUMX0atoSpjdpVWISm9RStO9f9H3bpzdpMjs4Jz5sl7/BUP/0pz/Zq171Kt9okMkxLMQMkEKgAnADiOOd0Q5wZN3R/u4mvxfgSc0UQg2FoCSEMWMoFIHev+xlLzPWGsxl+2sgW/hoFtLU4lr2+vYKJWGIfEPYsjIc4WtbpdlUtQJPVR49qtgrNEypXKEOLP3r1D8E4Lzxzhvtw//2YV9QY+XKlc4yIQUjLQ42ahFg8qJ8hd1w7ty5Hq6R/v7W+A9ZCnA88MAD7bzzzrPly5d7OSftWNOC+8E6I90iLlvzjeF8Zkw14YN9hl0klMI5DsWxZcO3v/1t70yCxmPfZFXreHY4lZP7tW0agP/QHeDER81LVk1atnaFdYqRdsOWUmZVSBkSa3luIGwaj9NzsDBZJuWQADugiPnxegSyiX9+TDwqstWmpL/qTb/Xw8wnCSsurdKqTwwIcuujs05d1Auscj9UqZmqrV+wzU2qcf9Z/xRW/IR2aKrSv1/Pv96bobc9Nd9bTbZ3o92/4mlNXuq1qfvNst62lZsIQhK/NDquIh4sp3r0Tn2dt1am2gr9pppgjK2LVqqycp3KSrptjfTb195lRz3vQI22Tb6RPrndDpTzEAbYn3vuuXbttdf6kpRc/8EPfmCnnXaaHXLIIfGYH4NkbXBxFE5CtaPwqS1/ImoVngwbB7UmQk1DrcmCyAy05Zy57x/96Ee948gfyv9sdw04sKWhADzoRUaiZZHe2i4H8kwwUAIQ+c3HSA5TiMrKmwj5Frhf25ls2fvTq37qM+NgnLSaCAeO5dwatWLYyq21Ew9DOAOkOML49t57bzdpDIPXQ/ICnWHHpd8CIX3o2wBECSd5CAdhIuzYRiFOsfzdkD4+yJfHFIBGLRIZmzihKJRG5v/Rj35kN910k//mOjZPFgsBWDnPZftqwAmh2FyQQiCkgznedIJ4zwZppPSU7ROnznF3/aFO54QzgNOf4Vk5FaV+R/cL1/w6NlScBpXjyMyeoZPP9HvbK6qbOPV+6xvMFE/8TB9h/iTvDFGaNSuoU3P8l6q/vUkjAJ7U+vtLKzvs/d/7jP3snt/Z0sYOW9Igu7BW4m+bWrTmUqstWb/Y1rfJGNmo5r7Gv+JKoow4mGXi1BEk2h0EPY5uJJWhlFEMuJJGMeCqZIfGVeo3Dp3h2D+KAfg90kFR+0UxN7RGO53uMnmmNVhitx2iCob0epT7MN8BpFxjXvwJJ5zglRIAy7RcsCCGNGITjXeGFIBBvDymADTCH8pAecFE6aX8yle+4jUSA2zpqbvgggv6bTnxTviRH7ePBqIe8xaDmpCYWEgbzre3UMlS6KKyDbPPcIWtsqQRIB1aGEX/WvjX22If+fhHvPkJE8f5uFYpgm8XBAYFhaeQ6YEeUR3RGy+WR7ni+xxheOgkOuBG9Ptb8DwIFCBJngmApPPoAx/4gJ9jD2VkArZQBtvD4nl+e7VwxhyAkqiRofmNAJjYPhgOQwYk0dmeg554BHofyvcL+Z/towGxOJbkDNGemtY4aaIznqRnmfSEQSZMMY7O/vzdhEGVxQhxkNYMcXWW6OwrmJkAsQKnfILDpup2VR0TRpn8CIYGcFL4yFc0r0saDuTNd2ZC8egQZY3GefZqltQKMdA7n3rI3vaJ99qa2m4Tx7Su6dVWsdMEa9VQy64+zSXSPPY+zc5ixak+TRCohBGmEuHtX/dUuNeLqVbjXnFdGp2Fa9egAVxbVdEdtk5cp6h94vitqIkV46xK39B7bdVFa9cuph0a/7XP4QdLaVUKcVLWIgzb4wgIkkaQpij7ce3FL36xvf71r/eeeDomGZL28Y9/3MGTsAZmjHa4ycNjRoIZBBjG+WOPPWaXXnqpKw+FYvugJ54hTNSkKDxspWMmMs/RgESaEX26gWCg2Upxe6qFsBEejoTNw0glrTw1HBJ+zl843/7zP//TvaTyx2ZPxd+OPRgmLsYkpTgbVOa1kkaZdKYjTIYjHJv0Q/Hm+5QhAIfjHnvs4YPpGR2wvYV0CYYeIEreidYlC6OzOBBpSPOe1ddYQJ1nIFHbQ4Yn5wxTyElUQDFqE5TIIhD/7//9P8/0KJgMyVQvQDaAls9Hc2yYgpJ7MwgNdMOU2BlTPbsVmulT09Zh+2iwdmOh1mpZQcnHXaqyE+PDAbG4sNH16Z0eZgh577uG2ig/4IxnU9fDu+rhx/Vq3Gg3Tj3ouHoxrFKvOiAEVip1AiiNCxAFK3VooHaPFtxQL/30am2n297hc24oeDgAtFuDUem68O6LYLCUSRysGu90WK+C26xfPNetXm1GdGJ/7W1ttuW20hbaIrvkyu/bzU/fZZ0zK61pUp+tKrVYW6NeEOuTkTJhu6zEVIFOtNq64qsVPRQX2SeLMnfoSlEG5Urld5wPH2AIQeihT/HCdYt+ylV2JK4geygu+D2s35m/RhuwOpatVXNXwZ26vtcmrOqw3Xrq7YXT9taKVxU2tTdpBkfZkyejLnw7hjDxcQAeF+WcXnlYZ4AsePCe97zHhzeCFQhAynWE40iD65gCUGoVapessG80c5hREAp59atf7Vug8kwoEjvI9kz4bHif67/VZ8EQCldDfU299+6SbpGpR1I/tEz8O9gWYXmpI+9QEKlksac11Cc95TwbhdOBdAuB69HztbK9M/2xq09LxwG+kg41KYu6jh3x/M+db8ye2WWXXbx32O142B6Vt7ckA/Nwv974TvqtLfmxufvVMOGUoFDW2Eq4Xv+6NKe+rI33xroQZjqUDjroIE83+kFonYIRCEyV9ESPpA3npDvpHyx2uOM4pgA0O0CWzAMw0tsWzXOuvf/97+83LqNABtczLGSkFDTcCh/P/nlndlL5QwU08lEr/gtsdpk606p8cVDF3jEnYUmwSVzY/IaqG6ZA9mn90YJm5PThKavXa4xlH+uFahHQuuo6m1A7QTxYzA1LrALMtEjhnshdssSGjwbVOdcghu7S87JqB+a7O0dW4exWYZUF09omVNnTnavsc7f8j1258gFbPLHPHq9us5aSdryv1ctt7do0r9Z06k4d82KNcjrHlRRGXK/GceJ6ZA+FzXeLjXaJlepX6hQfqHBBtBhXlCdyPdr7CRdCEuBc5V7CE307O+3qFRHWulfaCeCYo16kFNIC01pLNVl/IHwYm0fKOyB60UUXeUsVtsmmkazgBEZQQYIRSLDXiElcj/PhOrp6h8uzofpDzRHjBvn9i1/8wmsY7B6wTQzJDF1CiaGwqLW3lw1kqHEeT++rVa1MnMSojya0hM4aOvuiEkzujsxf2AcFxwsLNjGchGsIm5hVp8N1mIMeeYd7FRVpwDnZhMSccm5XevNb2NgjO7z+XXfddfarX/3K9tRUUxgPlX9ZFXuL2CmSbZr6ha34Q/g8jIRfv4cqbWLosHL0hO1z2rRpqnJUKeicdNoRBBxghhJz4iFPmPww6/3sZz/rD37MWCTd+U1+II4jIWMKQIkgBnfAkJ62733vez5cid80hd773ve6DqiJgnEyhIGmG9dy2b4aoIh7htIYxEK1FvgVW+oTazvu4COtsFYb+HXKLiqX0DvsmLCs9KVhyImdQnDNPqct54BT1Nz2SrkG2Qtxh+97kBqs7L0kG60oZgBij1gZYXd2yev6jesPn367cLFFbJJxlHLr9FSnhi7934p77NK7f2c9k4sa99lq6zs122m6hgbVYafUlE7l3TYAVewbR4c4LqSfKfIDW6fGfMIWq3tKVqOVp2r1bK0YdVFrh+JEpxNX0FGuVywU96wtWd443qbKTW2m1VrGr7q3ygpNXXbK0SfYBK0QqjOr1TJ4RTHSsS7gAiYYBs6z/xkYAIBS9sEKeuYBzYFgma0ohzuOw5Bthy9I2V71n//8525L4hqM88gjj7Sjjz7aP4Z9I1ujj6SChi9249+ngRwGVkNazaqZ1W92GWkt9M8qEuMgX8BYYCEUNmxnjNF0RiIIDQlbZpxv8kjzUIUVf3lHq5MKfgrOfujsLDHDSIVbmdNBvLO1TchXY910aqVNy036PeAGYRzoBjyyzafeBBbZgCEffsDh0sCzOthmz7bjCwxF22uvvbxFCqDCQB9//HGfJkuwaMqT7ugvcGKr03gb4zWmAJSERciMLFfHOYqg6cWMo2iKAaoh1EbMRMhl+2vA52rDrDTjBSrKmugs1jtJPOfYfY+wxo6iu6KYFq5PbAE3bFIp9kZLvE9NebkqrTpUauqxxp4q27lumu02dWeFhPVGaXSLcaVmhgrCiwgUcVQEuLA88qg7/ugGCyAXVEhXamWlXz/wO/v9snm2dLq+tWadTZAXE2vr1V2vxW462q1Anu4WgNZUWbu+kzgxZdk5GaPp4zTdDly0Cc3a/6mpxqY3Vbmbsr5sk9dVWOP6gjUIlxvby+7K3cxaEvjR4y7HeqCJE+hqIGy/TVk6cF30yMIpV6VVlxp6au2lB73QdrFp4p8ljUZQ+Dyy0OuxLQGCHMEGpnVjGgJQOTJ07Omnn/ZIAJ6jQayGMfcOXflui1HEWcbqiSee8H2OWKoOAGWfIwRApac+QBTlwS6iST/0UOQ+DFYDYGGPmu9ur1Mmh51VFjSrRP9i0sNg/d6q9wiA8k+W7WHiwda3j2yTMC5sflGwyEtIYWtBHIBVXuvsSt6DgWJ7i07MyJfYP+uVL9WW1Ep7nVZgfnwK1puLB+GKsAEAAAX5GnAYDhsyLTnK04knnuhp06tpsKSRC3ob4xJsMkx2xx13nGMDTXtY54033ui4ge5IdwScwAX5Gu4obhcAjcwQmYNIEWkEe+c3v/lN/02GRFnYO0JCMVnWifJwuWx/DZSYLaPebZglbA9b40yt9XPSfkfa9O5qm9qpTgz17fS2aHO4NJPXaCV2a3m2VTHoWLAfvWyv1tZtDRWy7zX32k5Vk6z5iWX2lpefISZco5BoWItCpd2XrFKsUCERgqaOLCjXTzjTgASj09IbAkWN/FRP/yqNBv3Vndfbwp41trxnlbVMUf5b32QTxCartW2GUDapSJSv+9gQnnGfMEJ9vVpsEDe1rWxTWitsRlPR3W5ram2XVdU2c2WF1T3ZZitve9KWXnunrbrhPlt95wLrW63pjR0az1qoFwNV2Ls0NKtPQ7YUL8a89mml/b6e9LsyW9RVaX1PTU1q1DjROn1ncnulHbf3823X6mk2RZqo1wwkNvPolV3Xw5fGd6weonOI8FH5UdmwmBCYAKZgovjSl77kWMI98IVrWawY7riNKoAGSAJ21K4cw+Ab9/7yl7/4YgFx/3nPe573uAVbGG4F5P4NvwaCRWV9hunAGGADNL/I2L0yv1TLbtim+c0FHYcs9LTCEgXefIe8hX3s4IMP1iD7oftPc5zRBe3619rW6pufweoatdFdtyp+OkD5JnnVCzukgDBRufNbhRqJvI6eYEahL8gCaz78TZuqLbj7busMeyovyawFSMC2OFI+Qvx9+eMkgm8ojKW0ldaX2jx5hvvoYlpl0vse7xdrdowOWBios3vlFUATfdEyxR7qcVeEHnzwQV/+jrhxLXAjdB5xHq7jqAJoZBSO2QxAhiAjcY1xnwjXqEHe9a53+flIUXD3PP8zLBpgHrpnqJTClcS4cJPEkiZp8vbrjjrZdrZGqxZbqsT4J7bYDvNUr3Ol3JAFm6B2mGwoanSj9k+a3F0pm2HRTjvyBLHgRnEujQKAe8r+mszYGfDFdHko4oCDL+KiV75VF9u0w+cyNd1/cesNNn/5E9Ze16dedy2GXNPr11dps/VOzU3vqtGbDHVilX3ZYq1F4Wmrsvp1BZuxwmyXdZW2T3OdzV6qITZ3LraV19xlj974Z2t//GnpQ++wOj6dUGtl/IQTT54iAivioX2QmKvEPHlntNJvIe21x1RS0DYnjG+t1ipLhWYNkC9U22TpvmZ9j710j8PthF2P8JlHTIxSW8BXe/JI6pM7gkQznrBSWeHOOeccr1gAVQCWHnmESoznqXQCe/zGMP4hn4yqAIxI1AiAZvy+6aab3P7J3u8I6xS+4Q1vcEWgqFzGvgYgQLiskHmpAKfXTbejjjrKWSHNKjaQU+JalXpSs82z7Lvb9FsVLsK3YLnkLWyf++23n2AzQYh+m982eZw8rMa4tXRqk2FtIYK9jQILk9a4Gh9fSRz4Jh1MblclPCq8CDOjYES8AzGgs+O2226ze2+91RYtWGA9PKf7sEfRfTu7HAAAQABJREFU5+Q9DX+q1iaJjWJYcxQPvkW88Ic4hu2W8uOjD1Kg4PuEhWfoI4CNY6dlIWJmHmEH3kBU8e0IAhAS/xgrji7pRH7jG99otFQRzH4sd8fWyIEZvDdSst0AlMRFQin8xvZJ5qAXHkW94x3vcCVkax2ey2VsaiBshcHYvJyqrJY7ZRfs0jRKMafXvEjjD8vVVq+pg70rtSyh7J9ljcOsSrBvaBFjHKVcRbv2lNf4ycbOsr3s8GNsVmmC1rssaQxkKZkRBaPbADQAFFXkXKYCoLUtF+NCk7syceq9Z3pa7A9P/M0e714rNtpja/pa1Ekku2u7jtoLqbtK4KlZT9ahpfyaS9ag5ZLmrq+23ddV2dQFGq88b7k13f2Utd77tHU9Lea6VoRCM6WMdzRvXvTQbIbmpe8x2eoP2dWmHDbHqvedbh07Vdn6+m5bU9NhLeUOrcKkOd8VzJ2XLVBjUpk/L7qpafntvspUj+yu9RrzWdkuC6lsp6ceepwdO/MQsf8Oa+gt26TeGnVwsTKW1gEAt0cdCbY9qaNSZOhSNM3BBjCDlirXcAAny91xHXyhsh4pEN1uagtKTSSRe++917B/Enkiy1ziYJ/cD+bK71x2QA2owmQWED3iMKFVq7SIsBgE6Qpri3wwlJg58xPbpRDBylj2kLGfMEeAYnPCM1sSnplUM8l+85vfeJhhhNhAvQWlfOx5WnFBYEewPvIzjOmpp56yhx56yJ7R3O21zzyTzI1XwS4LDEQtk0/r2Qm77Wb7iaU///nP9x5m9EJ8YK3oycsBrTi+g101FWf5jD9N2RbvcY3B5bNnz/Z+BMKPX95E0D3CjtBgeNYnvzTm/6Bf4uItAIX2da97ne0m3aEf4v3Xv/7V7pYdGdD1dBmhGG0+Vw3zR8loRBwhMyBkMH7/9Kc/9XMSlVVXzjzzTFdO3B9JJfiH8z9D1kCUZ1LWUzd+pFN6qgViMMNTjzrFZkycarVa1KNbKyOVRX8q0v2MhhII1g4tyv5XJ3bbKJZ76nEn2q5V061KtJJva+K9AgbN1FcyiBHgSUNvg8ZeSqXj8SWae7Sgbbndu/ARW6U1PYvVMkFUyl+BVKUAqyibY6U2qZ+i1Z8mthZswuIWq3hkufXdu9B67l5gxce0nYd2+KitmWjlklirTAFd0Nz95tjMU461WccfaHX7T7c1EzttYWmVLalpsjWTumzdhC5bWavd5BvEOOsEgGWFEleSEwMtalWokvzqB3Lm7AsWsStPqWu01xx/iu1Z2sWK0vXMKg2vwoomV1mZADdxTgZm6ccYFogVLVevBBROsIGKBWGm4tlnn+2ACYbwHGsIhwCkIyGjDqDRdM8ySoYuXXPNNa4QlAJYsi80wm/eGQ6GMhIKzP18VgMAaICo41MgT/oInRwTBR5a3M5XAmoV8NBzPSz2T30j2CyFCfZ37KHH+syjkjpyHCShWkMQBmWxNzl+QwRgljQPaxSHTvUIk1fJvwAZDPuRRx6xFVpJbLUWAu9T4SdcFH7ijR87iR0f/MIX+rz0MFPxLqAQwEDejzKjj4Iaia1U1/VBjw3vuINdis1CSHif92Dhxx91vCqGLickZbY+btdzSpuSwL8H04FkiKpxP0b6DyCIPTfYZ+ACOsW9853v9DwQJA07dYBtELbhDuOo9swQYQoLmQXqTaIjf/zjH90YzG+eOeWUU3zOK80PjMIIhYPMOVSJ76NYvh8ZF39RMtcCtONbUTAjYeL6sB9TO2BHYtXo977fPqhe4nZloDXq8aU5rAXVHBhqxB/oHJGVz88BKgCDlZBounKPcwAAjTMPm7LH6u4uUBANgO/RykE818vccD1QUo9vWkbTB+OQFDq9lF6A0qhAalyhH2F7El8CVMcS4yIlDV0aSqRvvqDUYAcdcIY9ded8W6AOlIVTJls7TEJsiiZojZgpad/XoyaumF21xl0Sb/2wvjaBT+VOKcCo6a8A9mgv9loNEK9bXOkMZFZrpV3wr5/SbBtNuOjSXGkMfPJH0XcRSXRhLChC5ztC3nMJvZTUxJX/a0zL1enfMu1x9Kt7rrJl5WarmVxjHczrl64mdDTK+zo7YEWD2+/XLlxkvRqaVV7X7H6WZKPs0Rz2pppWa9h1mlXsP8PqtYrQMzNKtqR3vfXVSH/Kd8XmpHWmEHkwCuz3hMLEzv2fetJdFEwPqyoG8my3ev4T0XhQ2YCnMGtJpoEDWhrsM6/5oO1jWoxHs6EKgLsebGlIvqO3pVORWaek+LB15QsmCKHp15fejHKDL/GbI0JeAtCHgwTFmM5sWYzfhOvNb36zT26gzPJ9JuW86EUvGrGpxGmO8XiO+B+oNYCFMgEwFIv75S9/6dc8MyjibNeBAJ4oAhkO8AyAxD+UHuDphZUMrAKUzRgkCIDLtyOReHd7SrUYD+C5vnu977ujeRbK/lrgVwsJszJQh5pz9LJmgRNATTZTS5hG4ERXu5ZLk/PyWinboWbYoKOyAIvpjUoanXvZHp4os7ycBpjXqvlK2rK2I+lLoXDGlaY16QDbIC3QP/mGVds18M9XJGf8H8NVSBcvxMpTwUw44m+NFshAD1VlgTrvEpltlfQdKhXkwcUP+vcIrzMbKadarJJwkocWL15sD4lxLn3ySXXmdHuhJX8TRsxS+x56qO25554+G4iw9+iZPuIM0GxF+GKFK/xEAIgN8izNVN2D6bImKRNQaqoVVoHncJSfYHOkDd/l+zjSLsopxyjHXCesnHs6eahH7g/hOv300z2/kL/IC1dccYXrw/PXCHx666qcYfpwNhGJLMqnqQPVRtFEks4jduAjsQCtqO0i0wwlKPgRoJlNVL7DvcgMHCkUhBEhLBRiavURlZQJMXRwA0mruTWdzVYtu9UtKx6wX//611rpvN111iDAQ0+7zNnNC0qt9uWhiTh1whRjSNgMzQOv1+wVcQ8HW+auMMWyQQtdIFrPXRCrWRuOpCoQAh52b+xTT7LX+IAorFSg6sIYRMQnv+teP3NJIgB4I2l0RJf8VLUW+5Br0VtdYETm/pN2tzNPOs2+f8vVss3V22LmjMt+18wKQ7JldsvG2IZhs1c9zrUCQtkwW/RMs+bPTJw2SbywxXrXrLVJ9drnSO/VtfbYAXOfZ6cdfJIPdmf/+QqtVB/h1LifNCDJof8swUc3gIK1Uo+DmhrBIuaq7PUebPXBe/9m3WK7jaoHuqSP2QoH41k7Fi+1Fg1LWvlQs2ZAVWh/dpGEtk5bVylqP6XRynvPtIkzZtjaiQnza/f49Vq9pssXlNilrgRk15USshDBYVABwsgAFz3bp3xJ/hRicceHghU0uqBXZWeGZhxhVpjYXW9nv/m99rzpc72y7Vqn1czE0ENiyG1kM993ipvxnXhwwDELgpRVHGWHsoJDmLjAVs2Ih1NH3qP8RIeP3xyBP3zvJS95iXe+UaFRpsEWtpJm3dCRkFEH0KgJArBYRxFGESBGDy33cIAcBThANJuAg1UG/iJ8k5oaPwHKANQAec7jGmHDbW+prVTHg4Sxb+wF01yb9KpOrK70sD7x1AI/9mm7Ws/chbLrb1LdBGd8u82YbbvvvrsduvcBNr1RQ2P416MNzTQAnfUtNUrRmtub1SGhRSY0vKiiJvGXYTZFgfRwSEFhbe9psuqSbHX695pXvMauXzLPnhRrq2pMBj0HQJA26L2LvKAKQrWCT/Utlyd7vHqb1ZOvtKNSpJBMnLiLnXXWWd7cZZIipgNnj6oA5dEWg58U+BRFlP4AP3kAcGjVvwceeCCx1+p7hKu7tdN3hlz76EJnx7UyYfA8zLKk+zVzZtucOXN8Qzkq4TY5vtEloCRu+JvkxySvef21uVACUuRfwgaI6qeXCe8Y0xjV1OT1mpe+xl525MsUfA3o1z/mv/s7+uZQJMoGeYt4xnnWzwBP8ihjUGlBwARZ03ekJco2LPTb3/625xH0zjqt2EdHQkYVQMk8KD4iSoR+8pOfOIBxjxqKnfd4BlALFhpMcKgKAIgDCKH4EQ6+TdODczI1mdIzZvpB7lODOhsbaiC24v2/z+YJl1slexmg8KTmXi+v1v7is6pVaLTrY0VSMNvbZfwSAwIMiUti61ynXuiVVmrT2pKPzrfu+WoyX1VyZnrw3L3tgAMOsH3m7qW50VNsJ4pcNXbMonaW1P45YnxVWr28rkogJhteGTaHBEVKmWcKOSqkGFNVrvuZVPp8+kBniyrKeq2T2abCV1ewOYWp+kqzffS0t/smgU80yx6oWUutk7R+pnq5W8TM2jT7hv2CsNFyrKhSR4wY3jMrGQal3nb15tcsabLpHZV21otPtBMaD7JyX4fVFGqc6XqAqpJwhKXQrxHO+JHGp8yK0PzWoVt5kOcZIwlHX7Rsqa1+ark6wbSiqEYSYEJofuwZa1+61OqWrPXWyZKGFNi0++aUuXOta48ptkh5Z21ZCxnraNWp/3pfGcxqxGLJW1WtSaePFM7H+hln/0pVwZx9zU6xVWZcaR3Sap0XZNBlbYFujXQ4sG2KnXnamXbWEa+05u5mmyxTCXleyZl0s6ejpTRc1IWxri6hmDS50qsbPQCe5K0ok5xTdgBTAJwywm/AEwFAAU/KdLZMbdTzYbhIOcUOymwkdEt5Z8GXcQGgsD6Ai4iheGxGjNWKiDKnlRkFoWwiP5zU31mDN33AmaS3NICRe4Qpm8hkPgciPTta4Lm5PFRXrHNGQcUSGZjwEU7iUy87G1JUmw8dyvjlcerA9ijpVBOXeJRU+Nhf+/rHF3oH3nSBECzljENf7rN2dpuwiz+P39EcpyCUmZ44BKkUc0OylZcgwA6YfoDPaf76zf/tLYMedXJQkXVqwZFexVWRS74qJkM6tSj/EL969X6vlwmouKbFzjjjDDv5pSe7KaJR4Am77erssbKedyHd43dy5e//AjQpgMZNwodf8+bNS3qxVbEvWfKM3BINhF/hebdW4WEkiU2fbDO0clj989R9pXz+pBZTJn9p5WJN9ZS5hGFHpIvMAhzJbwh6Jr6qJfx8k3/0HBIVfI90Q16o07RPvnfqsafay454mbcsJlSI/WnYEqSkS4tZlzXIfziEbxPeEK8A0nTNmriC/MQ1GCl24NEQZp8dKnszM5IoG6wVyuputL6GW4ZWIrYxNGR+JDIM7DN7DvvMJhCFxIFAD5FQ2YTzFwf5h4wL4FBzhl2Ggc7f+MY3fNk1tg7ZWVPoAqQG+Zltf83ZjspW+mZ6mrmgXvieVlvZulog0marOlpUMKXTsrqRGJPYqX1xAArZA6UwXRciVKuZWEwYae30sq1SgVvd1qS9g7RBWj2dMGYrOpdZ9/LF9uB1z9iEv06wFx90hB177LG2T3lXdVGt8Lns9VrjMnprq7RzpksENJhMahNNKA9PJA+w7xFSkg20WysmVag3HaDqa15nOzVM1Ayfdjvnxafb0+sW+QDoJ9cktrWiGBorDhWZtQTYsMKR7LKVmtU0oU42rfWKr2b7vHbvo+2fXvJa20PTeJrataiHWHSn9ICttR8QxS4jmB4Y/vRfSMLnzFPmjwqx/KQi5QHsn702/7a/WUlMcc3S5fbUYw8nA+EBR9nFu6ami+Ict7v2R9Le77J9trY+IzjUSkgzJ0r/sqOuW+1p4eniveuKTlHxUwJowpR/r1fz+F0CoAKnUmNoFbZOlYlGX9Vf9cE6zAB1dtCcZLrquS88w9lpSYS3XqvhFyrUz9CslkOtwBOvw7/kK4P6G2UQYEJHQURgn5hSqJiZRnnLLbf4ep0Mo8Iu6maEQX1x61+iPEeZxZQDOeMaOmPjuY985CNb79lWPpnmnK18eoiPETlYKLUTwsIhjAMMZgiAEuFIJFgPdsqoqYf4eX+dBMchAdYY3gHzr33ta25Dmzt3rh133HH24x//2Nas0XQ7yXCGwT0cxB86ehDCTyeRFGUl6dQFnSpTw2xUqpJV0cU+lKN8BaFeFfZmxZOMD9shLaiUOCeDoQvYEtNomWnDVtIXfvtCm//4fH+O3v4hi4JWocU4vOdZnk0UeHap2c8q8VVqnr/p1W/qX1mHMJIvIq1kSPO4ENYIN3ZP9sc555xzrLGiUZVLu8CzQViRdAL6YsaKIztRuk62IgKRzgmAJi/Qi42NFibDLpC2WnkCRkk+Un6lg4L1TieoqUrexZGvSZv1Yl6dau7781Rq0rO/x7v8RnSdeG1JiDflA8dv0nDmzJm+U8NZLz7L05DOQdhoB5WpxP0FOJU1hirklawkrNls4cKF9tvf/tbnpEM83va2tzkZYYFjBPCkLI+0kFcIE2nIUEhaWxAk8Ca7Z9JwhqOghEirveH0dtN+ETky5w033OAZn8+j3OOPP75/NtKm3x7aHb4V4Bw+ER4yJEemz8FEAXkSg+tkUoD9TW96ky9EGyya97P+8SzvkFgkYmSuKBgcuRaZP/zhOvrgm1WqLJDIakmDV2W/OylcLRVaSE3Dlb54x/94L/wTU0Q1JH2aF40UtOpOIgnVeLb3Nr0cB2xokiCMQUxgqjQL67SCD+ErrEy2iz71kGPs5S9/ub2w7gA3IcjqqJGnneJ7MsfoH3O/K+hk0mwYJHp5YZ40gQXzfr2/tzdyXHzY75o9Wlgillu2f/rW5xywGqrrvenV/cBCtzlCxHbXMKD6w/d2fTWoV/o/Lv4P27tDM4008qC2Nx0lMdD/FKeofmiOs0U6aVGBgsj+BFj/E3un8E2XmlTZNDQmS+DdNu9Onxm3UKsuValAdtRK34DJjDqrEsOqmz3F/VtRFstUWroVWceyvkMeKeqDHCtks+XYWUg6+TqUAOTHXq1OTx7ok22U85IYvuebNN1rNaedvFW1LmHmdZo/T/qcpnn+DPnbrWKmd3Lt2jc90eRALE7jT+rIe6LqwrpOnm91gf2heqVgKlGYZDb/ZisTykncY9NHiMeVV17p4Y2yRZlhARcmxzCNFIny4Scj9CfCRhkkLMxMuummmxxfiBNhZStndEtlwDXeIX4R9m0NWqrabX1tcM8HuBBYesaICBFAuYzdG2kh8+KygvLIECT67bff7rYT7pNhuUf4Lr/8cnvlK1/p7IhmAPYwz+B6joTwwqHnETI2/vEeHQ0I/uAf8eY7PMN9Ko7wB6a9NcK38C/i0Z/wA+K1NX4NfMbNGQojhYiwRQa7+eab7YILLrCvX/b1/lfo5WaoE/BIXFz0LkKY3PUXVb+8xT/MUGIs68f/+ePeCUF+QVeEBZ0y1x090SqAZV144YXW2peM4GCSwNZI6I9wuxDm9CfnsE2kgaa59NCupulb3/pWrxgb6VXWNZ1YWWuATpStjWFipAfxrRS4kr6RPnyL66Q916kkyS9cQ7c4ByOVA2y9MHNGG3TxW+/yDvcpH9hY+U3a7Lvvvt48fufr3mkTKyb6eGB0tyWhjwzBvIGgg7Ka+YAnqzkRbvTLd0jTACKe5bvIfI1z/cpXvuJlgTIb5Zh7hBkHqDPMLsCTe+hgpMV1mX4L3b361a/2ji1+U84AfIR4Eh6u8Q7pMVgZVQZKohB4MhILuzK8gUSiGcLSXlsLIoONLApDWVtSGM1XMkmAW4AiYcfWg2GcbRGo4U4++WTP6FEwyEA8F4lJWLlGnLkejkQNAWhpkjP+EtFCZH7sZ6AJwbRWrcLT1tlm35h3pYP6M9O0547i01WRAHFldzJrK5gnU9CROMb1LGAkT6R/i/qQwujB0BGQJLzVTb2eVrtXz/Bm0afe8j6bPXm2aa0gZ6Ls7ogkfC31a4NDEpD+bBp12IBjU0k7V+rfWvm6cMlC+9JXLvZhQjf/33U2WeMoW7s6bP/997diY6199rOftedrzCfP12nf9QrMFWJqLmm8+yl2Gpae1PZYEjPe4ME0HMxQwqTAXHoHEM0kouJ8dMFjnp5LtPISzcLCftN94Yo1s2scWJarBZBUNhoZIGEeGNInxPK85jO6kth7nlLnnj6gB8SEVZDrNLaX/FDXljQ3ezoSAK2RzZOC3qB1TZGDZ+3pzfWTDjpKa542uNaJf+QT0ypLLqmiI72DkKbVnMqcxmTqm20dyeLWPVrFngkHa7U6ViwlSfwJO+lP/mShn0suucSuv/56rwT4TgAtcaccc3zPe95j559/vldwPINJaDSGMPEtylmAIueUVXCGsgnW0IkFSWKEAM9GWeW4JUzAv41J5KSN3Rv2ayicyACW2B0JNAnFqtLRmTPsH814SGbYkqIIH8yGcWQM6ucdMgcJQIIghJ3ZU4SbUQMf+9jH7P777/e4UBCIJ+8Amhz5JoyJwgcYR40YQcuCaVzb3BF/ItEjPpwPWfBD4VNJ8CZqhzJ/m+JMISbzURhWrFhhn/nMZ+xPd/zJ1vWscxbDd8M+u7Ew0Mzn35YEMMA0AJucM2uOz6SBfc1SMxndE1eY0LnnnmsHzz3YmtQZhjh4pqxqc98oCjhxIeiM/NfLECn/nxQq7i/T/HXAE7snaUZaogdmEtE8pcIjT+AH6Ue+4YiLNCbvcJ99kbBB+1hW+Y0ZgJX4a8T2eAZ/0O1SDYlCKOB8i29CKk466ST7xCc+Ye/75/fZiYecaI3FRlmkE/LhL+hPt4aZbUkAF2IPeCJ8m4kGfKtDlRPgGaSBfHvVVVf5zB5WOcKEA4gSTySpMJLmPNewcwKwbKlBXo/nAE/iNhpCXonyAGMnHOwfH2WDawBoCPFHIqxxfVuOo8pAiQgRZH93KD6/yTx0Whx++OH9kd+WCAznsxROgNwzmpTLHP1PfepTdtddd/lnyGiAJ0IGigLtF/SHgkUPPk0YZlNRkJAoCCQUOojrwTx5hsRnyCPSmfZyp6eygSbX12n9R6ZqXr7oz26kXzY9YaCdxaQgFzWGEgnm4cMGdR42Sb/Jn3QAYIwD7D9ixlT4sBPqR/IcRzxS4WtQRw2AM6U10dErDjrGzn7d2b7rpqy+Wm2+wcltNNaetXnKDyRtQ6ZnzxLh9EJnIZkRVYOxU3mjSQWPQvu697zDwwWTZpWuH37pG1o+s1OzqxRfhcfzldKmL9VbMK7ko/qsZlohEU+uED8Vfz7DVHOXXrH7Ko0xXaExpoDnksXPOMis02wnOke+/v1v+fkDq57yHt4HmhZ6Wq7VykiYFQp1SYp1yaZJ3ugqJ50afbIPU1ijAma/d6RaCcNztQo39ydobySAee6snb2ZfvheB9jsWbO1f2aDP8/I1q4+dQJ2asy0bL798UmpZV+62XzEP/Qc+YhoMsi/R8O7KqmE03h3yBQDkK5R5UjfBD3WmG2oLCkPEIIwR9FhxpAkdB5EgVYBHcIveMELPJzEE/AKMxD5fltJgns0iD9RduPbDGVicg76pdyRf7L7JvF8xGUQn9tKw9FgfN7IOxQ+QIhC4QVVgY8dE8lI21vILKF4FMtQHpbZo/a/7LLLPHiEn3s8F0LicJ39WBhvxiBe/CKxWOj1sMMO80fJRABlADWFJRLcdaOMuiXhW/TwckRn6BFx/UWJ2ZInm7jvq6IrblrBwwpUEDoSPl/wV9/q1QB4vkc8KFB33HGHj4f89HkfskmlSYJdVZD6RzAGpibvcW9L4kxV3+pSxdogJgb7gQ1RYbFhHeP7AM9KdXiJdtGO9JWQqqT/bRKFJ13jpP81wHPR4kXqNHyDs0GAgO/Okr2TVsnRRx/tDHZ/O9JOP+10W6JJAOu71tv8lQtdDw88Od/TdlVrk4PM6vZkHGiXthdBouVQqQ3m+L3zZG21rPjttfNuzv4Om7SXs2+m1KIrQaT/YzYRrHxt81qboGmrVVq0GUktEgNnqPq9Tf3BZEBl1yF2W1knm7PCeN31v3db5jW//HU/W4ywQnAQ0hwgZOo1QESakAc//OEPe0sBMxxpjM7I1wh5nXwNi4487zdG8A/hBbxJN8IIMcPkRn7lXjDQKDsciYfnT/3eVtnGXLet3m/4PCBD04ixYhRMHLXWSNs+NwzFxs9QIBkExSMolXMM4Zdeeqm9+93v9kVbqZUdVPRMZDIyB4lFPGCbCLUze9szlOPII4/0Zi/slMQlU4XQrKDJ5t/V9xDlVZdgEt7u0hWNvBM4yQQwscG6NKayQ73QbE3bqyMdLBrkkrw48G90t6ceBnOhtxkpAZKSahkBS6WydYia9LTI3lpUJcE9zURSDaHOCoVbYwqfWLHcJk2fpOmTLbZiyUP2/i9+zM7/5Pk2pW9PAbl0p1ekPk0JdW9V0hP2B7dFno19cl+46KK+fD2qE423LPfqmxrv2bZ4lZX5vthrUUOgmtq1qrv6MyqqYZFyGhda0pqXLWqCVojxIfHZKA56e0PRPHseSkKjgq677Srs3cuX2UnHvlQdWclUxepJEz1dvvujH9vRWnYO2OpRj/okuaIY28SCZkWp53z/6ROsctbh1nfYazw9AA7yCKMPyAd01ABabV1Ji4HAUHDZy4h85s5NC3BlTQNVNqCsNGgqrgsBJFICeEaTdWuIUgU7ihJdRYIV6fS4HkliNDD+kd7WIY/Ie1XasVQM9jdXX+Pmp/tU8VMRFZhtlma+AE6IANfIp4SJuJHXsS1i5nqh9EJ+Jr7EA/AEZGGq5HUEvygroy2EFz2zjQzLEFKe2UoFR7kmvJT7oYhy4OgKzWISIZqxLDUVTYGRDgmJjMI2pjQUTZiyzDIbHlY2pwfyQx/6kDNA7pGRAE+ETAZ4Rryoick0JCI2X2wxNCUYuwhYxncCsAOU3bPN/FFx84VASHzE46I4Ef6hihdq+UNYPDzSR1FsV5ESUAlM0wJBRUH4KSDEnwLy1W981d9J9Du4kGA6oEKgMHstIn9hD+QPwtYiFuFMXYXagYDPpPH2VZcG91kBW5ebZrDzkaa4SJ9vffNbDp7ZYkZ4aPIy5pLdPlldCobIvyrNh28oN9gELVzcWKWN7CrUq61/xK1aizxXVySuUrPBKrXxW4XYKOuV8g/BDsxz5RQ8PX3BRQKgyoLHKuoEniQ/13SMCldnWxblveUat3m6xkliapr3wDyrk47RJ3kVkMGRjzknfQFPhHJL2n/yk5/0ZeKYBoygD8KJzsg3gCd+BNhSDrY2f7uHg/xD3gjQpvxRRgjTcccd52GkrMFEWdMgSAzhJmyDLT9JKRxkgDf2WgBK3CNwKDKEsWEoNBRM5JAAHj8ZoT8oNEBiU58IQON+1Mb8JmG494UvfMGbAcytpXYOIT4IhQ/hO+gi4k5C/eEPf7D3ve99nmBkzniOxPTaUCWhT86BRH+1T6k7f1B/6mWsaxQ7PFBWsd3WVNmUloJNZatIzYXvrZSO1XvsTnuOG3uPdySuRvuP48rdGk4jR7nDdWkhzC7NkmlnnVG5FjG49WJ6JdnoGNze0KqeYU2vL7RJbxrz6XRHdLF1Qq+7h6vX2qqdK2xB7Xq7relR+8B/ftqWFFq0mvoy7Zsuu2yx21o6ZDN2Y5v8kG0Tl5R+/JTf7tTjK15ao+ecdcEucRPrbLl4d53iWa947qRRBjO1L7qUpd0pAVk9o3nuaBJH2wFHquDiXAOJ5L/AgZk+2El5F/1L7wwdqlIhe/VLX2orNBurpXmNJm/12YzJjfazH//IXnnCS/WYEEyvKgn1R+BJ47pPvd9dAkz1/E/oqXU3sV3H1hpr0NSiBu3bXiswrNGumbBqGXk030p2UJ1pg2Ktbd+jOV6t9ox+Pa0rizUfa53O10tvq3Vco+MydaitkF14dWWvuxUNfVrhSQRdQV+nMCpZNJspYdLM1i0pPLgKpV+F1hHAmKLbsqkz9lTNa60bquS3t5x3rv36+t/pReUnAX3fOvVQawwFeTjyZeTjbLlkjzKawJ/73Oc872NKQngWEKV8RMVO2cGveD+u+wsj9CeAHO8DSMEfKsYgN4SDzrFs2Q4wHUywpM7hlQAgrznlNQEO5RFQZnJQC6DcOXPmeE83ISCi8dzwhmj4fCNugOIee+zhdk7sm1/96lft6quv9jiRWSLjEX9AlERF+A2YYlNlhlPoKfx0YJeuNicV6pzo9PndZW8qVVa2eHgcDBzAB5GcCtfQuWsSatagvPbua+3Nh53my8nBp2prND6R+pOe7rQTaXNxHMl7FBrSh7RB75E2jBekc5BrFLy165t8cPicPfb2NKvQ4iy0+qUqx17A1EXpxUrzBQ1T8psMfGfJP9JReb1XlQ29/th125gXr/Rrkn10xfpVzuqaWtZ7we5IK9+d6qY644bBwbwrNbSI1GEpPY71qsRa5E+VQLlGcSFnNbdq0Jt029CgKkNrHTjKs2aB8h0Ayv71or3OaJnthTBriKZ2d7NaUB0yK+hahxZgQT9BBCiL5Feukc8ZaUIvfdg3ya8hAbzbu/xGmYtwcQz2y5RSzIcwUnYKQCjLWRLkF7fxzyBK3Ka/kI1AKJ+nuY4wHW7BggX+mz/M/CGC2ff6b47BHyTADI1HDCH8DLInXqw7CDulINLkiYyYrd0ooMcff3w/mFKJEPeBifh3MPpsXlW/CX3HJe/YuL91eRIUmKfG9LnxUVdipfnofY8dF9PO36SAUwDEphCWy0A6k/JlwmgXZtIgxTT9ejqS57zE+XW/be3l5PoTWrHof2+81g7ZY1/bacJO4lHYAdXLzOIZsZaoXkm+mjAnfAg8Snwb2b8U/GBFmB5Y/4ClAUmnipqS1atVcYU6U/Y96BD1pSUTHkTStQpWEtAObYfRoxXmSbM+jLwCKu/40t+l9UnHotoDYnqwTO2gqX8PrVjg+f7mu2/1vLG2NZlS29tvnCRJZHNXrxbh6NN6AYRzet0kmzt3rj1/j/19a479pu3i5oHpTDiQv7VK4GrZpIFZZQDr02pPyVbHSg+lGby3TqtHyXevOJgJxbz0I4440jsAuR5COlEZIORLpsjCOBksz1CkLNjA5qLyIbzoc3uDJ+GGhEW4soSMSpHOx2uvvdbjxuZ+S5Ys6TfFDSXswwqgAZoDIxIAGuPIwoZGryYC2ESm9gtj9E+AJ7UYSo9mwJw5czyjnXPOOW6gpplzzz33+BhCMizxI2EpDBdffLEnYkQxq6u4trljJDbjEa++43YvaLAdZz2bezF7D/AcIFlGMeDWNp1i42WM7LlvP1dFUmYMTT2t7VMHwka+uU0eD8PDsE/yWVRqpNP555/vYxgpZGuaV9unP/1pO+Ylxzgo9nd+CCd7xC7REWleJUaKiGOmxx5nkk21MgfoH1uAPPTIQ3bLvLu9xbVw/XK3ExfqkxZKh4YiAVJFR+VnCQaeEb6ymCf5AjvefffdZ0/c9YDnt5laOIThVMcf8AKfez+pfpZPrS2IgWJT9fKn910U1m7lO8JcUnjxl3LIeE3KIQPen3h8QX/ZY8zzrrvt5J1C9FwDmuS1KLtUGBADCA/lF0GP5OsALb+4Hf8QDsIbeTkLomANzJt4kEdvueUWn6kUwc2+F9e25jisABoBJyEDEFFyAA09YbAw7pM49I6RSQcysK0J+PZ4hgxNQYs4AIzELQoWYSIj4lheDSGu6IBnKMDRBOJe1Opx7KdiA/EtPYepVVZiU+u0vdS87Lk5HTXQpoKijFHU+EAkGGg/8wyi0U/9dEHNaZEkl5rupLcXAHBJTukEd5EZzqWG/cslQZy0+aRLe1pmm6ewS2K3/X7+7bbf4hfajNnHaL9x2Su1XQgst5AGKAYF6JYLPBWJYPrJCPyJ/ElBoyPhbW97mzM7eo1Jp7Pf815745verrG2Gg8gNlgBQwcjFW32TeoTJYfhybIt8OyxlRrGpC3llBrqaa7tlS2zw25eeL1dd+P1PpytvdTjeaVT+733ym7cIzs1BZWmvYIgkOx0kNOPpIKpkeL5nTJ/DXT177WwKpVkxdp19ti6NXbrb+6xnmv+w16070E+XvWQWQcomFohv3KywqL9m/Q+C1bXsq2JOuWK7QIVmQ8K2KL1v6xOq0suusQq0r2RNGbAWjpbbEqldkmVHsinAYrojDJKeQ6bpwdGf7KVP6w0gDXub49jAD74Qvii0qSzmntcJy5gEWWU+EZLMPLHtoR7WAGUgCBRw/ObACMomEGtBJKBuKz9iS2RCHAtW1v4C2PwD+AZEnEl/MQxzuM+x4hT3CPhslPbAF8SNTJr9t2N/dajbkakJ34nrTtJxeOJrjB47evGxo29mV6TnvXB5ERGvV4MexLK7HAIYUky7ASf8nfM6/axmXUzVWaxxtGk3L6CvjGxYF8877zzfD1a7HqwLcZjYudb19KkrYC1qZ1AY4L2E0K8Sa0hVIw0Ylk9zZD364AUsnD9Qgfkz/7+e14p9spcAVMrCECpdDsEgKSVrwqF/nWfikW+JcpXualQ2LpZ5YT7JIsQtqSZFeQP8hiVdUN1recpgIw8hemBMvWig4+wEzVbqWr2gb5vfY0WwY6ZYdhg6dDv0LA0WR6smlX/ZaOprhNj1Wewv5Y03reuMtlDiHDjN5U63+YcF2Wa66Qz+Y0jz3AcKySI8ATmcIzfzBiEfTPhgXLIGOYon1LDoGVYATRCEYCB0gMcmOpI4GFvKJwagcgRGYSIj3UJJkn4cQhxICGy9yLO3OM6oMJvMh+FFeEdnutnn1xMVZB6rdNAtqQSiuuaEGqNNXW2y7SdfbYIc6A1HV62ueT5sH3GsR+5YFT6RllrbKLvierO5djYkfi/hgIsWV+d+pMyy750wKii4lKZfscBgCvyFlnFqlCa1dIkxnnb4vl200N32ssPf7k6PxJdMaDHJY3W/2fvPAD0rKq8f+ad3mcy6SEwCU2KsIq7SpMAroo0Ff2ExU9x0QVd6xbFXV37h8oWxLIq6qLCCqggK7qAoiBIs9EJBEglZTKT6f19Z77/7zzPefNmyGQyk0kBcpJnnvfpt5z7v+eee+45bvqoE+lrd7oEmnzcXLeHSRoTC3TmNP5vf/vbVqOhbrU2suvgicSt8imSbpS8KgKVPDZlJXcm5bVUNgL3P36//fye2xzIyvYROEn8z0kEHFGF5CRpFlULHDGMVUurrEmsT6j7pLJVw4jzGtKPaqa/WKZRPuPPrL+ALUeFA2Z6R5HMo9YqIim0Tj5hMzpfvQjdY7ld0/WAXXHlPfbWF53kiz9eOe8YlbjUDdlN7iZwtob+JQJO7Eu9/mWIP9AtNVQ1tgH6vvJFBxcjRb5RCIgx0hp7nmN4G4p27Ae76Q+8HG0vwBEsCikTzGHCF2I+A0zCnpXnaJ9Toak9Nc6XKGiosCI45jw6QTJHhgARDOgBF4jMBiD5iT30D2mkoNlT6FHw5Ck28ki+kkaCILHZr2UM30NqRZcKo3IcZbGtrANDqdDoaWAVF2nBiJ53TJYiD6Q10jvZdxTe73UoaQVQgliZ1TLa4tIQUvPuJvJ41VVX5c1Y0E8jzX31q1+15uZmmTn5CFdliepFqRUA+uQXda0TrAgCmACb5e3L7eobrrbLL7/cJUH049FRwiP8pn4hyoX65TirbUQbZQ9vsOnA3QjmuF+/iyRUsBJMFxnOJWvpuabjEp0v1UZeGFrzHXiPfGBv/JWvfMW+/sOv29qhte4jlQnHnp4kHd4fpyBaUaP3YODPN0ij/vEeKPjCD/QnwIXzEHvywh7g3BPAk3QVtiHKJdLLb8oLPWi0NzAJr2pQ4JYfTPLPtHJ1VAZpIMFxDKAG8lMZDGNxkBAZhsGikiaZ/l16e2EaHbiU7iAHj/SAfBfeG/fEPhgVaRzi2MsK/nQepVoKqwaJRZsmC4hno+aliZlSe9XLjrNa2XtW9hbbjBF5c5JIx4aqy00vUTa6wjF5voQ17dKXVmnCvlbRJG1Vh226/U+28pb7rO2+J2zfZ7J2eHeVHTjcYPM7NO7rkf5sWHvVHzQk85ihcknSSsRgmSBR+lgHGFBdyypHMzKZqRRQ1GSsRYHj7nn6Eclo/ZqNL5Jtoxrxs7Kl9LiYPPaCf27Sf5DmC6nwGH5kfTdG4KhiovF/6EMfch+RPFcuYQq9cJGMKosxu0LxqW1DrkOesEZtnWa+V2tu/ZqVv7KPfu/f7Tv3/sza5ipy6IEN9uTIBuk4VT4C3az4YhQw0oYUOaoVU2xFMoMozmihpozrM1rBNIIRpwwzi2VXWpypctvRWimWFT7et1I5KC3Fw5IkU9806ZSV9O+6aXn1z2pSqr9cplGygmB7ZtaIrZORyPfuv8XO+/eL7Gv3/sge15RWj+pDMQdMQTulq9UnxUvDGm2gl87ofaMC4tQAw4tvLG9HOw4eZx8jycLy3t2/o12RDoAy0otulvaIfwokT4byEDbp0Lbaqt+wjT+FrXQbt23fpUB87oZh2TiH/hNPM0hJoD0xS5BCo+fivgDT7fvSC/OuKF+kBejgRQd7eYZVw0Sl4rOyatSUO/XgXnKQFlNJhiEN3sWpL2cq3RtMqB8+rEQ0i3oclhTi9YYUI4ZVq2JM5/XON5i1Jepqb65XFqEJCE+Uxh25TqPhm6QfouMOvlq2bJn97d/+rU90cA/n8aaFYxvyyHFGKos+hQkp1hC3SJ0EkjRlVFOqaKBDCqKsfHznyu+47S/LARkBIAX2SZKtkC51dxN80KJ2FnrLH/7wh/bVb3/Vlq1ZJo6RRYREbBp8iXSwpdJ7dipv+AKt0KgBB9LPd0LfjXkWenDaEuaHO0qJzL6jb0mfj54KZizsDTAbAPlhVBouw3cquZDyDbXw5Avtt0uf42e6VL3oiJbz4UxiWJJbs821IxYeZO2r/uD6u24fo+n59D0JzPI+JFB2GnJpYgK9F+uevcyRLnulp+1SzHmtEmptX2lFHb3W3NxszZV1mvgYsvXyt8na72y5nsMYvlzSpuoYfaeLupLWipBkCA+ZG5QXIjVTbT3yUnT7g/fYBa89Ww23xurkiZ2GXBbKT/GDOHkLWTtJ6NT+wlsxUwyIAigBoLjgY8hOnrmGPuzLX/5yPl4PvDusiZZK6RuzkjoZpg/UA/ul9qRWCj3e+rhdfNVXfcjcOy9x0CtXIlZUqzwouwMDrRoaFMpxBXnQLdtDfWm9+eih4IGwelDxOcUxAjIUUlDrSJvVHbqfHKLIM37reps3a54te/I3tmzdU/aOd7zDXrvgaM3Rd9tirWTDEfVsCTH+SvFUbe2uCfiWpHj3/AVzCL2CkIDQtnbtWu9wCyeHJ5uyKPvJPjep+0koPTViPwyNUWsQGYF5d0SMjne9EPahV6PMmA3GoTMzvUhfExHP0PMiQfIbvV3l4sVWopUvSJZQn97Vq/qid8bYmGEwdeN6bUBTxDGTGB5zSO8BBPF5ifSJJMq7+Qb1zfNEX0V/CCjtTAoegqcAT4i04NDlF7/4hZcTjQhHEt/4xje8E2c4h0QKlcpBh4+Y5LAEoHdTpf5Wu+m3N7m7Nsyd4GNAmPfmid+SuHc3FTc0WtfTy114aZQpHSv+GAnQ5oj3dfXPr5ZjPFkYjMgIX45QcKgMEcNeN+3u5O+S7zMbz1wEvAKfoKcPvplKAqZVAqWiYKyQJmFGfjN88kanRHPuoINkw6h7476pJPyF8UyIJCFByjxGRtawuhbnyQJxwF6+/xF2UNMC6+noseJZSXWGwJOGPnKJivLKaeUMoNCFIlVDuMr5Whw4q8p6q6rliUhgt3SdokxqfbPqqO+pZzRV2Wq1Mu9ZdMA86Q3lhUnhNoSb1q1Zeuoxp3bHRAT6PQ8omZNdbKV8heobo9kheYySXlaS7s333G6z3rRQco/WSgtENUmfENnTxoqZzSfSn1PYwXtMGMBX8BtgRyO59NJLHUg4hyewa665Ju8mD4AJCWRQa/dHlDcFAbbVA4r5rs7gy9d/03629E7vECoWN1mLLEkGs5oN1zUciuAZybTunA5soCiZkX520iPDz75SeCY3tjVGf5Pu85Knyh7Ke9NKrw+0d1npzDlyBdhr7Zt6FKupwePbP9K2WudL7fsP3Gh3dD5snz3nIvHPsC3UOngpYdz/wIDKSS5FntcEz2I6SaeOQACfsLQcb2lTpeDcqT6/1edgVBg3ABKTEXp+hlgwLIbmAajsyRjX9tIEJcBaawEfxtF48SEODpLSkiVLXNqY4GmPexPgwr2UO4w0e/Zsmy3GatAWekxVkEuUrQqyRwcI8FB3bKGeYRgf9exLCMWQSJ6cU0/q9Q+zYq/IUBgJ9FlSqJ6ZLuK7pI88MUyH5/CSjuRIOpA8CCpGOBbywP1I70E9A0kMq0HBSpVsLi+65CJvYNzLs+tXrPDn6lRefAedMpE3uU7spN1OobJAmlS50pnQidCxYPuKGeHjjz9uH7/447a2Z62PCogAwHxZBROCz3OC97E/RwdKnTGaw38D7WCqNK2lRkXBlIAiDQkmgwDQAFWGTDTYAFeukwGu76VxSiDqF92hfpemoqUmYN0Y+sSXHWu/venX1jKSDEVDokMShCLaJFP4OEPqR3mmetK0nq90qdFQu6iozubWz7FOgeXoU4JlGl3vsHW2apKp+xnrW68lmS9p9oY4MlvgobRs0hr3EYH6KOY+SJGkU/F8pOX0RssKo6zsIruH5XVoeIPtW6rZUG5KPcf7/cmT+rvjFDxGZ8wQnnAcOEJGLwpvwpMf/OAHE3WEPleo9mC4O6DZagB+lXxJXfqlS7XvtJUtK6344CYBsCammmcIcAWy0ukjgdbIkH4UvbIcchbJWr0PO6ht0pY8no4rEosJPRd2u6EDjePwcRDHIeemC8940r/aUFzr4KC+yjJK37A8Y5m81A+qGW7IbrCKWRXWNaqRSu96+8C/fsw+ctp77OiXHe2WHUzxJa3VX/W8/cOCCSawGQGDOwzhC7FoshnfskYn+/SY+0lQSJKhqwNQCRVMbwjqw8yhn+J+rpMBGHwvTVAC1JYcTQiXnJCUqvVvXvU8j9UzwdMuFYprHDx5CatfAB2YCXBhQ71yqPw8UldIZ0hehFvuEGis1XCHycCoW1VcvvemDnkX9cizSGehpuEcUuizpM8JEzy5G+Ax0oDuFT4kgir8FtLoOeec49InbyVtwatcJ5+y5rVVbavsS5d9yY2sOc+Qr095J096USKh650QUi38C+XLxI92z58OSZioI7AjJQaTKkMAqnQjkeo37Q3pnHQjhV177bX2m7t/I/tXTSLuniTv0q8ijSPUUafwCnyCcAfBD1OhaZVAqSASBePBuDAXv/HiDrNyjQZaiPj85rnCc1PJyPPimehDkOREWkuS/IhuTnvsC1n3THnNldaKYGLNg9V2yVkftusve7ODYIX8aAKG3XJRRiCz2nqFvhUYEr8dSl6vySTFmYf65FMTWlu0yeui7kDNmO+/2PqXNVmPpDgZdcoZqWznnla4442t1tBT5E4t1s1NZrTb6qQbFciW9Cb2rL1leq9W33T1tspD0Kg1jTTZqsf+YBVHna5vD1u3VtVACK5krWIgbeATcCN8AkBC5B/QCsDmHA6KiV9ULwnj1ptvsdt/catLmfXVNVYjt3of+6d/9syz+od5dibBmNoqVtq7tS794exq+49v/Yc9uPpJa5ynvA/1Weu6NptbPsNKupQ3/KyKyjE+UFpKJM6zJxeett4kbZjbcuyz+doPptPlI7KhJd1YKdA2Bvi6rhO9k3yN6kGOh7QElGNlxymXVT2qwZcBhgUUvgpGpc6BiqpkNK97cVZQpBVVo2koEY9dojQThz4rFVC2Pqv2WWcPrFhmj994mdUvrrF95uxjx2YX+3ejjAs+9bz46Z2gcoIjHoCTjoQJTtrKVAW4LWtkB4spQJBeDoJJSCDoTuKpmMJY0VyPhMM48fwOJuMF9TjlF+VNDCbCiMAQlOXI0LDVS2XCbCtAmknrZbwCoo6ok5zMWqgP1C3sh3ObLCvphkBkfRrq9i3v8W/k6hoTczQtb8xqJrtUntm9DgE5fT/xXyr3FrqG5JrVYuySdPgO7KSCtN87XpoKz5M+8ob0gCRBh0x62ThHuGIPWat7cMXGUI1heldPt8e18vuRNGQHiQ5Zv5SGJBWYOF36nUtd31umZY/xTvLfsanThnTdpX8SlC7xdH2IrufH4MqzmJyZNStR+ooqkrrJCTjhfXy2kIbiWrlaVl2UsyZe6RlSJ0i+SmSImrQBTfXpOKdJOd5XLEcgZQJ5ZbKwOCb9m2F9TvVXo8kj7FubVT7oRb/4xS/a+eefb8cdLB3485gCa+Br6oG6ZWOEvGjRorTsJ1cAOxVASVy4z4dhYEoiV3LeG7iOyRS/nYHG9LCTy8oL624aftL09VdlSxmerbXQK2beZ493r3PJv6KxxoZ6hiXRqOGVa1iXTuMWsdZaVJq2R2w4oX41VECWeqJhVzZVW2PTPK2mKbUNK7RscI1AhIYs5xgtTy5Xg2734dB+s+tcGuyulmUFMxJEh1TD76sSYkj6WtsxICfFrbZpWA46yurDt33I1/5tMUWy38bfGMVEh8Gt0Tm7PjN9xT/90z+5iRadd0dXp3v9Ouetb/U3d8k4vgwfmrLZzKbRKJc+8ZhdcskltuLphyW1aYmiPLev1Kipu1udhob2IzkVlEZS1TWpMxnpoOHhYZU5+9Axl6TKy5zOAc5+j+crSViRJH1WJmVki0sDZrgN4Ncr9lKVLCFWlfZ6xzBQJ89aKr/WUsmo6vhwfwegurJS7w1vVkn961iXoGL8roqS2lTZxI1+VucHBq1cpk5962XzKzDtb5deu1xDflkzPfbQo1qZ8cYpgUj6+j1+F5I1YBmCB/zDks7m5uYppX9aAZQUBDjyG4kBJS1EA0dKwA4r7qGh7qXJlQDlGA0nnuQMZY1rNaTQj3zpc67T26TVM/S2/ZtaLaNVMyOp3V88N3ZPVM5iNaxSSVDUTVaTIjT0GXqW/ZquR/07QwwT0bFp1ctTAoj6Mpko6Z7OXLvXrVp9KokJQAXIMC51j96tfma9fzbRh6Y50XV9UOfH5mzLFMLsSJ6UAcMvfgeYkl48Dz2pSTA8/gchhV588cUwpqetToC16pnVHrL6sWVPuG/MR5Y+lvCnFggAWDgMYZWVyQMTDQ0fK9WNjZbtlw4USifxRki3H6e7MX0A6dSL8wIq6+lHdTyiF6IjRq2Cegvc5d7RmWqOypPNkcpBtrkjc6o8j4Pq2NRT6CM71l6QQAelByxRWVBupVqeiu53dm2lx39PcvH8/4sQF/pQ6hsP9QGuk839tAMojByiMkyBnRXHAZqYMG2NAIC9tP0lAAAFlKrpOfQcZg2275wj7A9Hvspj2Q/OqreRDoFZ4xyFJNZeQ0ZolBVEonINHZO97+RNSUCndw1pxRFB6jcVYzSuiZIGmS7NrLYDKl9sT8gMxlZqdrdSQKZ18qNPazlgb4XNPHiGDcgbEYy4CqlLLtM8MJHAuKM2kZBXdLcKQBekUc71CX2WW5NZZsAhlMBJesb+pdEDnDA9/FLI9D4RJCmOpZkY+XOtQmD05je/2WOs/+Cqq+x/5VAXpzar1q5JAp9J8mYoW16VrIrrqlT5UEaybTXCYmgI3g+w9/b58DtvwEoyxdumFWG+Tw1bc32pKBhAGniXIKTwT/eTYc3c+6YiGkX614jA24dWcY1Kqjd1eP3zBOAVc11CNbxBoTCWnhZKBU1Jnkl9lqTT87mM6pjrunULUggQCJ3tkFZbzZ+xj6/AqsrV2GjXsH32U5+3maUzJdmOfZD0PX9Ua5EXTJngIfiJc6xM8s5ui0LbvoNpRy3vSdNCJ3HoFzgHsDaqFyfeS1BhA4hze/cTl0AAZyLFJUzuT6X8TxgGVCJPr7rP13MXaYgYbXqbb0f6YajIEF/MhfNmGA3pkfqbI2muedEi6xmtct1Zrjtp0EiWhEkom70gsbCQtOr6OtW/Hsw3QmxJs4tSkEkTgvs2BCwHom0mThiijhgAZR+8wzHDUSSpX2jiCJUR0gWSJ8QICBtIJORqTWxyDfDluRFN3mARUibjfwAYoPKTbdIAAEAASURBVJSorQmxxP9lpTwW8Z6y5n0dyMp0P7zsbuq0H9CQnHT0pwCq2MpeTjhWofxHZDHBXroCP98nQ3fKclhLY5kU0sOellLpY8nT4KhCfXA+bT+sU3dSHXh5Atg7QEjwfJM0s5G2Sy+5VFORdZs7YzqGMRTAM+b0c+4w8hE+YOEF6nNH1sRPK4D6MEoVw56EwZTooYKwwWLY5RWpkzDNXioogWfzbsHFzdJA3AaQOlPA/irv6l6tJqmUJFFUaf/w5nfZ8m9tlCVjp/1p9SrvuNpyicOIUfxTivrToEeDaUwjD/yjNubWparHvkqANKvokdqPagZeAczq5XlonkClW8Oe3BPSiaqxl/bLcYjW0tc+9Iw1zZtns/YjzlWZdHhKqa4PqJqLpH9d29Euz0yJtKz5aF3Tf6QvSb66w4/5+nhEXqEAT/grfiNJfvFfL3GdZ6VinnOtVPwFsKNnRAXBcBmqkS4THuUZwlW/5KiXugf5pfsls/zFTZUOLr1lKgzxa1uuxzr0riHZs5JIypotJweb7HFsxV7BUUW6prxjVUnIJMi9YGlfm9k34X3FlsKCYKBHgeaUhuwmSZ29qhvUBlUqh3o5NdaWkTQ8irjpy7z0Ea8bvQhjXhHqACg/Gy/drVMqSRbJ4xMU368c0OKLKtlgr+62hVX1duMl35GvrH6rlS+ERoVKJg8vBAJ3MGW6//77vQNjoQgdG9g0WdopABqMDhPDpCExzJ07N5++ANk44UDwAqnAyPNk99FBFTJ64e9izZJD+ICsraq1j77/o/bJSz5pc+vm+pAtP3Ye78NISwJOsEwIwh+QwZmM75Rr7SZ6u2pJoDgj7uuvtmc0whhQPVdJAux4ernX9bDq2ZmR+kxBj+cxVg9P6ZGE4JU4nmgfgMl9fANpkjRdccUVrraYJwDvUugLALNI32YVEgs3cGhTpnN44zn4kBfZSSedZMefuMQl135FpgTQ/uq7n/KVKT2plEt5c35Ykzikf1sdPvlIs+rFF/ngOTYIwYF3FusYybehpt4yiizAcJ7zdWorNOSOqiTQ4Cat1eT72HpllFdCgOwIRR3MkJMY3PoBnqxma5R3+rH1siPf2dOfRfJGmPvjH//o/IOvDkZaux1Ag8GCyenx0TMEA/3Zn/2ZMwrMxj2cD1DYlQDK8M0bmL4fPQ/pcOZW7xTphRGigXMu9Cac514aBPmDqBTyz7nQ5/Is5+Mev3EH/kT5jvsKdGIq10b5lsRk6EDZW/7buz9u3/vVj+36+6+38v2S6Ipdtcks8KZyTQSJcXLlSJiyh0ynk3M+W69GnwY9yxJzXtdbamV2A6AUlcl9m2JD6Z+VqYEvl2SpcLu1Vm/t96+wMs1aL9ZkIWq7nGblS5WOoYEha9vYljyjDLgMxSekI+2R5hXQr9S2LaIOKEvKHqI8KF9ms68QgFZJshzKariroTZ2nj0yn0JtxKQBscHf8pa3+HA/o+iUzqN6H1Sk0B3EQPrSBz5sl33lMvuFPOljx9yvgJbDwwr9q3hHA6OaqnZnoUqDysWfH0rNj2S/SbqyWB+Ikr8UmecyLyEOhHIyPZ9J9/6Q/nRo0koivyRa2dDq1zDfky66VGWvBfj5te/xmpA8o56Y9KKe5HvP+aBeZmUuiXfmXI2RXdPlS1nf/soz7UUli21flbhyYFX4JVWcpFRV6smhs0MtQpnzjlj8wsVoE/zmOsds0e45H3UU57ge7Yvru5voSIkPT5rIJ+42kUonS9MqgcbHKSwKFqDiN8SehEaBxrm4zv27gujR0ZnxXWz/mFTAt+OKFSscVANQsVfF4BZJC70t66ppJDAWeYChIo8AJr/ZAjzJC4078sXvwms7Ja8Ai9LmE0xKC6A0v2a+HX/88V72V9x0jYONAi8na+fLBFhKu481VTe5DWp4Dk7JZAT4KJTSpnv0vjDMJi+UU2NVjS3YZx8ZzJdatxiwtycJutetcmVms+IlizzP/X39/l2eocHCtO4WL5XVVHLbVRzUHXVA+dNRsadMiQuEPSOExIlEx6qj1732FM/7jFTvntP3iz2/CbClI2yfvec9LFC46L0XWeanl3sEx6KGxBEvnUyl9Kijmlwb0HeGe+ShSuVVJUt38pITkCZ8vX352K7MTuUmfLuqMylV2obT0R/63xkKFoct7psVRA13bofUH+JvH8hJf0xcJ9Ut6oOi0mrXmaPyoK1SzwgNAZ60Z4g6iM6cOkFNh50vG8Ni2hUjAb5NO2PSBveBdEqFRJo4t0vaRsGHqSvac7RN6pBOYio0rQBKYZGoAEUmFyCO2UKxTwY4JuG7knz4KQZ7q2wC77zzTp/gghHYaNxBIcrHORgIhiCQG55bMMUilgpx4d2eTspoKgQiTzzHeRgt8hhlEt/Y2j4a9Nhrz2qW493IbIzwThDjkl9TKkGe3HiEHXX0vjavuM6Boa+tS53CHFslcyQ6hNEqsUFnr3R0iZ1jTsbu1KMCUMgAX7CiSRFlRHF+JOFo9l3uiFWpcvlWryF0U60WuqjsauSN9JE+ra4ROG3olGPinDXI0B6FfX9GnqMk4Y24kjAFUEBTUk/YoI7N83jHUZ7soxFfIemThswKoFly0fcx2YG+8Y1vtPqazf6F+tRYq6IBp+U3yoqdFLx518E20zp6O+wDp7/NDq2dZ/92y5WJhNsk64I+raCSnrdcq5qKVNc4D+lRh1Gmei6vSEIKxyR2SIj540Tezs+O56tPZldbULpCS4WdnE53pUzqiVIBN/+eYbWjhJJ9SfUcN48q6slKjVpvcxSVs31tuzXqfccc8jK74JVvsrqyOpMTQ3+smteSWEYe6iQpQ8ATQIMok+j0AU8ckaBTJiwynRZCByo6JmOCGNnRucU7eJ738G4EkqOPPtr9sDJqCPDkOs+w35kUgAn+8O04pm2Sj6nQtAJo0gsnYj2JCakgElbYA0XiYx/37Mw9lUaP+rOf/Szf49AQqTzAjo2eKIATZqDiOYdjCmbrCAsRhGR6yimn2HnnnefBvGAWyoBvAKAQ7+cc797plDIgoAAzanDun+S4obLBXnXCq9yk55u/vtbjYg9oWR8NpqNUw3Dp2PrkiNfrULo36iUr3Z+TwncoA8nsPIp2JFc1KBoO+aRjJO/lHWW2lklDJBpta2Uewvua9m32Mo1GlUifm0sjQGzzma3/4lshKQSQ0qh/9KMf+eiho0eroZROwtXW1uCWT4KV0lmu5/LgGa+mU49/SiuNKCuL9LpqeS2SUuHMJWdar5Y48u5eORdBGKieXS8pW85EJLmVqlNF7wuvBL/kh9LxjV28zyqNReLxcg3l4WlAj479mJccY29749usSSoWRgDoOxmdqHK8Y6Rz5HeUaYAmx7fffruvbmPdPJ1tEPwRQgF1zEb90l7gPeqB67wj6h1JlXDC8BxEXYZ0u7PBk+8VYg1YRPrYSHsIe9w3GZpWAI0PkyAIAOV3FDQABnFMZtjiepzzG3bSH4CNb5Ku++67z771rW85mDL04FpUNJ/nPpghiIqmwhnaBCPRcK688kqP90R4iL//+793Z9HRUfDOyVAqcKTyymSeTO9l5YnKFjEUUJJBjpsbliJR6qwMdmzBrFqb94b32b3z/8KuuO0Ga31atpkaqtIDZ+Zp5lf1RVx5GuBQf1KPA5KUkMr7ilQeZEmG5gzvcczbq3n1Ya04KqkTKw0vku2irq2TtyI9b8+020BON5Y32QyVW0nW/TQJZ7AL1ntot5KAtKjO06cz2yTSFo2c+oFwlkx9MkLAVOmv//qvHTyHpLtkaWe5TJQAUic+ysaz2pjMSd6XfL9iFKnE5GOg0sN3vHnf19kx7znSvnDll61loMWWr1prDRW1Nqiwx1nZfHbIA39Gyy9HJIHqRWQm/VC6S5Kog7Rmn3Wcnk9vLx5IjnPp2vmYxpe7USfiXUFh95kaUbjVGednFSvESHu/zRmSPlZgtn9RoxvIn/PyM8RT+qfZ/PKSWve6hG7a/dip43NVjUyuKqsrE/tQ8TprxXE6zQbB/84bqgPKvrCtRJ2EwAHvFN5DCB9UB+ihzz33XFcn8D42+I6OMQQO/9hO/BNppR3zG+Bm26MANPIfEiiFCUBGorkeDSDu3RV7esUANcxXiGD4zW9+020Fr776au9piYNDYUbhkm5+A5705oBn9LDhyZxnrpKhNosGeE9zc7Nnh+dgKojv7hIpVGWNv9CkfNVBqfFFs0b6KNMEUGNZo732+Nfa3FccYjfccIPddP+drud9pm9tIklqqE4eKzTBQ2PoGxlOJD8FMZO4pdyooassSwlspoaa1QQHeZ1dN8Ok8LJ2RYHsl05UiXCdZL/K5XB5eKIsvSHrDTHM5R4IaXAiosOKhkZjZmadDgzVCvXDSqF3vetd/hrSz8QQRDx2Hx3o3FjiPYSDprxSnNKU1pBVaQKmS7PUCyoW2EXvvMiuv+N6a7vjf13a5FuUi8lRyggApHJSRauSEx3h2G/sqmPShd6xZ+UmVzN94ry/swWVC+QEusVmN87W2oBkVER6ipnhoxKi2H0Cy3zlGrbbqLliFSESY0RapZ6T5zcP7+FtzhcKHPtIN/7617/esEkmAkVItTwbAga8E2o9fhfe4x/ZCX+oN3iDcgqi7iN/cW5796r56SUKEqaEACIaDcSeRBcCZ+G98YzfvJP+0ACRpGh46OYoTDY8RH3605/2DZMGwj/85Cc/8eG6T0ooPTzHkBVAhGEYHnGOY9cjKn+ElcXyABMJ8hmAGUy3vdkKuSQpxe19SvexqkVUJN0i30RiyQAMqgLae10xujo1EkmkMNGxpYvs2Dd90C486Sx33/bZx65yk6BsV79sweU9q1SSAV59FE8eBu8fku2jNhkWCkOVOkmiHvhiBL/mCvJZL+lEa61rNs6zfs3EV7T1ekyl/o0dtuGpVbagfl/dFS02/alDX0Ou8suDqi5tjcgT6YaX2Oj8MM5noo+6ec+73y2H+orjJOmT6yWoGkQ4QcmT3lFI3AcBn7jPJHmzZEeaU4Cicnn/r6wslSf9Gnvp8efZa/Y5wof0P3v83iSg3D6NXt8dw/LDWqdJRbfX1LvyWUzrI5VAJT8n38rPwvuhvpycr09ViV0pzvVFslPtT2r+KT1n8hxeoaCKXMIp++QqbWhDv739tL+ys/7yLJsvSbpPfkwX1e+TCMH6DCvSBpXA8iqZLqn1D6jzG5WuvEw2p8z20x4A0ABP3g+40HYBSPgg2g37QmLiDrA88cQTvcOMzo57KGfqj7YCIAP2SKC0I+7bFeAZ6QBrEOYCi0jbHgWgJIyNwiFxUXgUWCQ6MsO+8BzHO4sAPCaSAE8IBuAcROVSsAwF3/a2t9nb3/52P0ekyh/84Ac+TEfCjF6Whgwgs0WjBjhRlJMfQJbzEI071Bd+Ymf9gaH1TcAg6ZASmUrJUR0w0ZoEpAuHxujBkEqbZjTZkhOWWNUJh9mDHQ/a726/y4dwvd19XgYsaSQveAdyZyPEklB5DQ9rSK8yg/nZBvqSteSLNJEDdbc96s/xzAoZKx955NEuHSt5m2GUxEGxT462+pdv0ICDn4jnjvRJp4Ukg7Pkjs4OmyH3fUGUfaXMlAqJ54Pn4AGAO8OEWwioAqZiGbRXShKnzEbLAPdRO3zR4bbwQwtt8SO/ddXPg8oTYFDcNMNyEhYwOdqddMghh7j+9+Xlh0ixokk+/auvkL5RYZqT8lWHqg4BR9yO2cpyBQ5OdMiIvkx1QLlg4kO5MoKk/GgjCENco+wgAIjJVMKTn3766T5E51oIDdxD2+AZzrGHhygv2hpYwJ7zUACpH+zEP5H+mIXnmHQA6FOhaZVASUj0JAAI0huFBtOzR0fFPVAU7FQSvSPPFAJZgCfvCwk4KjTOMdvOhmdz9DV33323/fKXv3QPLphr8L7DDjvMt3ee9w7PJ96KSjXz7KTsVuke2E4L+JJzGsjCNukdHn6cC3IDmRA3cwMSpcpOhepAFTdmpetkIqDfWR8w0tJG/etSXHaG6JLR/D0DGooCkAycizVhVKwP0qjKdCxIkIaU+0Y195yoGV6dnWWvqjrRek9fYu3HtduvHnvAJ5se3LTK66u2PBF9+rVGnnoclURLvWaU8FG5eKvWEJp6z1VX2cLDDrAHn1rtbu7mainSJs3KP/7jm23Gez5sZfMakqWMkjyG1bgz8vbkq0c3i26e/rF/qCPAkj3qF75Nh4gEw6x7UwFwxrNhHRHHTPQkTTY5E/zKUXbzCDe9XRJvBTra5AIul4lq+pYjX2uv3v/ldsvv7vBJkVUr1gvAG21dVXeSJomG8Hy39qQxx/S5gDqHVxJROWvhRSWS7OE31Y4fr58jEZj2AZsAVKxoAmCGkk5+xki16w9nD2lSTABU3qJloSrv4w47ymOev775GL1L/4ZxbF1gMhiM5l/Z/Cfg3vdpoZBebGcxMr9ZvgOYcEUipa3QfrHlRsKkTcRQHF5gKwRPvlLYvjZ/dXNbox5DxVUorRbeO52/AUu+B7CTF4QhypE8M5KZCk0rgI5NAAkl0WzRCxUC1Nj79/RjpJyTTz7Zt2AOJBhvBGIG/G8mQFzYRJNcAViAF5TAVrLPn+B8v2zxkIhRXEJ6p7jQf2YFFMWarOFbI5IAkR6ZGsJ2UVFtNLczbDUZ2f/pX8dwhw+Vegc0FFdDZoRHumoV54d6qCmrcOaW7JhPE2kjQBxe2fl6cVOxLTluiZ103En2jKaK2vva7ca7f+FmLE9teMrfw9AYyaGvP7GNLS+qcR3a4PpOl1wIX33X/0pvmEmiEdCh/vu//7t9/KKPW31qmwnzghcIgF4wntut/yHvSPh0ZHhcQjqCt5Bq3v/+92/9oWk8S9kqKpQGxpLaanJ2yomnuPXFHb+/12er29QgSdNwJucNMysA5VjoaaXqRDMae5PesnRtPG7oAB78AXBeLdt1y65TpePU0lldUOHIwkFl3bWhy8GtZFPOG/wxC1/sEufxi1/mwFkynFiBUNdj2xnvH3tubNEAxgGERGxlJHb22WfngTCkUeoMculd76UTSvh+7Bv3rGPyRtopB9Ib4M35pJ4mn95pBdCxFYS+g8RBJPa5UMgTFeFYZiFP5NEbgJxvOEyCkEE0AI2PAKUKR4mkTXA6XZJO+3IqqkNUwJckTozRVWkVkyRZwarWR5fJvEYgqn/yT+6SZZssMte3rLeVz6z22dOHNq3wodYmDb0o+8HU61J4SK/RUJZGMqoZV4B0oSI4MkN66EEvckfXh2fmezpwbsEqI+wFAehGgcZoVYOddPL7rPdkzbvnev09y9eucN3pxrYWf98THa0uIbH0sV/gXacYSMcteY09etvvJblpnZHcp33niivsqJe+ws7R5AKEFEA44e0hhpRInNggIv0jtcD4mJKhB91RCjvLPJCnukp3dqKXl0u6J3ieTLBlEFTtI4CyTIMt/ovX2RkvOtpuXf57X05699L7bbBVCzZm4tezwlpHVBebJJ1rzT9tpEf4k1FEzxEmufR/FA9Qohk9SRx76pj2Uq2opvBVVv5Ue9b22LyK2ZZdl7VjDniZnf6e0+2ouYfKA706L9moNlU1qQ6S9/jLpvAnJMgAUnidc3TC8PhYaT6AlDRyPY6n8Old+ghtlg3pE/4j/XvELHwhgPIbxWyAC4ndGjnwpBcKn9/avXvCuegEoveNyiCfee85JBSETGlsvlQ0m4nf6YbTXJh1VMPtUsbbakhIPb2E5oCBi6vlk3ON/fah++yBBx6wp9evcUBh6SXpGGhCZycnFSlTFOk9nEf65XlAlUZRmXZmSITYtf7mV7c5Ex1ZutBOPfVUO/boY3wmum8ocYCs+XaBhRxf6B8Sap0M8tEZNixutMMXHy5AH3BAl5LGWvRvhiCGeE1tj690ifTqy77jEz4N1TLpVjqQQjFpqdOwt1Lg2cVKJXlAmojQuyHxYulAwyY/NNoLL7zQ8x0SxUTvmep1wHNAgD0opK2UkTrKkgE5WSnSZB3+Bo4/8ng75shj7OSu5W5sfutDd/uEZUlj4tWpU85IHBCLkjXxQmNPigNp8suBE7dyWHi09W7yfC5snOchVF7950t8Vc8h1fv53ahnGksa3bM95a1VDn5+qn/ojCjXAFLeA+/CM9QbI8qg4Hv23MN+T6dIY7TH4Kc9BkApQBJDAtliZovfJHYsFYJnPDf2nj3pGAYLSXprvW2oMDPo8gSKLmEq73mJJm5QpsDMvGvxZERk7VrRwzBaGkbJlq2SN2X6pX9Li9bb/Y/cbzf89peu7G4b6nLAyMqLUmaGAFL2h5RfD67FK/Xmaj4uhkayAcjZ1ACEVtqroQ1K18YQkTDJSh/hLchPV8cz9tMffNEW/qTJjjvuODv9JSe4ZNpcVC9Po5VKCRK2wHowFh+oU8QcRp/BrnClZOS6ogYrl3RVKc1q2cGKVz/UY5+46F/siYcet9//9m7v9ZevXGGXXvYl+9SnPuXVWyvwJLZTJjU78pNb+ROMjw4aiYG6QILGiiJUKlt5bPtPKStbkIrNKaa/VVwVWq1VQXlKrGd9Qa06F/KO1LafJmzQQS6sa7Alpxxq73n1X/nyxruX/tF15k8qPrt3ZBpjsB9UvXmjVp1T/g0tSUdZpdn/hQsP1eqxI31C56B5i6ymRLPGGlFUZgDuhGL4CPsMSS+av5BeL9xF2RWeG/ubMgy+hp8ATNIXo66xZUwe2Lhne94/9nu7+rgwjeQPoY70c36PkEALC6QwURRwKJzH3kNGoMLMFd6zJ/2OIQyF7kNhpR2GYyOP4CMAkyfAc3uIMtCG1LmxZ6PczGmWslxhedc+4Ur83z5xv79loCYxTxqWGzW+VyoJk3LDcYiXoyQFXRCoaYNwhca7SYckC4mryXUM6wU+arf+XLhdIx/ovqwr66ZcT972R3vpS19qZ77klS75VJU0+PcySLbahPMyfURvx8oT2dbpHzSoZZ45SVlMX1WWVcqxcal9/OMftzef8XqXGmdLdYCB9hlnnOHvJ33bU/90YEje0ZHRKWNrSH3sEuIzFG1qXNvfp4WrKu9yLW8t1oSaNIguufdmNZkn868ZxTOscX6jzZvfbG846Q3qFBWnXf9ast2ux22VCztUEv3y/M+I5rjZB7o1weyaJlehYPbEZCF6V6hMRvsQKh5UJMVamFClzofqLpXrwGhLfpP+bE+Zxr3sAzz5zbNjJXqkf6TTuI+8B/HtyX4vnt1de/gn0h023ZNNS3Rik31u3PsjQRQmpgHsKejxhvDjvmgPvEDe2LzRCIDGUjIdwtmUsZ6FnwmYjTJ7IMI3Jg2kx5veiOQ3LYVTbPL7Vj/ks7t3K0YPNDgrcWw8UJmA80hRaggIQKp8Hcm4kcvY5LAIG+BkFp/rMDpSMXaR1IffKClIjRbwSSeFbe1MAawaicJbuvu0zraN9ruHb7T71jzmHo3epzXiNOaZkoKgRq3dzsie0BfOKCkK9qhIkqx+0hBfn+3TpBhD9Pb2Tjv6Ja+ws//qrXbdddfZxrZW119+5jOfcUN4eARrBsp2W8Qk3j333OONOCbvUAVM1wxun9IMxRxeqppETelEEWLWxBC7TOJnZVUyOy/8c6rWkLxWOs8mHHSQFe4XyDbKLhcwyhbjJ7VO3qwUIaBekk9D0gHiu4Ay6FU90RkWyZs/IFUnwCQtXr6AN8HsYC1J/dUlkv7R8ogVskpYCb5XqWtRlCN73ru9BC9EuSJ1BiEsoFoKAYL3hgqLdNIeJvOdeO/u2pNWNngu0o06aCq0uZSm8vQ2niFhFDyFyzZW/I9HIwNxvCfvSasDjhiNPEGusxRDeT4Zzo5HWwEHJmgAUHRZmLj89y0/8Pjpjz3ztJdXlZZYotOkHKnsvuFOn8RwkUNp8Uaafg/93ChOP6D4Fmnkt4DSh+zpENkB08/TygGMpI5GGNaroReP0DKFoxrSIXEwYYMDiQ33PuFLA8866rVSQVC/sitNjdW5H/CE+CzXAM9+gWhjY7L2+Z//+Z/dnpbGSblhKvPrX//aXve61+Ubvb9gnD+UBZJCDDXx8oPtI8RwczweG+d1UzpdnnqFR+ilCIUfGuKqz9KxtBCed148OCCVhDqwcoFsuYDQQUdABw9pzloPclfCQ0XRg+lMhSaqJLw6wU1c8hECtwKSENXMBY717RKhrPeVKdJPtU3BwwG+/h0+o4yFXpRrcb0QYLmX81P9bnxrZ++jc4i2S6dGmkk7vDUV2mkAOpXEPBeeieFLpHULRqIVQSmf51fWcKyKGpJDXML6toz2ivcFTELA9bn1dtMDd/sKl67yxJh3cDYtQUsoS7XCRVg2pCF936hclVUweFProbVAaXAcX4KtU6XZRCqO7yKIbkHpY7FkG4kKcl2tXjtcnSxFJGQFtKk+YY+OqkTiXdW6yR749eX2cOtTduprTrVFWhJarX91asDo/ip69VxZ8qxH/FQ2qsSkgKkP8eWo47Of+qx94IPvcwCFoZFCj375K3wpaZHGopyLMgYUabxImIxmYHSAl86EGXlCFwdNR+ONxpDAWvLmEQEVnQX9VY7f/OAG5Y3iQ/gEzyTLywRNEqR+l6mcS2SgXuyoutn+syg1tKesUPUUyQ0eoI8/gNSSXU87Jib7tH7yQwS+DYW5QKp74Zukx4GZ3ztAUfbxigAbjsn7eOU83vl4z56wH5u3yFPhfrLpLOSVyT67zfthdpgfohcrnMHb5oPP84uE0q0qksNj/bv1wVvtC1/4gl1++eUOCnt61lmlxcQgHnW+8e1vOGiu713vYIA0DXhmtQ7eOxBJarkhndWwE/AclOkUDIzek+V+9P70+vhi/drXvuaSNeDIPfALBLggfWMtgAqIRkqHxZ7oBhh1B18VNvSpluOwJoOCskoD9pnFdA5qJWAX68ddqNdNQxq3Dwjgh5DaRSVIb/4ruZf7/OaCIW7fUJ+8BnZa90C3e7n3vERvq+9toT9P37V3t/NKAN6CwKotBKFJfDI63Uk8su1boyciUTA9s1s0iKkuldr21/awqyEZhnnKmOQVaXZ6SGvEuwSen7nkc3ZH1xNeeX37VtqTmXYbLE/MRLDbhEbyomJy7KKOfobkGF55QiAZGKNCiAadPp3fxfvTz+TP1yimEtSfKv9ypSmDIVKJVgyutap5VfbM8o3Wsfr39tefepdd/ImLbb0sBggNIUNHq2pM9IJZzfBnJJE5kOhZAI7Jjgo5rfjUxz/hDo8HNNlSrkiaAOg73vEOm7/PAv8O98I/EHsmIOEfwBU9HL9f9apX2eLFi/MAujXpwl8wiT/VFAzipKCM1ape0GpkGMaTjpzkAU+bug4NIBzwUMGw3osOpE1n2BdLR835Eem6ea4vrcdepb+zrNPaNRmWUxyiUi195X2L6ubYXEXgnJ9Pa1IzMZIo0ghEL0qQ2VOX3OhJ1c/YT4cEmk/C8/AHdQE+xZ7JSH6DT1Odo5l2AI1yJ2E4IAgAneosV7zv+bRH0mCt8aYV9/gqGsrKdTBbN5XdY7JOOpk1PlAz9ehF+0f67aJPXmT/+veftErFFgcMIMATybAqnWQZ0Ex9hVy+xXpnnFITbvj73/++nwP8WNf++S9+wWfYAUnKg6E7UgKx7VlOCJMjKcBTb3rTm/xbSKl8a9r0n5KUXT/J6CmVIumXsPEFJqHekQFXNQCoDO85j+phUDd29MhxyoqV7jt25arltm7dOnumb5Pns78mMUofUjmRjyotuSRvrz/+1XamwmxskxCB99IOlQD8WwigMXHE+a1ZCW3Px6YdQAslUJbYrVmzxlE+Ers9iXrO3pPghybCk4amqSXPShRyRhWFDnTTaLddeO55dt2TtyUNq7fdqjTD3Iefza1Q+jrpytIPpO8VDjvJmsUJhxeToZBw4pmiXILgcoXrp5CgoPhsuWKlE0VS1oxWO6fWVm6SgwkZ51zwtY/Zhz70ITu14lhbO9AmBxbVbsaDjya8ATXqWPK0zHBSxaGeeu+F77brf/xjB8qcyuWHP/yhfeBDH/ShOWAUJjTwE0N4OmMHKQHrokXyInXssZ42/gRw509M9QfFW6HaIt+SOockOSJJ9ggiAUq51vD9IPdp26Azj6983O76473urX1dttfTWKQlvaSVPNM5DMxKTN1ai5KFDCXuJ0FOt1v6bV1/p/1Z3yrFTu1WjKJ6fz+yLd9LuIhPBQdtmTGVplPst7y692i8EgAwITriwKtwqzfeM+Od33rNjHf3BOcD4bmN3wAozP2CGcJPUD5UFg2rWJMJ6EBxyPC73/3O5moZYiw6mOAVu/XygEw9agjRsTYJ41AjVYVLzrJquuyyy+ygs2c7AIbdIvreagfPdJZc7vGGsSWUu7iF8lyFCdKNN95o7ZJmkS4ZyjOpBOigD0VKQ0JD2kX/Ck8hxZ555pmuM46GMFX91bMKE9DTt9nwITogL0wV8qFJI+mUBUSJDNwfXf2o/fL3d3j8+fU9m/wVSKLQcCaxOkEaThpmssRX8qrnhwlB6j8nZzOkmTkC8kBe+Qf55JLAcy/tvBKgzMEkhDrqCYza4wCU7GOoGgDqDW3nlcme8eaU7xPNYUGSQpRQx1ciG7/GEnywj9pbTjvD7tfqnP62TVaEQjuWmKSCZHG6AiavCk1FxvBMrhFgQul3S1llVEBjBdKxEmc+Wenz3RWpk1kxWEKJTlYGo35Y2Shv/Jr0qd5noU+erJNEZtVawVSi2OYCnP+89gr3OH7EnIOta6TLZsu5CVIY+OJSuex8SsvLbLCrW7GFqu3v/u7vPDIiuk86EMJnvOc973GwBFQghufwEfoqeInhfQzfaQjBX+x3lFrkzaq6pFqLIgV8sm/VwFu/O+zpoSRg2n9e911vdM/IWYtLw/KaR5C63KjKifpDelU6imX+QMMslk6cNA5ht0uZVqneSbOiZI5IrK8jGqaoSQ25SXJu6fDsRM/JadVJ1FfUU+QwX69xIfYpkPtL9/55VgkknRpVodanDZ6is4Z3GOFMhaJOpvLshM9ET0zCo0FM+NDz+QZAQbPPHf0CHP2bVzLPbSCpRCp0T6d+gVy5opX2yhaTDrFUOkqvW/0uF8gR4ZRQsavk/q4uo4iM+tefE8iKyhTBEnBR12/lBHfT7+b993fXaEiYSGPoya+//vq8/hMpDR+suFfjO4AWkgLuA5EgOIbQy04HVSsq5YD0m/zDK/3K1pV27XXXuitDrCVQJQSQo2Ig1pJbmkjilMJWdmRCsDSdWQE/+lvSiUTrXraUPyU6L31S71znPr63l3ZtCVDu8FV0zFP5+rQO4QulARiL4RdMTiIhGJBAbICFN7x0mAYTTYcEMZUCmMwzpDPyEvvC56Xxct1VXpBM3ZTh8Zv7+2Xao/7OahVmYVAOQhYU1dr7TrzQHvnpw15Ot1cu9XLoRcRQGeFXUz2PYpgJeNVAywYSwChLg70NZhIpbSQNjiNzS4m4qlI8o+t71SOJGVCxvI4zIZNjFY3OD7lpjobfMi/ieFjuhtiXdid2oOSJ45HUzpD0Q7lyeTznI3hPUvqGlQe5Mdc3NQkm29Y1h9Xb91tuszU/arWL/uYiO0Az85ValVOE63OkJNhAw36CQLJ6h9d/4uIv2M9u/F8GufIeNWTf/e53PX57dL6UOb4aAVGGXCeddJIDLACGdAqf5ScA5MEKGhUwQYMoKkXB5DjSH1BI4oqaxFJgUEPuYq0S6hRgAvarJQXyyB82PeiqhfuWPeTvH6jOWOcMRR2tS2p2OC0Xz5Ty4Ia0+khROiTAGYxypwJjMaYEzwHSJUlUdTAqnhjCSFYdSHtGEqkWHwwN4SCvyctbxe5lrwe8uGgrxG7aguIwyaZ/aovr4xxMxL88NrYt0n5Jw7SpScZJ2644DU+TF3hmxYoVSZtQ/uiAfQnzFBKRcNgUHtyeR2IiIO4NUyYyAT0XQDPSHumlEtjGEnlC8V9IrA6KPBZeZ2KiXMsgabT8JhAavSHDU3R81ZLmaGCy16E1WUbDXf9d+PKt/QY8SZuYgg3mp0HwbX4DSjSEkHgZFQxLeuTdo2KiuMb1YDae51k2tXQb1ebDVY4h0onkpXcjnfEOJg6/d+P3fD332ra1yX1KQ2r378ckFVymk2VGnu+QPiI3XnPNNfkyJrYO+tGYlQdIg6+iUQc/JR8a/++I7FIdPBP2c/DcqOWqeJtCb9uqf9+/5fv2b//2b75KinIg39TJVId4hakhj4UEb7B5ZzGGdwrvm67ffGtb/Mt3uKewPOP+wnPTlZ7d+R74KfJEPe8xZkyF4IJkQCLjXJg0RcLjPMeF9+3Ogp3qt8lLv2LxQLgkhhGJPqnM899J7pCl+5K0LQkT4UFuIBRzfcSOP/xou/fFv7U7lz1iB2tY++jyJ61awNLLwiJdHyFYjwK6DWnlChQCUMzyWzbtB9Pp8qKhJMTGDHkOGtFC6jLpHnG2m5WPStJZJ6kro5ng0dQL04jsPjn/jGQxkspvXLThpYnf6GDZD+eS54X5Xl8j4cREHUGRTAX6qjVkz8iHlFy8rfrDLQqBcbCdcNgJshNVPPVi2Yh6ybCUMelsiAlfq+WI//evzrKf/c8P5eAkiQp51VVXuTNfJAUmIgFKVxnoGAANCgAFmGgEIYopxX5LSJ4hqBUplkV7u6IINCUhP1blFJFUv5+RV4K7H77bLr3jSnc/15NROODZClks6RqpF6P6Sjl6YSn6FpQey2/KNimvy6QtcKfbRalM1YPgj6Csgs509xL1SznSqbKnbNng4+cTBfYgzJFPb6finfwoZpKZDR6b5GPj305FBBgWMjtPwIwkmIQXUuEzheefa79dz6dER4ONVkF+veJUUc6cAqZBTfhkNIRLGr65FPaj797u0g4SnUuMlWrEKjNNCVvZ7NkC0AkcHjiIAHYCXX1zYGjAJ2dyz7ThBUMp09BV5V8iMACcMmXlLv3I5sjrpXwuzi6SGUr2WTVuT7cPRAHNxPCbNFOPmiZJryc1VSxVQM71Son/SPx2HvmZI2Wc0+A6XykJ/EbS5p2Ljqh7Qt6y3f2nB312/amnnrK77rrLh+tItZQF32TIHo5DANSQRJOvb8dffatRHdOQ8oPTjtriWtvYv9G+8J2vutu5lUOJrSnSCCMCnHQgefZLVYIUqkXt2/GRbd/i5anOSQXnN3Ls6hV6pd1M1CnS8FhKeCCpq7HXnkvH5AN+g8bqzfcIAC1MIIlkeFZIkejIBNdoTFRcVFLh/c+13x6LXA2doTuEkwjyRf70J80OsKNrkhZpQkVa0tIz2G0Hz9zP/vGsv7WLL77YXnzYQa73ay+T3aFMXkbrpHvs7dAwOWl0uVTiLBpJoDqTTfrBKMvKXIUDToUws6NDUutqPasJIBtOGkc2JzMhZyTFFPJUpe+RHapLHpqBZr15aUNN0jPXK6K8GlY3OkPlb1BB5qjDfgE14DacSqI5xUoq10xzp0JXcN9j3S32meu+Zp9/44cFoNI9SvZkpU69g4c60dT7RnF1qb3jXW+3285/r8+4A47Yhb761a920Ay+QjoC+CG+G5TnpyjjVJzLSwfpCGBQs+GoWTbJhdGgYtw/LOfPn7/s87Yy167VQe1WdPAs26AOa7Rfkz3Ko8+qM7mj/FkV9Ze+OO3/8+HbU2sJdLtQetfmffp9FRoVrjv0LvH9iERTqUQ1GSV/qGkn5S/YTX/oJChf6g6CnyDKN1/Gfua5+yfygQQav+EvLD2mQnkem8rDY58JRo89Emj85t6trUbiOhSZ8YM99A8MRTrHS2tIoPn2osma+E2WAuAItYHvzx6ZvxAErra81md/j2g+wj3C//Dum13y2dC/QQE0JR1KNzqimWoFat92yRSUZZLOMeUa0oUA1Cks5NP9iCZxhgReQ1qz3SeDeduYAj9gonyXH7ivN7BstTSGeteI0kNjK1FcdDqJ/kziEJhGCNih0yX8xi0LbrFTXn6Kgyd6Xz2UfJ8GmoIe0R2Jarpq1SqXLH/1q1+5VIh0BqgjffKtaNycCxqvPuJ67KmNnoEe21TS63X4jx/9R093+axy7yjWyUEJ6UHnTH6yUllIsZsMKZSOMOeK90167+CZPpXyEkfuVm0LTpn0m7frgYn4lzKN8uWF3vFv15ufezeBRdEe4Z+p6rg3c+E0lEGAYewLxWISSTAwiIRTUYWMXwi005CUXfYK0o00xJ7wvRCu6Tgu1dr3oFEBSkYMOqq8s86a5eaKOYbrTR+8DfYPWYOktw+ecYEtffQJB6CNw20+wdHeq8kkvB9rdYxTOivugb11oiS15C7CG72IYfSQhu9FUtrlpI9UfF6d1Yx+nwALkA2lHOIPlB7PVVhK0j2k9FNHqHSpo6GBpNMYvHOpZu6VDsVAH1GPXdkgF8oa4lY21GoYKnWAnh2VhUC5JFcc/mbl5qm6utau/clPrFle4+c2vkiylzLO90iHOhFEsEGBVXFlnasxPve5z/mQFosNIkKy2CD4xEFN5Uh5hyTKUJvf3hgYGm+FmOGHuiR59lZk7fH+FvvkJz9pLU2KbKqAeH2YBFQK1BW0DxoZlH6MITuz6Y2pfaAkFsB1W5S3z1TWCkljrOQQACXfaRkUuS66xGqqajWFlXjSKnxuV/wu5N8oU8qSDjA6LO6hnLc2vN8VaZyubwQfkT/XbSuP5Il87hGG9IUZpdDH6qhINOfJQPR0kSnOx+/C9+xJv0nf2DSSFxo02z133+WMhtkJ0vfCeQs8fCpDeiRJiPtKhJrOkNhGinrUiOvk6m1QDR2P5R/+8Ie9gVNGMPWovPeopv3ebf3hnVCpVAc8xxJKAK58VrOXd6ZD8Tv1/SIBKcPkYYE2+6zMnDifXdni9ZPT5I7nS+8ivyMCbM83UpjqiVl7dLNDrS3WCaAK+PVBK1lU4/lGWiQtlVWJAXxn54DddNNNdvzZB7gbP0+kvifR0n9i2oVk+oY3vMG++MUvelqRXn/+8597yA7eRVmQJt5N4w7e4tz2Uke2Q0nvs6984ys+WZSZ2eSTVH29GyyjchoZILa70kQ+9X31RImDafIM+E0z0SGQL/KKJcDOpon49ze/+Y3XP/cxpGX1F16vAJnnOngWli28Hrp1zlMHjAKmQgkHT+XJrTxDQqBg9kWLFjnTx7kHH3zQG2IMDWgI3jB1Aw0hznP/ziAaIsBC4cG0QTSqMGOIe+IaDRbmodAjf1xbvny5x7n5iaQrvKQ/9thjDgIVei+ghKQ5Z+ZsjyF/6KGH5gPOlQA4ao/EPgqaockiqEE6wmpFHqrOLLK/f9O77HM//pKHst33wLlu3mPzay3HkBKZVd8pkeddlkaOSIIiP0PFiYQ/XJmRrJW19VlESEm6rr8TBs9M6ieRWGUToKE7sFyWSqDZ4w/yeqjQbD/6sOJOReDUemF5yEiApCeVgLWCBumpYlgv75fkrYiTdIADrR22MbdSUluDO0upm9eo8q6Rk+Aie+SOP9qfFj9gx778WKkJkCAr3HE+CuF2qTQqZBVAbKMjjjjCw3YwdMcwH3s9OgH8f3pnou8AnsEvAaTwzuCQQgbLpR6SYF+fbERlv8m/NVmtpS+ps40lQ/a5b3zB7u9ebuWLdVzcrc5M4K9Z8RGtU2cFkdxlKcZ9ks/wLTAa4Kn3FlL4W1V4d6e8BFp4U+FvL2d9Q3ptOQyVSCxJX+vmF85eoGpKdeWF9+t3tI8xp6d0uLV3wd/r16/3sqc9QjGUh49xerNkyRJ3QXjSSSf5Pt4TbWVs20BQ4h3UIZY31F/U15QSPs0P0Y5pr+zhW+Zm4L2p0LQCaGECKGSAZ7Zmj1lpQgFi41dI3BOVUQhOhfdM528aYBjzwxx8k4YXs67BOHwTHQnnyQP3PvHEEw6UDz/8sNsI4k2d8zAP76AiWKZI1EY891SqR2vZ2GKf/vSn7VpNiGQF3g6e28gQ7RMTKCZaXnLES+zcinM95MWDSx+zZoHwii6VH9KR4u9IxJMxugAQIFWbhGk13b1DRHlQBqUCZs97bRJFs0yA5/nrzvp3+te3uTom150Ap1wC+3MjwwJ3JEtNWK0VAK9du8FKJckcMGOhSzJ0NnhiqlWZBg0JTCqkQ2VmvE/hL8477zyPnxSMja8A+Aeg5Ny2CPAEAxh5V2kiTPDk/wDPtv42u/bma91GtXhGaj2ANKs8e9wMl4YTCX5b39iha2oDReLByAe8H0DDEotdQYVABmDS8b7//e/3zolj+D2kfNK3YcMG++///m/fSN/ChQvdjSATfLgUfNnLXub5iffS8caETGtrq82U74QA2l2Rv4m+QdnTXp9++mnf8xtbY/ZToWkH0ChICp/K2F92jeg+qRwSzT5Ak32AT5ybSia29xnSxkooQI8GScOkd6RQAVcIUETaIXgZ4SZuvvlmTzeAyj0ww1giD7x7WA0SGlFojb6e3kTK1UTSuOA5Bg/w64nTcuSABgVoe9NBr7LS43vtm7/S0PvpPps7e6YNdit9mkGGijUrX4S+UnVfLBObbLpofiTVlfa7q3kJiWm8cByvOaUrmVwXpxOpAKpfyXv9hOqGF6N+qFWID6+rTuqu1qolvTWqDAFQ1rD3tmnyRQCeaddkF+/mNehXBYjDbf329MouW1vxlPXPOcBuufmX9obXvC5Jhv4WSRkM5pZIfwmA42DkYx/7mPMJjfG+++5zHqF8J+IRJEA2zI/UNUvnKcN//dskKP3pA3fYdQ/eZt1lPZZr0qSd3u2e/al2DDwlCZZJ9VFI4Tc1ymfscZTfSOoui7XvTpLOt0oq/jKpb5hEVEHpe8VWJtvXprJajTskke4CYrQVAAd4U65ImYzKGMYijcHPtF3KiLZCZ8pzEG2DTo0QL4RooU3g2PrEE090Ke7000/3NsL8B1Y4tHfuGTvq2wVZHfcTpGnp0qXOb/DUi170ogl5a7yXTTuAjv0QcWv+8Ic/+Gl6JBrcWIUtlbgrJNDoZUJqDDMrpFK+/81vftNuuOEGt0EszAfPUdCRTo55B+eiR2O4MjCoYa+Ysra6xhkRI/Brr71WkzCSVFVpXNsWAZ4QsddZkz0iADzlL0+x7jkZ952JZODfUyOM9AD4ZTKFokOQfJi8YKp/9Q59wI33lVntiaspAGaSRdQgtQPfLSeqp/ZlihxKHkdmzfFGU7wiiTa5qVOqBDoT3qWyGh5J1oSzQolVV9nLvm5vPuv1gjiGqAKVNN/kgRELkUAfffRRzyudLg2bTrhQ7eIJGvNHyZVEh4KDN0vrkBuwquIqW9r2iN16662eRsBDBl1JRygpNSOgGBkWmHrHuO368Zfu4B/nQTJNryGCB1lksKso2gC8zG/A5LOf/ayX95133unJ4Br8TTul3AFP6pm26yMd3UVd0WbgPwCVjTbwwQ9+0AEJhy/nnnuuL5GEZyequ12Rf9IB39LeEZ5IL+cQ8qZKU5Nbt/G1qCBuoXIOOOAArwzOUzGEcIBIOFsQ13Y2hfRI7wqDhFXAf/zHfzgjX3TRRXb33Xcnw9hUIiVNpJ2CJ708x3uCyTgHsCUSTSJ98t6TpC/CJMclV81QZzRMRZIp3BIE0Qdo79rY9fdrCKRfTYruOHOg2BZbo5116Mn23pPfao3tpTant9qaRqusQfGPNBB1CXRY8eAHRgSeBIMr3ATEwDHrz9lGY5MB46hvAkh8kLKmXluJhuAlWXUCWuOewf6xTI28VMs9KzXhpG1TY9ZaavrtyepOW1bZbo/Ud9kTc4ftqQNKtQ6+xoZfvq8VHX+ANfzFgWaHzZebIemZy5GQJZVqIfqaDU/ZzOaZ9v6PvN8OOPIQ+/53vmftLXJlp89XSWqFXyhLGh/liYRE46X8t0vJn64VxRkIzlr6tGRrg+TQH9z1M/tj25PWWpOzFsV36sppMlMmV4B7RnxXNCTbXK3XH1KZFG45dWBsSJhsKFfYEPR9dZb2SLwZSeps4xExj9hY3YVtcIbQIWL3ksFRO3B+s8uesiMY7/FpPY80Ce9SppQ1bWHWrFk+RMdNYFjOwOPRPrgH8OQZKJ4FPOM4JFYAFtM17JkZ7n/iE5/wtkO72d0UeMNCDToAiLLYV+4kp0rj1/pU3zjmOSRQyCUWVcQjjzziPReZiQzRk+0KAGUoQUXSUPlmSMKYzgRAkiaus480c0z62DgHA0UFRB7ozTjPEOb222/3WWe+xzYsw/Levu3zGFRYFvjSzAkUakpq7JTXnuLxhEjzxnVyJJcOubh/VMwezD2m+Cd1mFWDwIsQ0vKz6kPlkdPwToWjli+7T+WX2PLQqNKSSxsYEh46pUPlMelIxT6aL+U8jXJY99RLukQPTuMEGBmq02ivv+Y6MUjSMClX4iZR5hANnmEl+ZyISqT8zGnpazyLXvGxZY+5dEQDJ09RX65L1guzSgfnAOudTdRRPm0pzx988MH+fVQNO5tCgChMA9+kLgC7733ve76AAd8EhcN87qf8gscKy5F6gfcB4+jkOAfgsv/KV77i79+e+tvZ+aftQmBQdCQc74gEOu1cEyBDYgEPEkfBw6QUIjPxiPaFzEQmdgXRO8IYMATpI600TtLG8B1XauhGVqxY4Q2K+2CMQiIPnIcZYSoCpL3iFa/wYefpp57mQ52MxuIwZUWVdIJqGOUa+jLrPp6MEb1YVvrDMo1nM3J6gYiC53JN6dhM6QllaGF/ffw5NnO42lr/MODp7pWZDRIRHpGKtGUG0qFgqpPLN8n0WFDnWQnP9oTdhZCifI9nJVHCZ/zW5BHPiO8ooyLlnTIbkY0pVKx6pRyRrBTT2FZKMlXhSJjV8F4hPF5UXC3pZoHtM6vJJfGnH35SHp00+UWRagG5onLbymUP20fPf5dd8+Wv2j985Qseppjh4itf+UoHPsqbeqMeaKgTkcY57rCadD+TbbFb7v61rRvq8nrJSdT1iKOApdJuvQJpmXDVSvrMqGPtrB5TQ6lUGcWXND/le8xtUX6xEinKOdIa19HzZqVrLdEogbZRIqXq4QceYsUS0Mu1nHZnU/A834YoWwQKwARpk875Na95jW9YmWDWdP/993s9oPOkc4P32Ue7CIGE99GWIIbrp512mi1ZssQuuOACbwt+YTf/If/wMRPCzsfiZTpOQmM7fyeMP6lUTnutBYBSORA6LcASwOEcw9ogEh0UvVsc74w94BlmFbyfb0ZPS1Czv/mbv/GhIyI+DIQZDYUOk7BnRhHpio1C90agCog8M3GBcwiIiuG4Usv0IAzLWbK3LcK1mgMWDRwiPo8ID/YQJjlnnnSmjby4ya677jr706o/WqnAplL56pe5SKZ4x6bhyQdEvSR1Azhu3igHCMCk7LjmpGr0+7XGH8muTnBPfQN83FOniRKk0A+/9x9cVXLxRz7tk3QlJVrCqAYJMNJxIY2eeuqphipliRofjZZhokuwet+EBMir7HBWsql7k61pW2MPPfSQVVQnEpLVCDTJgwL7iRkF9sqv9mWyanAVzIQf2LEbKDOk+4x0yNE+5hbPpZ9yXtmxt0/8NDwJ8NHxQ9QRPEy9A57B56Rz0aJFvr397W/Pv5gyojzXaQRE+0A9RR3zLNeYSOL3i1/8YueP4CcAmndHnvMv3A0/SAfuEQvVDzsyhJ9WAKURUUlUDESB0TiInrhs2TJvZKA/REVGT1Y4PPCLO/EPs+6FFCAQvTLpxWEvG73o9hAMF4T0CQWTxvmqCcAzuU+gxI8QdVimJCpPgW2RnI90dXfZ+bNOtlPfdph9+oovOxBl5jRoSK816PV9Xv4jqgPqYlCz8aQti52j3jEqpyQ64bP2nC9KVyIB9dAIkqSIqSPOZGVB4JRRngDLAakw1PiKpc9jyaerSXVMrCNWX9V0IKFmrcFXRmllkgQSOqizjnudqzbmF9UbRABQAABAAElEQVR7gz3jul/bHbfdZp+UiRcjko5ZZS6lVCp/P73hf+yWn/+vfeADH7Dh3n6bJasJGuqgVADUTZVMrLBywFSMRss5YJ2OhxDEw5pRH1IUy1IFubv6f26wFTlFLloo+1lJWFJE0wtZZU8CIEqtZ6+tWvpj9W2luWSYn4v6HNV9Kseq3mT4uv9QlatOBjdu9PQONpV7h9DRmOjBh1hZJSpOOxpLrSUGk89pQYQm4JTexi75pZLU+5eHH6ey1CiiTLPVPOdP79w/hXwZPB/8OxHAUdY4fdleivdy/0Tv3t537sh90WHQWYNTEMuHwYCpAvy0AyiJ8cZJgxPRcNGvMJsaUgkNgl4Jikqcagb8JS+QP+j0GmWb+bQC6DJM+vC7P2y/vPeXdvWtP/cS6C9LdJd0TpRnlrEmYJDWcrEagAOphv45ASBxz32VlAAQBqdXpu7CAbQwiQqUhKSN/YiAmecEFCUaxpWps+A70WFWCkwZxqG+gDH/zyl/ace8/Bg7xOYJa2XYPioPUALpQS1NPX7JErtV23e+/W377CX/z4G29ZkWH2rTyJmEqFdnh+UGPMWKGExokFiDovPjWHIyWCd+ksu60X6392TWn046p/SoxcRj4+5ZlOAdhcrJy40ZP+WbMgE8Wta02FpFB5UilwXsCkuyj6cHvCxMy3gfoNFSXtxLObFooF6dimrIi3q85/aen54SAGsYgSKB0vnC86H/nCr+TMxVU0h7Yc+DJIQ0x8QKjIPIz8oHZue5xjn2bC90EkQ50W4hFU1CadEgyDAZtbAq8YlZPNJu73z56+2EQ1/qEwA3rL5XQdwqrLZCM62aPe4XgHpj1bqkBFT1BaRJWQS47ZB0oKyYGmTFEmCqdetEyHSP9uxZaiMmK5aZFHVarj31V6L48eXyrl8jp9AAWok84MOctetyNnvWvnbSMcfYSSedZAeVLNR8uMJj9HQ7ACHg9in91VXJsrnW9jZ7xzvPt7PPO9f+5V/+xX55480yvl/reS4V8PXo3nqtaups73DGL1a6hzQhh/QJ4U8zuAYJtFcFRhluktelG/90u63tlLNkpHitSvLYRYiqooia2h8iX1rQrNACKEf7BfLqKJokllZVyR9pe5/S9ZT1rlinctJL6EzaOm2wTd6sZjfYSGViPxk9VaxQ2lyByXdLtGQJPi+Tp/qK8hr78xe/xD1UpU62lKHkvr1/d14J0KkiwAGeCBNg047QtAJoIXBGomAYljLCkEgD7FdokobZ+RiCcW+I1PHc3v3WSwCgCm1gqYakmtKx/Wr3s/f97fvsaHuDxyS67Z7fJpKknDDDLCMV0t8Sy72/y5nG13gjyTFEl1RUImmWunNJEuCE2KcboAr2DPd1+cqiJq1x596uVi3zFC2at4/ry855xSm2YKYmjUyrT/SvW+Gb8bzfUKMYSCJ0uMzU5mRXyvNuQyoQL9Ow/PP/7/O25p3v9vDILI2FwVG3MLkRvOF5T9VDvI97grwDFhDiZxWRDnO0jAAWyQLApbHQGWyL+A73aQzlKpgiLVXl+/2rN9jA6tXyTqX8SsenhCd2o+JnOijIBYFtvVzXSAvSNZ3Z0UcfLQP6Ju9gpOgYi7UTvGnv5amUAJ092EM901EyCggJNHhssu+dVgDl4zAyWyFjNTc3u6QC83AePSjuywJwC++fbAaeT/czlNuCJEU6pTsmPcq0hrpEM7kAULMckDBp1duvIXPNbNehveaMf7Jlr1rpQHrnQ3/U43XWo3taH2yVPjGR/AY1BKceRmTMCGAMSqrLSgqtkPeoEr0foAKcSrVW3gFoMDGsrtW7hrqHrFKx3rEdPPqlJ/jSzEMXHigIkO9QrSGXRlQ2kdjLlsi5UZ0PrQEkB0KltxiLAkmSbOhac/q+UuHp2bd5P7v+hp/Yt755uQdyo4P1IbgAFx4hLQzBtkbkpw/bT9l3Pji0xh7pXWd984WlSM7yO8rzYas5KJ0wlBPAOqVagTpZMQBuM6WqoAxyK1qdV21TryaiFHBO/KuMmM2psrqDF9voAY02rO/2DMrMCocq0s1C+pLvNaPl+5jFL1OMqhL5bi2Sc5W//PPjVVL6sHTHUc2hakke3vt3uksAkHz88ccdQOF7eANVk/OGfk+FdgqAwsxsEIlGf8VMKroxGibLJKFQaJOByJBf2Ptn6yWgsnObTzXucm39GuJWSpdcKwmPyaX62nrXNc6tmmsXnH2BnXZ2uy1dttTuXnq/L2BYtnF1vnNzgJTJFPVUJikQcEJlSj3QUwPQOQEo91VK0oLZjtz/UPeO9LL9D7OZNTNthgagik2pv9KF6l9VqWIXIQHqPRVyFoJeMivwwmkJs7NCFqVZekZJvpUKTMd1PNMnU1YJ2AFg73zXu9yY/qMf+YjHR2pqnOGTNwAqelCfyVZ63NlHwmbJtwRISLkYcgO8ncPd/t0O2SRyrGxuk+BVB+K2PtuoiaLhp1vk8EOALRXFgFQXGTmWrtDKoeLmJvdU1CEnLdjjqlC9XLf5cl2kDClbrDkOmn+QUpuVn2bNBZCuCdI20bv3Xt++EsAsK/gbj2kxibR9Tz/7rmkFUIAQCvCkMQCSLFdbsGCBz8TTIHHEMdaciIb7QqcSPJ9DKSioySXH+c5Rw2wVcUaRJUsEnJVlGkrqN5JpXVWT1eHhXVJOVpNElOe80pn2subj7KwDj/P3tPR3unOIx1c96eZkLZ3tDpSqMMtoLX2plK80cgCT4fX82XN9lcaiuQvlq7TBA8oBMrV4wtenyqRL4P5iJC05hjZJV+XMRJN+bCz1E8ckZKO7Uza49TW+IqtMNo9wSi7lDxKHE5YS6RIBcp5jiPWf//mfbpCNORP6TqQ1VEDoiNmCzxKu4y2EB+6zOx79nQ1I2O6uGZVE2itJU/Z+JEuqXiisDYoxYxI1DiTNoKlHMe67eq39KRn7o4vtlZmPJM/Retn+6rulzbNsrvg4t2+9dSntLUPtyo/yr8m0EYxbw/9r1F/qpqk0jSBQpe9QXqcdfbLNQmaXlF6u9uC+A6a1JXq29v4ZUwIIcCwrB4PAJiJxMpKCpirATWu1jU0EUgwAynCIxK6Q/oHEE+ubtaiYuNAI2Di/l7ZdAkheZQI3osrh1q5YK5WENA6gQkKdd1SRizaBlsoUC3n+4ZUIaW9G5Qyra66zfTRUhmRy7ufDa5EG334+8JqrSHQsGoXqyupc0izWe0sEmiXpUDjCKPv3CXyHbhXDcD2Wky0rs/q1dTUOmgAwaSI98AY8w9QPbgAheAW1RByfcMIJ7psA4EGKhFd4B7QZOMmLhmT6RyPBThFptUwxnoYkSZZqQQOde+CaP7yVP0yQrdQafFvT6nrOci2nHZQEWtbUaIfLsfPofpowUnpbkEaVHhYLcEzQue0hJB9GYkuWLPFyJGgflJWeuqQx0RNvz3v23jO1EmAVHDbeCHNQ+MKgDtmo08nStAIoIBhSKAmhMUAwM0bSrGxAsmBy4MYbb7T3vve9LnGQ8JAm/IHn6B8aSDRuKgRpiuPCvHlDFghwrTDfXoHRDqMvSVu8IMlpRNIcWjZvdzUCz0AQr3hVftyY3i/vbk4RC612NKnuXCjl0vti1ljmk1tQrKBhCA4ls9+q00TVt/n78Ry3lesbKR/yWKZSukSdzieNcwFlSj9mTcRPF/7JSkq2nJQXH4N0/Qh5+qFcKasBSQ2LDzjApWbntZThA5Cx61z68EMuwZbXlFvb4CazmVpGythdAEoYFTxmVRYlTiQqO5JQzgs0SqdDX/7Q6uS7smKQCYANNlRa4/4HWdniOYo4Wm3rKxMRtg8fAcqVatHzWs7adlFWIU6yMrsqbmzy9A5Ld1qmkQJ+C8hDpaKinnPKaTY/I29WihBQlXZMMp1QZ+ev2KE/hfznKpm0PcJ/tEHaHhI8HRfnCu+fKoDsUIJ3wsMx6qWdRfuLtoZnNQQ5OlmEO5asQtwb7XaySRLnTi+RGBIHBXBQcYRmwPaToTv33HvvvX4PDYHKez4QlUBlwaTknQ4kyoD8kU/KBsYl34XXptL7TbbM+IZvAi2AK7+57JZei3u2sp/s96b7fso3tsKyS+RsGbPrH2ZQlDH1oJuTJMBfaYNiD5hQF0iDSLX4vFz1oIBX4KrW5fdWaGg3d/Fi199zz/bwKOvqS/UcaRyWx58qCQrwfHj+YcaXbVbFLC9xTyMpLE8EjR0tL74bxLvRz8byStogFFI8v+EF2uLzhcgLnQNE/qM8qDv4BcsM6p58Uw7Y4UK0xanS5hKf6hu28lwwGxkgUyQeeytCBLAEjOvoIgAaMuLSRHrfVl73nDlFpUXlRKLJP4AZlVtYwdwfx/SKVWUJkyONOaX1yuAUClYPaU5Lzp1UvE4snNkabRZukl/S2vltcT560djHO8IeNb4TyUoF2bgtv4/PI59B+fvTX/G9zew69ovJc2P/xnvgJ28UkeH0Rq6PSMrslJLzwZXLfJKJ8k70skoNBadGw+qfEYnFjYOyAtDC9YpNA25wPyCdp0cszQo8aUzzG6y+eR8rkueoLj23vmxA9adFCmWRkjSH6UqufE51ulQdU1+7lrBW1lrloBYndPXZAeVzbbBl0N50+qvtqFkHyu+1nCrrnzQxSpvKYBpbIW2Kjjv4Sl9wMIl2GPxIm3N1idpiIdhw/3OVwJXAksAg8hL5w7csRBngAxUA5Vo8U9gp+43b8Wf7OHg7XsQtJBoACeQnQSSWjQrF8SrDdxKNtxZWJ7GHQmr1g+foH/IZlcBQolASJf+cowckr1Qa55ASOB8rs56jWd9lyYa/tkbOZwKliHoAL+L8RMyXbHpoSGVPOdNpIxXCf3106Jo4wrO/LliFfDfMaW52Hw7UEXUTs/5b+27hOexpiWbKenzqlo4z2kSz3nnccce5f9IhRT91In2iEfTG00SkmTKiPOAt2hr8RpskL+yRRqMc2cfvaUrCbntNtD32kSfKnzyzZJjRLyv4aJcsSeUeru8IbZ0bp/hGKguiEuM3iYwhFc4G+B1Ac9ddd+WBIzI/xU/vEY9FpZEYGhANFaIhYdDOOZiXCqUcOEeFct2JmWY2lZlvLnlqskIXCzcElsKNZsjmAk3BXj+3ICqbbTyi9ra2uYSna2PfH/eSera4D0mTTXPXvqG5ZcPsny1Pm29MMpBeiO/wkpCCuZTVLDxWo1AybE/S5McCjNX6xpMliakc5+r7Rq1Cq6aKByWRaavrydiMPsWdWqmgePc/oyB6mChp8kaTTENad28HzLaaQ/eRfecMa6mX/9KSTttYoQX9FVoWSwhVOYZmK5ZdKhs6YrYBVQ6b63Z1PK+hyQbbu6xWUu5sxYQqbxu0d595rh1cPNvmYviloH4ViPVkRVu/lNUKMzUtFDxIe4K3aIvwG8QxxGRZtE/4kE79+UCFgEie6TA4x2/CZPMb7AFACUkCeMY8zVTxZxoHD4nNZ1QEoBA9QfSKx2iJHxUGcZ2QGeeff77/jozE88/FPRUEY5LfII6pQPRtAZQ4lUYfg9d1zCi4jhPhObPnxGN791spARieBgD5b5U3s/lx3Fncmec5eC/uj8ZBHbCUL/fEBo/bJKNVAZjeV1dh9XJaUrPfXF8pJVP5BFQqdQ3dIb1XdHL+ta3/QcKt0DcYVVVp0mm4K9F3v/a1Z9gRC4+woVGZ9cncq6xKzU58kZPkWSxrhVKW104TRfnwOvTBhIbGdhaQxObx+OOPd+c+8TnaHdtYvo3rz7U9+BKCS2Ha8bYPP6AqwyYZF5RI6OHDtPDeyfyeVgCFUQEJAAEQIcGAChvXMB8g/ggOTTkXgdkKAWcyid8T7yUvlAEVCWNSFhAMfOWVV9rll1/ucX44x70hCcD4F8oqAUogQdcTrMiLWTErnm9uY2bT8/f7W/QnnT2Pw/w+PhD7/IVxfkQ6nnV/Kk2Odz6VFhPZVO9mxl0Ur0vlbotYQ+SLV40njMFDAYbJexJzKP+t8nuwZ4O11UvCVFlzX62kz6qcLENkt0r5lstAPrt0tdlyxbdiiC3xlvvKFi6w/eT4eUNDt0cI3ViiTp7lQYrq6asLWGEkx9ZVivoJlaf2o12pytoBlguKUAog9yqKKcbyMzQCIdrj/z3tTVpsoLAWEvRKK/ROz7j4RIBKnhEpeDM4vSNUCIKA5k9/+lO78MIL/ZUBlAAIrhhxGXjWWWclS2vHdPo7kobd/Wy0N9LBiI96Z+iOsEJdc8zScmbjp0PyHo9Xp1wOiMcQGQlmD5AAMIjKCDGUxakIUS65F7B9rlNh3qk88gWYfv3rX3cfie9+97sdPLkGUS6UA43tnHPOea5nf6enPzrjsR/y4bwaBrFu4LngpdhHw3labsyYZSc6KuZM1AOTm3iFZ7jH/T5CouOnjtTJa7yXbHrvRFSuIfKA3k/jbJXNIW4cL3jLBb7aiiWupaprFg9oiZe/qtztSFnIiupkx/mf9sWsO3zFKhuWSzNZAniSL5+olA4Y3S9+Po866ii76qqrPN/RRifK455+nTIgr1H35BmcwdICyRQ1BvUNT0Q7JE8A61Ro2gG0UCQmM1D0ClQSelD2ZBJD+ghkNdUMTCXTO/JM9FqI/0E+0aA8xdABICXvN910k/d2ACdu2QBTVviEMp/nKYNbbrnFGR5ZlY1S85KjzYZIRk3FhdjTwAu30KHGPl44dp9/Xu/kvRNt496ffh/JcotNH/TVSTLPkQcnxf5INmlAMdLEPJ8tkoWmmC2G4w5VMLT+s64eyZqN31iJ+gy2LwElchPQI0leK4JKWlusurvTBrTOPie9Zk9GapOqWTazr9E23rvG7PF2K9nASvVBq6uVdHKEnHkcXGNPzB+0pXP6rEPJ662SvlRu94hXVNFVZBVaH1+RrbAKuW4axUpCzqHbZa/aLukxJ09POexxyauE1Nl9TTZ3aI7Vr8zZm494nX38Ne+wo2yOLZYPgaY0P8Xy3C8PK0lFU/RajFCjfZ1Xgn7sIDFJBu+hXwfAAUhAI8ACQIE/ARAm3N761rf6arMwK4RHoQDU4HfOxbVoq7Thwt/csycQHUa0T8qDcNqobwBV9L/h55dyCqGH8pgK0XR2GQGkzMQDIlQGlRQAGmC7yxIzhQ8BfEiMEExJJVEpSEakP3q9u+66y8PzsniAVVcQzjSgsDqgYlFn/Nd//ZeHBQmG9Zv2/plSCVC21AsNm7rhN7PtqIyEKD5che9oYHghZ6PeqFccHU9EvJN3C40sowYpFErWytOZqj75PsNFPC2d/7bzbdHMRYLqQTexItrAriAAEgIwAIclS5bY1Vdf7SaEnKftkWeADzCB6NyPPfZYTzf8CmjCy9wDv5Nn+DMEoQCbACq+Gdf8hbvxT6QdQY70k1aWAlPvpBP9Z7iwI4+R7mi7k036LgVQEsfwprm5OZ9wwqHCwNGTTTYDu/L+6MWjd6OBknY2COYDNE855RSPJ8957gEskTRhRiqUymUVxI9//ON8b+gNc1dm5nn0LWQH9MPdimiKr4A5Q3JgM1xqCzcOWY0mjEafXmvW0mW9JVJC1mWs98BGGzx0tvXPq1S8esU+z/basCKHZhWhlA2P9mwxu/7/27sPeM+K8n78x78kESyJYgXLosReIqIIRkFEUcQaRWNjFRWFWCIGrMSKCDYECyqCEjUiscbeMMYSIyqxV1axBDWJyc+YGGPuf96z+znMfvfu3bu7935v2Xm+r/M950yfZ575zDP1/Pfvll1Q5br0ZcsxfmUb2KX/X5m9LZPzV/vVzsOV/ufyw67/svNw9YvKFzZ/s8tw/P2OGI65z9rhesMfVM3yKuVM0d8t4DmeUo/val25jP26dN63vwMv4PUUrYpMAQ7yeN5559WjAoE8OUxviQ8gQi4dI2hyxaenuWuBMgDjLvzEQbbVi7jdkIQlu8lL0ir/6mA+zUPRsZHBXAy+wJwobtua/qkDKMZr7SRconU1TCYFhJaM8/OIOAWjIPJMGAnRMcccM9i3/e53v7vmiwaAtHourb3W0TfPbSLwETuD2UhYwui0fRxQKWiAwIF25Ptb/1H2wtfxTJpj0aKuVMYE1+yxR630GS80DPJ/7LdAPgui7JWVypceCBnQKK5du3Y46LYHDVe69JXqMIMhCScu/bqUfxH4LYS+/dbqlnRII9Jop2GmtLzkJS+p2vhhhx1WAYS7AI784BngtM3ad40c5kJmjS2zQ+pswLdVehJPdbREf+qR/AQUPRuagC3SKt1WAiGyEnfsVwyAytRd73rXmikZ1nrpxka7WyLezytaAqfSKQjPjjwz26mFP/XUU+tgtS4CodMw5PtLhPre9753PZXfUWsG9qMdiFj3KC36vBKySh1tUMzmnbuqeRbX1V/RPGd++ethl7JN6or/Vrqc3/7JMPOVdcNO60rl/3XRPI0L3/Dqw+/c6BrDz/7w8sM3dy3fPb9M2eq4azE3M15GU9fPhZeANgq4GG8Y373ila417PTf5aDnf730sPtv/mC43s8vO6y5+DLD2mvuP5z7mJOHR9zskOHqRTPdtZyLumcZ1dzZmai/LKf3l2P+Bus+N4Rr1LadNKrpL9FsLwUQAnbC0wNCZJXsarRPP/30+nE4E5eABIBo8Mkk2Sa7Jl6OOuqoKrf1KMIShvpKthF3/PGjTm8rANXAFuhPehCwVKfU0bPPPrtq3Enrne50p9FNfSh/2zN8puymRjQxhWwLlUJJq0drS+anlphtjAgYhrTWPk1isigtMCElUIg2ZNJM98lXNH2qFw8IKwGMOwLvvdP2cUAZkCvjzd8th3Z7L3V++HWp9Bqta5eyAijKoFaa0nhXzbBUuCKMW4z838pMLu2TDBtbta7yiU984vCYtY8ZdrvcbnUv/hUve8UCmAVcygHV6P8DYEVrK4nZYvjb64A8kb/IonsaZuuNyS4QBCyWMr3hDW8Yvv71rw+HHHJIBU3xtxosBcABHMyc4csfOc0QFqUnWmhkeXvzsD3+U4ekSRnRnD/84Q+P4G5lgs+Qo7aR2R7lbaoAGuboWvh8rVaLICt0ILTcKcIinVporZmKBBDlRaEQMq36bW5zmzp4bQeEBoM9QE1XPUJIM0D8dJqdA3YjtTuS6g6g4lSnuH43r9zL4frDNX71u8MuP/mv4Zc/KMfR/fSXw0wpj53LGaSXulZZJH+Daw3/fuWdhn++bJk53um/hpnLFECjEf62fOf8v8suqfJ6mVIErp1/Xc5ELdfl/nP9deV//53Bdf3/u8rwBz/49XDznXYbnnXYnw0vO+rZwyHXu91w2bIbeeey5vQK/1PiLzP4lypf39zpVxJdqle5/us//l+ZeCoHOm/IB6h2FUmp16XKPnvXQhCwI4c0xTTMZIu8AVTyGdkjzxoBi+3f+ta31uU95BnIIvIKdPj32e9169ZV/8CJGZkOWEczXYg8bGsY0iNP7shQBGyhnOHFPe95zzqswU4eUp89bytNFUCBh8KRcIt4ZVQLaR3kWWedta15mJq/CAvQP/roo+syEAKryyNP7Gk4r3jFK4ZPfvKTdbyFOaFFWnSFyYw7/nKg63JowafGyEWKiDw579FXF2mWeE3m1qxZUzXTsXdQGnD2pcAKkq3XVubDf1rb4x//+OE5xz9nOOh2B5UdoGVfffn9we+XCaMywVSP+yvhla5F+cSHbnsBRWVdZr5rXIuU7wSbXhxwMy6LgKW8kbcABQUm5tG+TGr63K+x/JyXSW4NUamzNNDjyhcC8JCfyHTu0f6SlqW8q1+ud7zjHbXc8UU6jf2quzCHrAR/tiet6/ua2xPCVvpVAITaUg9LKnSnAI+lBgpLQafwZTaFnq7HVka3oM4JjvQDTRNB0Z6Tj2c961nD2rVra3cxLbJCUpihCKz3TDTFboe/Fz7hF6r3wraZDe+1UuBlucgCubAi1ML1y5ZPmuxSus07faes8yzXjAOdf/3b4b/3uNpw+XI4yK+uc6XhwrKH/f+KFvJf/P6r483KIc/lhHjxXK70tt1/u+EE+ctt2BN0mTJ+6dDdu+9zYB1+ufbO67fa7lxA0wRROTKkjr86EwCVyfZKhlvXP5QhgkJVe7506dZvmGtfn8OCs9W2/CWA0SAWW3ePbLWNgfoUCth5j3nql/wDlhe96EXDscceO5x88snD61//+trD4g//jd+TfZSwaHbLjdRLPUSnL8mfvCrHvffeuyY1efayvcC/nUW2dayTsYCGSmC5xIknnljVa4X/lre8pQ5cA1QFw42CawVi62JcWNe6NJkYIlwG4y3LsqPDzg6NgcZBPlvQBKYEdLnkY2G5Mt3QAp7Gn69QGmDfg9LhNOP+kY98ZP135K+0y7DrNa85/EvZfmkr5fn//oPaqP3LbwrA0g532tDV2/CxvFJcFRAuXQ6sVk5XvPwVa3d2/5vcerj+musP1y4f4FgPmOuRsSxKqpkOEE6XA4sXG96Q1auWRgeAPu95z6uHcNjo4WNsT3rSk2rk5Fz9dPFD3ltQWrwUzh0yrRpYStPb3va2miZYkiGIuX1vm+2lSkW/RD3atjDm7UvhRLv0TOM0Pgg8Ca4JGQeMULm1DCoLSms374gW2WG00EQjvWn9mbX59C4fyy0P0rXciCiSgzpAuCFxnymbEjLcw+6pT33qcPSGMwMKqlXSsNnbffZrT6+7b77521/Uhuwqd1k/YfDLy6/XWncp2oiy2OU/188eX67skTfpdM3y7addy2Ei+972DnXB+bUus2sN93IFWJ1if9nfrD/ZZ5fLXGF9hGblCzlIH2X0MvdoJbmngkXRLKmp/tbrp+UxFqPqWq2X5A/gKIfIc7q7eZeosZw2pJCb7dXkFiKzgBJ4Sp+lksZsyQyAt978Wte61kJEs1EYKeONDBfrBXhidlovByxbF2kmUObt0XVun9PrMaEFneUEQrox1nUaSwpYKiTCR9DSSMiTfCjUTtvPAZUBj0N4Sy5sV3RQi5l2ZN2lSbyfF8BUFldeUz75XJ6L8NUewy12u06dPLnmFXatXxL1zady5E091OOK5WMbRg9tF93p0o7gK1pW2Rpq//wIdDWW1ffXKgL4jGcBxtS/KA94Xxu7wgb1eTmQemYFxk9+8pN6cLs86PFauhXZWOh0Tr1mh+lR+R/0oAfVMReZl+Fzzz23AqhuAqBScPGz0Jnf2vCAv3QDRuCJVFDgmef6UP64IZC69KgVzmrQ/zbhQE6b2sSiMYjcXFzGuK5WPpf9xX/8/PDiF55UvkpaGrVf/e/w83/9+fCaM14zPPiwBw8/Gf69AqDF7Ojydc67LKAupymRK3vY/eyw1y3fpT4XYGBX6PfKoGaVvXIaUy2/8s2jShs035x+VbazV4qmmUoV+/W2xlnXP5UVivVh1Fg3jJ3G3VLdo2WmSx4FhizjF6DMGCit39g/4k7dXQ5Aqj5qUJGyky7rXSM31WIB/zZ0QhYwxDmCUjAKSetFc0MW1Ru3YKeQjLcAqmhxzFwpzDmCX3QrrTGgT9rMoiOVKwUk7QSOu4AnNxFOz522jQPkIJMfxp59avikk06qi8SVCftHPvKRFTx/U/TJy5bfr377qzpTbgyTlgkof7eMde7yu7sMl93pstVuPYiuhz9udiqfJ3alAhbhW39ifQm/CO8l17ZlY9n60quKLKtv5LidrY8ig8+RZ+7RcgBPYEkOKGHqnzqpzh500EGLxvOpA6icyJhCQCrCgQceWN8VkANvrZ0MIIUR1fES/wF+hYR0ZTIhplJ7RwHZ+lL+CCDBJIydtpIDRWMb106WZzJTQU2lLbJyxhlnDO9///uH3a5+jeEX//pvw+5lwuiY448fLlNEyzfXr14GKW84XGnY/X8uPezxPzsPu/6/meGq/7nT8Ae/2Xm4Qjlh6XJFP3WVZnH4nf8rDeP/lG2K2vX/LJMi5f6/MLWMgf5nmdX/zxL/f+1U1lAWdfO35d1Vu/Q6H/9TIixXGbWv16XLt5JcdUyAuCj6ctFIW610g3H9LPz6QyCLuyUkvaoAI16re2mwKDxkn6IDXGMOQNWL5UBkw5d/deGlUR5sZIExi0VTBVCFE80zBSCT973vfStgyrQCooWiFnQCXIvFiPmEq4C0tLTMDC9IIyFK1ybp5gbJJ8EkjJ22jwP4j694ua58y8j2WZXDuJfVES996Usrr4uzIk/lT8VOw1XkqrRuVKX1fekid/9buvK/LWdzqgS/W2SvAl657XSZ0nXf4KyGVez1skuImbcqT6uTgKFLXUR5p9mRfQpBKHKvXNTjpSZyYXWMukgBUzd96UH6Fgvk13NpSjmXiXR/o7EpKIdwZDxFIb3vfe+rWhuGBESXQxchbMrAurRLY1rt2DOLm5j1+5Y5UNdLBqXcJ+j3dr5MUQjLjPj//mb4i+OOHf71P/59+OV//9fwv0WK73LoIcPtb7t3mRSyQHqDx50K7P1emesun80Ydi7g6e4qmqT775T7TgVoTRrVZeeWOJoah5blcisrnkb7uNtgXSw5KFc5qcmVc07rvnsz6sJyGTp1bchbjBNeSVnRXJcHARtXaPI9Y//syX3cBnDjb7HuAcIMHUSxghOes3VTuqywcKg0SjoXOl2llKdHMpGWqgUdhXKPe9yj2mEMLdQBIwjD+Im/6aW2x7TcOODcSo2TXTFO2VFpyZR1i8eXrnun1c0BIKm8ASX8gBPkAbnb28+M8mJ+wtGSGQpcLM5MFUBlIhplABQwYorZeExgbn/4Oeecs9GYy2IxoIe7cjhw9TLrbofJ05/+9NqVNxNsiORpT3vaeGDwyslNT+nWcgA+ZBE/v8ASdsAUQzuve93rapAwBYjClFBwJ+8LdZ86gMpwCAOiYTolxXezaaA0C1+utJsgXf5pdRGStn5ffhxw0IXPUNizrSI5Q8HQTxbaL78U9xQtNAeiccKJVgs18+4cBPbGaZ18lpOXgOdiaaJTB9A2I0DRe8YznD+o9XACDDMtisxn4mmhC6OHt7I4QNt0SAvwVHnIzimnnFIb2YyNrawc9dRuDQcCmo6pSw/Wll7k8GfykS782rVrx+49+1Zx875QNFUAJeTRJNN1l5GAKg3UhJItntz6FGm00MVSwReKkT2cxeeAsS89Ew2srZf2udM0dN8Wq4Isfq56DPPlQEAzE1kwwSEhztrVKyEDQNZ31xw1GcVsMRvXqQNomNVmygw7QAWuj370o+tyiQCt76gj9p12bA6QExXGsiVAetZZZ1WGkJXeS9kxZMPqnaxwoW0C0Ve+8pUVM8gA+fClUTIRjKGg5XmhuTRVAG21hABiBJ+dTNJC7WP2TuNwCoxTdtL6LDQDengrhwPGtsgI2XnoQx9az1IlP4A1Y+UrJzc9pVvLAT0NazyBpguQwoYvf/nLtesuPAdEW/uJ2APZKGPVcIH/lgxAs64zgg8wXcYxjjjiiLrLR+VQYU477bRRHcc4BFxbmnxv7frzyuDAZBlmzCvaA9kIYNqyichMZGJl5LKncls5ABDJgjI3WaTcX/ziF9d3ChbZsJwNYAJOxA254mcxaKoAuqUM0DBk1DionSXXLGc6MvNdbwcuozACI8Mk5gFkz51WJgcyFp7eiUqijJW58mbP7uCDD65HH8qlShWZWJm57qmeLwd035W1SUTy4Ig6p7dZME87NR6+Zs2aGlwaY/IBGxarkV1WACqzyDjGkUceWQ/HpXVYvmIsFBMynoEpUc0Xizk1Mf1vahxI2SpXQOke7SHgqawf9rCHVRlRiRC7TqufAzmcxxkUANNBMp7XrVtXu/aGdXLmZ7AhXEmjnPeFui8rAJXp+j2bkjun1TvDT+Uw62aLlk8KIKq6lsiFMR1AK1tWxV8EPb0L2kbKV5feDPwBBxxQ86r8yQKK+/rS/1Y1B8iBWfdPfOITFUjhw3Wve936eXEygTJnEtnJ+0IzZlkBqMxlT7xnp4/bkgVYVZCsC6V9RvtQ4TKOyk+nlcsBZRoAdXcZwlFhlD97B3Dr2jND0T4nNY6Vy4We8rk4QCaA4ctf/vLaNScHJpac+ZnT0dJ9F05wYq4wt8duWQGo1iLdeM8+Q2pWjZZBfffpY2MeKpCWBvNScdLSbA8zut+l50DGsqMxGMIBksqZ2T777FM1Us8qCvfkIJrH0uegp2CxOKCMyYGVOe9617tqmZsroYG22zbJBKAlF5Enz4tBywpAk0GZB5LA1LpQz8wAqeOq7IFGtJIA6GK3NElbvy8eB1oQTGUxQaCHoZyZeQ9F+yQbnVY/B9R311/+5V+OipaJJTsYaaHT1DzD7WUFoIASqSwYo/VYW7ZkqUAqDxVdN94nhVFal2gi1bD/rVgOpBcRbQEwpuyVscpjSIeckI80ntFWV2zGe8LnxQEN5jvf+c564Lq6r/w1qDCCAsWMjCBuIxeLiQ/LCkBlXOUx7qVFQWbbXvCCF1QzjLjKVa4y/Fn5KiPzaKapSNVD/1uxHIhGGcFXrk7zVyk8a0Rjp2sf6uUfTqz8expPDSRSz5HGldnzn//8+hywfPKTn1yxIpOJkaHqacMft2RnMWhZASiAVEFoHUDUuyVN++23X10bionMVSqnkevKqzyYxm2nzoHOgZXNAfU5PQ85yZwIZemEE04YcpAIYPX1Xl+zsFKjbVCnyYFlBaDRJLQWGJfWxHKmY445pqroGAU4X/ayl9X90Bn/it9pMq/H1TnQObCwHFDnaZOp+9FAHaB99tln14OGdNspUs9+9rNrF94E81LNgSwrAMU0gIhpANGVL1/aI29WnjrODYa96EUvqup8y/CFLc4eWudA58A0ORDlSZx6nOlZvuQlL6lYcI1rXGP4/ve/Pzz2sY8d9t133xE40/WfZlrFtawAtCaogCYK47K2C2ja50qVt9sAuDrGysn1uvydOgc6B1Y2ByhFrmif6jrt8s1vfnNdwmjJEs3zete73vDEJz6xZhbgUqAyNj5tDiwrAA1o6r5ngigM0cL4AuPjHve4yjA7lqz/cpiArZ6dOgc6B1Y2B9pueIbm1HM9TXhgMvHiiy8enve859W5keSW28WaJEocm7svKwClVQZEMQRDAScGZWIJgK4pBwaYjefGN3JOPvnkcbZucxnt5p0DnQPLmwPqsyvL2Wibr3nNa+phQsY9De098IEPHLdsptsejXUpcresABQj0gppbTCSag5YMdMEEnsz8O7cGxM9/fTT6/dQloKBPc7Ogc6BheEA8ERZy0nbfOlLXzr4mCDwtLTR9u7MzMMGM/Deo3gtTErmH8qyAlDJzlgGcAyjmANPjMXkNUUDfcxjHlOZx4xb68HCRMwOEBsfSYsmnE6dA50DS8MByw9D6aK3dTN1NorUox71qIoB6jBt8/GPf3w94lIY0T5zQlPAN+FP677sAHRLGQeYwFRXfvfdd6/joLRTe+T/+q//unoHvJgOSI2duDx36hzoHFg6DpizoOQAP71KBCyBKTP1GKmvepX2vHOvl7nnnnvWA0OEAXQDtp5d/CwFrSgAxWwqOzImYlaemg9IrQ197nOfO3znO98Z+QhIMdZH6lptdnTQHzoHOgemygGAmF4mpQZ4AlNm0Sa/9a1vDZYtUZaczsbdU57ylMESJhTFyPNSaZ7iRisKQDHUsiatlW1d97nPfeo3wQGkb4S7O1jAp05pqUi3wRmSbVehWvS/zoHOgalyIJPBIlWXvae7noRYUfPwhz+8gqo6bufRIYccUteAq/f8GAsFusLgn5KU4buEM637igLQtDZaK4zz7mQW2z0tuLdO7Atf+EJd9oC5SKu2lCr+tAqyx9M5sNw5oE4CPt1vdTJKDo0y9fWZz3zm8MMf/rB+eVV3Xe/S/nfErwsBUgCbrrxu/lLQigJQzMNslDEP302yjMl7VPtXv/rVw9/+7d9Wd/ywC6OrYf/rHOgcmDoHogABzwAezdESRQrR3/zN39SNMRQkbtm94Q1vGLvu6jEtFHFPE02YU8/MhghXFIBqpYxl6pZjpvFQTL7HPe5RZ+UVDC1U6/SkJz1p+PGPf1xBlb+lZvRSFXCPt3NguXFAXaTYmOiN5qnn+JznPKcm9Wc/+1kFyGOPPXa4yU1uUp9NMFGC1PcoQ0AURamqL1P+W1EAivGYl9k83XOtlUKwPuzWt751nVSKvUW3QBajgWunzoHOgaXjQLrf0SJpobTPX/ziF8Nxxx03/OQnP6n12QTx3nvvXQ8QSjffXf2P1gl8gSlKuEuRsxUFoBgVTTJdAO8AEpCecsopwx577DFqpmbz0qqltcLkLJdQkGnNloL5Pc7OgR2JA6lruesp0h4tlr/gggtqPaYMmRD2FV6U+j7JJ8AbDMh90s003lcUgG6JIb7Md+KJJ9ZWTRcf8307xWEEnrMESmumoIBuFvcuZTdgS/nq9p0Dq4EDlBhKCy0SqYPnnXfecNppp9UeInOTwY6qBKIoyk59WYZ/qwpAddPvete7Dve///3rGKkCAppA1aJcXf4cPBKNNOtDc1+GZdST1DmwajigjubSZX/CE55QlyZSaixZesYznjE4ujKaJyVnOdOqAlBaJ3JC081vfvO6TAKAmkwyxqJ1s+TJ+AnShcgYajXof50DnQOLygFKjKE4G1+OOOKIWhet21YX73CHO9S5DGOb6S1SdJbz/MWqAtCUvNZLt0CrBiCvetWrDu973/uGZz3rWdWJMROFoiAVXLoW8d/vnQOdAwvPgXTH1TtrOy+88MJ6mhqlZtddd61zGHqN6qceoWfUAXThy2LWEDE8J9hbH2osRUHQOO1Gss7MFjGAGW01hZOB7VkD7oadA50D280BCo0lSmeeeWZd76muOpbSgnhnfq4phwSZkUdANABqwigz99udiAUOYFVpoICxPcHeeKgveP785z+vE0u6BsZDTSwBTqAJSGmhfQx0gSWrB9c5MAsHPvvZzw52G6lzNFF19sgjj6xzFzRUmmgmdNmHMiaa9+VyvySFyyVF25mOjG8qGAXhCKzDDjustnLeAeyf//mfDx/60IfqQLWC7NrndjK9e+8cmAcHPvzhDw+PfvSjqzIDLGmZBx54YD0UiPdMGFFm1FXKDXeUHW6XI606AKXuZ2kSELU04qSTTqofoFIAWjL2T3va04bPfOYzYyvITkHpNgRQaazpOgDaTp0DnQNb5kDqTyaC+Dj//POHtWvX1rrFXj28/e1vXw9Hj6apvobSI9Ttz3Bb7JbTfVUBaMYz05KF8QapfRpgn332qWMswNDMPO30e9/7Xi0P4zHcC0PhpgUUllOeUsjLqfB6WjoHlhMH1BlKR+qPGXcKybe//e3hEY94xDipaxx0r732Gl73utdVzZL7lUqrCkADmAokGqMlErRIZwkqsOtc5zr1LFFdAmtDH/nIR9YtZLr2Wsx0H9yFw6wfh7dSxbune5ocUGdS7zwbTjNBZC7CPIR3XfJb3vKWw7nnnlvrV5Qd5iuRVhWApvAAaWbwHMiqVfQORD/ykY/UboR3dt/97neHAw44oBasFlOBK3ykRWWG2u5FNeh/nQOdA5twIHVHT8510EEH1bpHYbH2kwLz7ne/u/bosiOJRqqrvhJp1QFouhAKLCCqoAKACljrR6vkVqvI3X3ve99awBmsprXGj+eV3M1YiYLZ07wyOZBlhMDz0EMPrYoJ7dIOwBve8IZ1WzUFp10tk22bKzHHqwpAFQxQDAE+WmRaQ3Y0Sl2Iv/qrv6oAqSC1jJZXOAKPW2SgW3juuhnC6tQ50DkwNwcoKHqCdhnp3Rn/NLGr92ddtsN+onmqmxSTlaycrCoAVbRAT8Eg3QIFykwh0S5jd+Mb33h4/etfPwKsI7SA6gtf+MI67kkIos3SUjNWUwPuf50DnQObcEDdUm8sE/z0pz9dFRM9PUNl6tV+++1X6yClhKKiblJevK9UWlUAGqBTMNEkMy6qO55CU1gA9eCDD6775mmluhl2RfgaoMIGvgBX10ML2qlzoHNgbg6odz7saKeRHhvwRHp29773vetzhs0oNQi4qosZbquGK+hvVQFoC3QpoHb5EbN08WmUCs2hy9aJWhuqJWR2xhln1CVOZuAtgWqp7cqbcAoB706dA6udA1nbGXlXZ9Krs1TpTW96U2WBekIJ8c2yrP9kQSmZbcIo8w0rjX+rCkDnw/wAau787L///hVECQeNVSG/853vrDuY2APVaLJaywiMsRyCwl8L3vx06hxYjRzQWyPz6kHIs91+73//+2uXfE3Z0w4QfTX3MY95THXWuo+/1XDf4QC0beky9uLLf/bjPquc1mQsVLddd/8rX/lKnZ13wAHAtaYUuLpaQI1QrQaB6HnoHNgcB6JIkH/dded3AsZ73eteFTx9j0z9MXlkHPSEE06oq1xSzzYX7ko23+EAVGGlQHXpIxSA9eijj64HvF796lcfZ90//vGP19aVUBiv0W0HplrhaKsAtk8yreRq0NM+Hw6oI4bAyL1LPXLurg0pliLZsUf5OOuss+r5u9zomWXYbD5xrDQ3OxSABjgDmgqLUOTds+2dNFED4IBRSws8jzrqqOFrX/ta1T75IxgRIq1uuvXsOnUOrEYOGPdUH9STr3/963UvOzPAaQ7BkJYjI62pRhkmW83KxQ4FoIASBTTrS/nTJUlhE4g//dM/rXvnTSDplhAO60SN8/zgBz+o3migmahiIMxOnQOrmQPAE6kLJowA5z//8z/XRfGOoXvb295WT1dKD43CktUwq1UL3aEANCBn3MZzuiMReholMEU+L5AtZ1pQ3XfdE59O/uQnP1m77BdffHEdA+KvBdOE1++dA6uJA+qNI+lomN///ver0mFGfbfddqtrqG9wgxvU+sCdOuOuXgDR1KvVxA952aEAVIGmJdRKtponcy1mtFMa5k1vetPhve997+B0e0JAKFxry7Fcb3nLW4arXe1qNbxotqtNOHp+OgdaDrz97W8fT1VSl/TWbEixdMl33LM9M9s5+VWvgOhqHeLaoQBUgW6uJWQeDRUgAkr3613vesPZZ5893OIWt6hCQNskDE996lOHV7/61TU8fiMg6bJkvNV7zMTfacscSCPHpYbOeLONDq5o+uFvQmv9xKzfZ+cAuSaTGcN3jxJAcQhv3bPu06dwHIaMuOfflug3vvGNtY7EHfsAqefUt3T/ma0m2uEAdK7CC9CppMA0gKpr8trXvrZuRbNkSaVWYS0Stlwjk01a5LS2WmhCyS1K2HPFv6PbAUiUSoef+KZxYmYfta1/zFI2ysEVPzs6D+fKf1aO4B05JZvk1J0Z/qfrbXyTHb7aRXTKKacMVqcgQ1eGuD74wQ/WiSNAq17siNQBtCn1aDcBOwBIkJBuvB1KPkFgKRNhoxnp1vzJn/zJcMEFF4yaktZWRY9wCjdhNtH1xwkOqIR4jndAU6W2GgIf8drBFOxTTspGBXcx7zQ3B4BjGnQuySQ5TkPFHumC47uvZu67777Dl7/85bpsz3fcNVYPeMAD6hAWtyZame2o1AG0KflUQhUWqcBm4bWwBM1yJZooAbrc5S5XhcoM/Re/+MU6NqQ7Y1CdAPJHWIVpAT4A6LRlDoTnGiFASbs3eYeMOeO7CqtMlAeiWbXAUA3736wcSPebJf6SV7LpOXIPSO1nv9Od7lQXy1swz0wD96AHPaja4Tc/eM8udWfWSFexYQfQpnDTktJoVFCkQhMsgqbFJjSvfOUrh+c85zlV8yE8zH70ox8NzyrrR5/ylKdUc6AZ/2bwE3Y17H+zcgDPaZ7pamqI8PeqV71qraBmfqPxKBNXNPtU/lkD7oYjBwJ8o8GGBwDIjqLwuMc9ru4i0hOgnSoD8n/88cfXz4LzQubJNDuknuyI1AG0KfVoiW1rqjITIkRoECFbW2bi3/rWt9bJJf7i7rTTTqufMKA1ae1D8Zv3ft+UA0CQ5qlSqsy0eDtddCOVgZne29zmNuN4W8qJ+zxvGmo3mY0DaahiBwy/9KUv1XMh7L6zvlNZUCaUwVlld9GjHvWoyucoF3ieZ/K/I9KlCgNW7mF8i1BiBGFzrTSNyAwjYdOtMaju43TPe97zhne84x1VmFRmwKnFfvaznz3c7373q60zYUtrvQjJXnVBZmIOH/GaRu9zEDQdz7T6EBF2KbdOm+cAuU3viubuGRnb/MIXvjA88YlPrMoB8LQ86aKLLqrySykApohWqmFLWMwMYxla2RGpA2hT6iphuoJAUCutAiPvKmgrOMxctMs3v/nNtVtvYoOwAUyC9djHPrZ+QpnQddoyB/A8lbV1jc/KBl+jzadB425z/towdvTnyHB0JvwElgDSLLuJIxOk9rUDSufiPuxhDxuHruLfkqXMumdYK3Y7Go87gC5gidsffET5lIGxOkKa8TnfgjHBRINqW35uXIA5R+IRxABEm7QdVUBbHvTnuTkQMOOqlS3v5Ie9XlDckVdfpfVpbzJII6Xt3/GOd6yN/m1ve1tea6O1o45xVgbM8df7PHMwZ2utbnSjG9VlTc5BNGZH6zRTrHv0x3/8x8NLX/rSGqRWnnZKA6BFIS06oQ94EviMvbLv3VNc6DQXByI75IhskRnPaXwzhET+nlUmPA855JDa2JNB4/gacYfpWGkS8IwM0vw7bcqBroFuypNtNiGY+WDWG97whuGZz3xmBUprSHWVCLDnE088cTjggAM2iqftFhnj4zbDB8YDs2RnI0/9pXOg4UA7jGEsn9YYzTFDSt/5znfq5o9169bVBhroOgjEp4UB5z777FNXPQBew1UB3WitTXT9sXCgA+gCikHG5MzAW25jIbJTayxEjiASaK26T4kce+yxg8OcCbfuUwuikkVzoEm4OnUObIkD5CiAya13skPejGn6XpHj5oBj3On5WCZmu7JtyyErTTTgk0Aa+35fz4HehV9ASTBDTwsAnlrsa1/72sO73vWuergsYdRtB6QuXwS9+93vXnc3JQmEmSag5UcAlQCjdKXqS//rHJiFAwFFckNevJNDX5sla5bdeTdjThb1luxv/8hHPlLB0/hnKL0f8tcb8HBl03vXQDflyTabpJsTTYDwuYxFOZT5+c9//nDuuedWASa8uuqE06EMFuZb58itcFxZlwqUuYsWu80J7B5XNQfIiS55gNTRc8bd//7v/77KD5mzwkEDbT2tDSGW4kXbDHN0//V+In8x7/dNOdABdFOeLIgJACTIgI8wekc00pNPPrnOfNI4aQu67wTfQc52MtFgdbloCpkI6FrAghTLqg4kQGh809Ika5PJF20SKNI6HYzjJLF73vOeVS419u2ysUw4hVFzrYuOmx353gF0gUsfUGrhCS3h1JXS8rfaAaG0Lc7SJuAZDZNf3f4nPOEJdf2dpKVSTAr2Aie7B7dKOGAi6PTTT69fTiBbekBkB0j6QqbvfmVNcnpKsp7n3JlF9lp7z50u4UAH0Et4MZUn4JmuuK7VqaeeWk+4J+i6TGbcaaC3utWtqja61157bZKuaLNZttKGGccqAu01mqvw8xw3/b70HFAuocnyAXxIObbAxowMuMiMBtunZhyt6LtddsfpmvNv9cehhx46PKssW3JAeKeF5UAH0IXl55yhEfRonISfZoosebLr4+c///l4kIZlSwDSN+uNjwJV7tuKpILQXmkX6eoLr62INGDvbTeNm07LgwMtgFoGZ9iGmXJry1UZpqFkl/FJR/wZEnrf+95X/dkJZ1ad9ghEn/GMZwz3v//9l0dmV2EqOoAuUaECPxUFIKoYwBVQOsjByU7eAaaKojIcUNaNWhLlDljb7lXCAaLCdXmOhiqLqXxLlN0e7WY40AIokEyDOOncWKYx89CnP/3p4cUvfvHwiU98oo61a5gBsHXGxs99q/3pT396PQJQmOzJRKeF5UAH0IXl55yh0TpVGIKcmdJ4YE7QP//5z9dDSL761a/Wrj6A1a23VfjhMgAAQABJREFUT5kfXfuHP/zhw13ucpf6Thsx3tpqnW2Y/LdAGrt+Xx4caAFUo2l4R+OozICextDkT8YtreM0xqmrrnHlnz33np3arzdj55vwmM8mG8sj9ys/FR1Al6gMVZJomS2YAlnLmxwt9uQnP7nO1ptYsjifHbBUYWwbtRD/Hve4R82BsFQ44XKnK5hunzu7TsuPAy2AtkCnMdX40TqVrS/EOvVL+Sp/wIpopsD1D//wD+vko4Y1Y+waauEL1/riq1zlKsuPASs8RR1Ap1yAutKEuh2TVFkQbSFgqvIQfIucLW0CoCoSbdSCfReg9UlZi6EPP/zw6r8Nt83aZBewtevPS8eBFkCVufIPkOqK23BhtYaJIUM6FrtrHLkDpLZeOgDZ6fGAM4BJzjKM046ZLl1OV2fMHUCnWK6TgkxTBJqhjFMaywKErZ3PK59wwgkVRH/4wx/Wca6cianSmDhQkW53u9sNTn9CKhiNVWXLuGji6vflwYEWQKUIeDrNy64hn87OGQpkItooOXLI9DHHHFMnGQO6tFPPuYTHjAzkzqzTwnGgA+jC8XJeIdEygFm61N5VooBluuIBW+8o7i2O9nG7f/qnf6pddXbCU2n4oaUA0Yc+9KG1cnmPVsJtp+XFgRZA7VJ7z3veM9hBpCz1MgCfhtaqDDPsd7vb3YYjjzxyuP3tb1/LPLmJ9pp3jTGZAci98QxXFv7eAXThebpoIbYaK43Uh78+9alP1ckn42DZvaTC6LLr3tsD7VR820WjqUhgANqzcHX3XIh/lPeAPv8xY6/yu1ozfplxuxJJ+oFOutFtHuRr0jw8iHnu/AkrvIw5XuXZ0M35559ftc33v//9tfzYZfmSIRpAaGZdr8IqDc8mFMWrXNLwTgJom+7+vHgc6AC6eLxd8JCBImBqxznN2tt98ra3va1qKdyoXMbDgKR34OrUJ1tF73znOw83u9nNasXmLhVQYr2nws8FgMJF4gAIAFhF18WcBCB2qI2nGizjP3mQr/ADqKWRAFTyxCyTNckKQKT1xS1zYQQw485Bxg74sHbzpz/9aTUWpwuf8FK5WftrUmht+f4WjbPthgu3A2g4unT3DqBLx/ttjlkFVoHSraepqIgOh7Au8Fvf+lY941EFZGf8zDiYZyD3R3/0R8NDHvKQqp0CV2OlAJObkPBdLQUcAcQkKLTu2md+UAsqrf1qeZbP5BGQ4mcaDWCYCSE9hgsuuKCCpYaQW+XpWXnqpus56DVo8DKePcmngHgaujb+Sbf9ffE40AF08Xi74CG33e7NBa4iqaSvetWrho9+9KNVS1E5o9GoeDQZY6sA1mQEML3rXe8662L7tmLyG1AQPw0oY7TAI7PA7OYLsNwuF8IX6Q74TeYB2Mlja44nGhpmAdDcrZj45Cc/OZxzzjl1g4RxTI2Vcox7/PUMPPUOfM3g4IMPrnzmDr9dKYfExyzpSGOXeJcLP3eEdHQAXYGlDLRUqFRmzyq/CSNAqTK6aD0mJXTvv/jFL9bKq9JZgM2eH91F7zTTA8ouJ19j3G+//eq+actlULqtgFhcKmw0n7BPmoTJnvu4iTtmeY6f5X4PMOWexkNe5BMv5SlAhve0f6DpnANddcvPkneAis/4iF/C88ngBz/4wcO9733vWn7CBZLt8MBkw9XyTdr4AZ5JR2vfnxeXAx1AF5e/Cxo6jUTFiqah4gSoROQ5lah1qwJaR/imN71p+NCHPlS7kCpv9l2rzAFlYQNC2pLF2fbim/l1DFpIPMIEDNy3lT1uAjBJz1wgED9LfZdm5J7040VIgyOvaQhopL539bGPfaw2UBop+WSOn/iEz/y4C4sGarfQAx7wgAqaPjQYsmTJ/nWkYROGRjHvk3wWvnQmPdVh/5sqBzqATpXdCx+ZSuRCKpOKGgJwATnmKqV3WpJJDGsNjbmZ1QWExkq5S4XkVpgIEB500EGD06Es2jYRFSBPPCq8cdSYJx3u0hgwbc1XwrP8AUXao+VjH/jAB4a/+7u/q59swbPkDX/xyzseAky8YCaMww47rJ6MdOCBB9ZsCxNPAGPCYAFk9QpSlkA5vBMetykX8cRuJfBytaWxA+gKK9FUHpUm12QWUolVtlQuZt6BXLQqFdVpPsZKLaNxaj57FRapwPyggIDwmAHKq13tanWSQzeUJmVyyriqiSkENKQ36UhaquUy/JNWl29b2ayAN9/85jfr5YAX37ZKXvADn7hPObDzjoDtda973Tp7bnxZwxNAnC3r+I5fuvctn1Ju/CSuyWfvwJjfTtPlQAfQ6fJ7WcdmvE43VDffaT/OmGwnPFRgIOFC3lXwPLurxLqhe+6553iZSQawNN2ASAsGwshYrDC8B5S8oxZI8p64A2oBHmDEjmYXM+CUdMfMqgSNBq3SBwC/8Y1v1DzLN0CKFig879H2wgPhiEfY7kDSelsaukNf5DfU5jdm/b7yOdABdOWX4YLlYLKSX3TRRRVI7Yyx9OYnP/nJCBZAJIBCE3MZrwO4wCTdV2FyB4xopte4xjXq2Or1r3/9qr0CWst2AmpzZQbIijcgPOlW3Oxae9qk8d+LL764Dl2sK5+7oEn6vK/hC+njPnmJJigPLvbyIv2AUj6BqXTIiwk331e/9a1vXceUNSAZq4yGGo1/Mr39feVzoAPoyi/DBc1BtKkAZAJnDngAqUmTz33uc3WfNuDTXQUwAA64AB7vQImZyRf+vev6AxnABGCYI+8mroCNC6glDQCJmXjExy2gA5gucQiHG/FndQG3LvbceUbu0uJKOqQFMUt83gOo/Ei7j7E54d1xcTYncB+g9TwbSRs30tdpdXGgA+jqKs9FzQ2QAWougOBkIN1e3X4anTFDp+o7Og2IBagCSLRBflFAh5togLrUQMjFHCUM/oCZ99hVBxvcMAOGwo3mF79xD8DYu4Aa98mPu3dusnPLKgTLumjLxnutREhY4ubee/IEqFHMWkCN2+qg/60aDnQAXTVFubAZUeFT6VvQEAsAQgGO+rLhj52xVJMuZvuNLwJZS3RcQDAaY/wlLsuqAm6xc48GB4hjHwAEUkAPCANoblzSDEjFJXxpZeaZH3EZOgCSxmh1x02GXfnKV65gOZnnpCfxC2O2/Medu7jQ5sKqlv1vRXOgA+iKLr6FTTxwAwqTmlNiCRAABkDizizumXmPu/jLXffash9A5+6yuNxlEboxV3eaqMtGAJdn5vwhaQSYhgkAoVOLPDtow50G6ag/du677rprHR4wRGAYgL3x2skuNVBOXoCvd3kJ+MYu+Wl5wJ1hgoB53LjH3aT/1k1/Xpkc6AC6MsttUVLddtFniyCAOZsdM/6BxCSAAhAX0ENtOEAKcLMHbrMR965JjY+f1mxzDQB30tXGKx7mLiTNAbjJcNlHk81wA7O5CC8S32w8mctvt1s5HOgAunLKamopVfFbYGlBarZEcO+KuwBTC0rxx47b2cBqEoAn3c4G8Ilb+Im/DYc9akG99cM8dgA4Wqm4M9vOLGELS/iTeeOeWeJr3fPDftKMeaeVzYEOoCu7/HrqOwc6B5aQA+unRJcwAT3qzoHOgc6BlcqBDqArteR6ujsHOgeWnAMdQJe8CHoCOgc6B1YqBzqArtSS6+nuHOgcWHIOdABd8iLoCegc6BxYqRzoALpSS66nu3Ogc2DJOdABdMmLoCegc6BzYKVyoAPoApachdehLKj2bstiKG7swHGhmMVNv3cOdA6sDA50AF3AcnJMmx0nKPu2bQHMd23sleYG2fViNw4QjVm16H+dA50DK4YDHUAXsKhomrbrAUUHVtBCnQyEHIaRZyAbDTWAu4DJ6EF1DnQOTIkDfSvnIjGahumzGD4Z4ag0X7ZEThZyShDtE+BGO12kZPRgOwc6BxaRA5d8wnERI9lRgqZVOlDC98DXrl07nH/++fUUc2Dqg2tnnnnmcKMb3WhkR04nYk9zzQEbo4P+0DnQObCsOdA10AUuHiey+z6Ocyzbb+44wed+97vfcM4559TTfNpTfwBvB88FLogeXOfAFDjQx0AXkMk+Y/Hc5z63nsbuVHaf+KWJ5ri0c889d3jXu95V37lFNM9+zNkCFkIPqnNgihzoALqAzF5Xvvh42mmn1Rl245wf+MAHhjPOOGM44YQTxgmkt73tbfVgYd13WinShe+TSQtYED2ozoEpcaAD6DYwGuCFLFMKvexlLxuB8Mgjj6zfBteVP+qoo+qJ5j43AVTR5KcfFksLNTyQK+nc3L3NFzf8TRLQn3SX9axpEPhJgzCb+8kw2/fNpbUNu3XfnzsHlpIDHUC3gvsBBeCXCm1pkmfjnW9/+9traOwPO+yw2lX3HZ58r8c6UMuZfF8dBaCmNf4ZcNrcvR2XBZIBxprYDX80Z0MSZ5111rDXXnsNe++993DSSSfV7xqx++Uvf1kbiwxRMGvDxcPNXYmHPZ6G38yF06lzYLlxoEvlVpSICg08XAAmlZoW+vnPf75+0teieF969P3wEO1yzz33HH74wx9WcNHV95lcJKzF0j4Tf+7imi/J22zuNQB3vOMd63fhpRtPrDb47Gc/W8d3DV2g8CbxcTeffIpzskFJQzNbehJ+v3cOLAUHuga6FVwHAKnELRgAzXe/+911R5HKfvDBB4+h0jrRVa5ylXrn3+d927BYtNpWdbgIf+KY6xJltM7kk3vaIHNa9nHHHVcBk1YdYPMs/2984xur27h3R8Lgf3Oab8yTtuqp+WPPrlPnwHLjQAfQrSiRgKbKDDQzFkhj+tCHPlRDoo3e4x73qJomA+DCbOeddx41K1ocCkjVlyn8Sf9clyTIS/Lp3TNtkvl3vvOd4TWveU0FQw3D85///Aqonrl75StfWd161m1P/tp3Zpu7uHMBW+AbgGY2qZVKW6fOgaXmQO/Cb0MJAM52/zpAtONIxVfRLZpvu7AAhnv2KMACIDy7A4nFpvlocdIRjU/a2nSdeuqpY8Pw5Cc/eXDZTWXlgfvnPve5ejBKeCM+/MAv4STfW8ondy7+pQXfPGuEOnUOLCcOLH6tXU653c60qMwod1qW5y996UsjON7sZjcbLn/5y1fAyAy9ip+uPP+2byYM7/MBNu62l4DYli5xAC/pC3gCsH/5l38Zzj777ApiV77ylSt4yr+83vjGN65J8/6Vr3ylgmirQUaD3VLciTPugC+/ALmD5/aWfve/GBzoGug2cFUFj7YJKC644IIxlOtc5zoVELkxQw9E3S2sBwj8mWgJSPE4LQDNEqoxsRMP8iKt0kNr9CzNF1988bCuTHwh6b7iFa84fPGLX6wgy16DADzl9R3veEediaeRsuNe4yGsttGogU38cR/eOuKPe3Hh6W677TbO5k9466+dA0vGgQ6gW8F6YIBUcpUdqeTf/OY367O/m9/85lVrAkLcuTy34LHrrrvWMT7hCQf4IKCR7m81KH8BaoAWd7GbvCdO5uITvuVEu+yyy7DPPvvULvakn/YdyAHB5FPagGpLwv32t789Ho5ijBdAJm3WwhobRQmv9T/Xc3jFDVCWdmnBg5/97GcDzbdT58By4kDvwm9DaajoIcChe4tU9qtf/eqxqveAqJl3QICAJLcBqmq4wbzt6jMHYi1Axe1cd0Aa4AOetEGnQG2J2iEHQJkwdNORtAA1wBgSFwLw7d2zvONP67462sxf61aahR2N3QRWp86B5caBroFuRYlEwwuARsv7/ve/X0MBMNaAIuAY995/8IMfuFWyuJ7bEHfegVCWBzFD4mIGzNqJqfht79KDAtreLWwHgG95y1sGe/HnIuEDUQAPwACaS/7e8IY3VDDTlX7oQx86apzSbB3oRz7ykRq0CTTLuJgLL3ly3xKZjDPWyR9+4CGt0xKw2972tlvy3u07B6bPgVLJOs2TAwXENnKZ92tf+9qQa6YA10zRlEY3sS+gVO3Yl/HPmQIUo5uiYc2wD8VP3t0L+LSvcz4Lrw2/DAvM6X7SMvG3cZb9+zMFSGseH/jAB86II8Rd6bbPFLCreSwz87Gq9wLEG73P96U0IJUvReOdkYeka77+u7vOgWlw4JK+6PSxe8XHWAqo5sEkC6I1ZsG893TRbd1k59p99903GeeMO36iqem2p0tdwIPVvIj2SYPU1Ua6z55/8Ytf1HFRad7cJW7+ETe6z8gOqqTL4dDcsJcu2qLPl3iXv+QlaTaEgPjfXLwx504YxoKFQ/ulfcsDN506B5YbBzqAbkWJ6Faq4C0BJxUeqeztCfMBo69+9asjMF3veterboUDFLiJu4Rhxj7AoSvteT6UdAiPn7zrFhs22BLxFwB0B4LSafwRiJkRN0mG2MetA1OsLOAmY8AB0MTZDlnEbPIOsKUBcCL8kf9OnQPLlQMdQLeyZKKV8QZAjDGGAAygUPEDtO7WiQZsnEjvmRsXip2wbJd89rOfPdzgBjcYrCk98cQTa1hxm7hmu2fsUpzC9C69Ltoss7mugBzw88w/QLPPn39pW7NmzagZs0MXXnhhneji5vd///erWbTGAGnAea74o3EnXG41BMKIWQ28/3UOLBMO9EmkrSyIFshU8Gh5gmm1PCCm0nMPYNxpVgCIvwBtG71u7l3ucpcKWMy5M4HzhS98YXjve9/bOt3sM+ASr/gBpy62cNKF3qzHDRbc8stfyBCEcAGcRfOekTA9Gx4Acvxc9apXrXYBPOFJx2z5rQ6bP4CNTCbxDzz56wDaMKk/LisOdA10K4oDsAQ8AKJK3i4PCsgADRfixsflgAPAuec97zlqrdwAh7g95ZRTKngaR33BC15Q95kbX3z/+98//O3f/u28Uprur3g9J2xg5HlLlwZBPqQLyaclWAiYpZEwRht3dh/l+Za3vOXYqPAbf563FLc0I+Om0htqwTxm/d45sBw40AF0O0sBqIaMNQawgA07Y6Q/+tGP6t04Ya74CWgAmL//+7+v/p0l+pSnPKUC6AEHHFCB0DDANCjpT1y0QWBKiwTssc9do+A7ULRT47/yF02Sm+Qv4fV758Bq4kAH0G0sTYAHIAFLiKYEONOtZ/+tb32rdnG5ueENb7jRJBP7AJHwrnWta1WN7+Mf/3jtxhpz/MxnPlM1V7Pf0yDpR9IlfbrnyScADSByRwv98Y9/PGqra8rwRPasy0/Cae/VsP91DqwSDnQA3YqCDNjxAiByeWdHCwMwASGAmgXmurj77rvvCEBtGJ75+9M//dMajq2hwOomN7lJjcPWT4cYT4MCkLkDcSR/wDHm6VabYEK0Tg1E8p4JIXYAuFPnwGrkQAfQ7ShVoNKCakAjICLoD37wgzUGdne6050qwNBagS93wCXaGpDMjh9dZ91/XWKnIF33utfdjpTOz6u0JD/JmzFYJK3tEAUz45SGHYy10rp9zjl5T564a5+9d+ocWC0cuGSqdbXkaBHzEXBJFLQxmhhzINFOvHg3wfRP//RP1TlgcaAHP+3EUfy6s/uTP/mT4f73v//w4Q9/uALTXe961zpMANyi/SX+hb4H6Nylx5VlWp6zJ176o4Haxpl8//Ef//EIwJnMkkZ+E+ZCp7mH1zmwlBzoALqV3A8QAAUEKAAbrZLWiDwz/+QnP1mPsWNmAXoWmUdLY55n4Xo2A+3ZqfaI5qr7Pw0KQEt/AJIWjJjRQKUt7hyiYoyXmWEGeQzQJ1/8cs9Np86B1caB3oXfyhIFBC0YAIqA6eSuGcuXop3d7na3qzGZteYeIAGbLVGAaD5utxTWluyTjzauDEswY+8OEN3XlTNCcxLVTW9606qhch/+5C7ehL2lNHT7zoGVxIEOoE1pTYIjqxZMvHMDBGPu65rAEGW8kPYJON/znveMS3ruda97VTfp2gLGaHIsAk55ro7LX8CqdRu7ue7SGMqqgIAh86Tfc8A8gBfQZtc+G48NEPLz0Y9+dFyvecghh3Be3+Mm92oxpb80WKJr8yjv4cOk3XyT1vr/h3/4h+FhD3vY8LrXva56x49c4g1P27DbMmmfw/fWbNIfN07UKoe5DOJO3sQTSjh6Da25dLfvcd/vC8CBwvROs3CgVLh6ClARvHr6UBHu6sq9VNLRRxHWehJRKQp91BmnDxXhnim7d2bKzHQ1u9KVrrTRCUmj54kH/lDR6upd3KgAcw2zvszxx91keiedSx93yU/sy5Kk8ZSlNn/lhPmaB3l70IMetFE6yqTXTAHYal9OqE9QS3ZXFuGh8itDKltMC35NlulcnvAJ3epWt6r5LsMaM2Ud7EZehFdAazQr48jjswdxSqsrpFxS3jHLXVhlNcQoT3vvvfdYfinHyF3yz29ZgjaT9Casfl9YDnQNtGmEivCNb7SnjG9G+ytCWscGaWWlGOr4pOU7xjaNDyJdWlqQnUPRWEyuxH6MYJaHaGwFcOvkjXjFaVw0drN4G41oiPy4jGGWCln3r8eBNAuLO/bek2f5SBzJL7uMv8ZMWPxJ13nnnVef7X/PISOJaynu2W0lbmWH5wVg6mqGpEcvwZV8h1etph23s93Dh+9973vVuoBgHfum4TpUBeGt+PGJLLRlz40wpNXFP1IuCVu5hTwzd+IXeRK2pWXuwnaXl8iIMmTOn3JRrklHwuz3heNAB9CGlwQxFYtgBlA4IcR22hDibN8MuLirCNzblcPva1/72tG/9Z2pKE10sz6q8AjIWcQuTnEDrPlQe3Azfw44MZOuQqlILUkvN+Jkn/zmzn0qP3feAQX7j33sY/Wd+Z3vfOdNwm7jmdZzeCSdeQ6QJg1WEriSb/mZL5EN4QHBgNcVrnCFOswhPM8h/OSeLLBLPNwwN+HoAqLIpgTUlpHnhOE8AiRel/xFVrhBGgbhiFOD4B0pL2adFp4DHUAbnkbIWiEmpIRfJSCcWnQte4Tbfa+99qqheLZv/Kc//Wn9/hAhphk4ICRg20S3ySP/KuhLX/rSOgvvHE4EsNtj8jbx2BiUw53HN+kF+MBY2PKAmKVCp+JuTgNLvPyn4RCG9arSqjIffvjhFYCZLyUF7AFG0g2kAqaAxiXN8s9dyiVu5ko/90jDBpyAZKt1khXm7gEx8eGdeMI/5UAuojVKDyDlThwppwCjOB1Ig/BcnuRPfuVDXMpUwxBAZp5lZxr1TovDgd4sTfCVABPcAArhTMWJYBNOZ3zqShF6u4a496xrF2FXwfbbb79Bl3w+JB5fuzzmmGNqnMDNetBU8i2FoYICdxon0FTB5EXl0t226N3pThbs3/e+963BpcIBfZ/PkEfpTv4DRAELDQjQsMMKUACB29/+9vNO45bysD32+B8CMraZOstUOQGeO9zhDrWslGnAKvfkM/5nu+MBv3aK4RM/AFMYQBDPgBb5AMjsTfjgu0+9HHDAAWOwyiTlmnQnLZE3jiNz5ALv+cNzxL13d3ZIV//LX/5yPZTm+te//nD3u9+9f4yvcmaR/grzO23gQAGb+uReKsRGfCkVpQ76l7M6Z9asWVM/X1EqQJ1AKke8zXgulWfmkY985IxB/lJcM6WyzZSZ0zqxkbA3CnTipVS8mbe+9a3VL/8F5CZcbPm1gMboSHif+9znZsr45Bhm6dLXZxNb55xzzvjZjNFTeSjAOL6uW7dunCQrW0ur+V/91V+N4ZWF/+PEzehpCR9KAzbz3Oc+dyafWcHH0kiM6b3b3e5W8608Q5OTQDGf7U4uHve4x42fOCnAPHPRRReNZVwaseqtDHHM7LnnnjXeNv6/+Iu/mMmkUjk4e6NJnshIAeoahnvMyi6vMQ/krQDnRn69v/zlL69uCgDPlHMV6nM5Q2Hmla985WxZ6WYLwAGtV6cNHCga38gL4BMi6OVQj5nrXOc6FShVShdBdS8fURufy373Cq5FG5kpGmCdPU0487mfeeaZNcyiecw8+MEPHmdqU5HmCqNoXdU6AFi2kY4VCZhLa9FUxsoPRN/0pjdVPypgKBXYe9FMq3vpKWd91kp773vfe6ZoQTW88qG6zc4eJ7xp3X2bqRxEXdMF2Io2Xp/lW/6ViWf3sgRppmjjNWmTjeVc6QW897nPfWp4wnIFQOPvxS9+cS17dviEd57x3v2II44Y5SJlFVAVBjPlnTIv4+czZey0+tVIa8DNyiNuSo+ghilsV+KLfOID3nRaeA50AG142gJQhJdgAxmVLiBEiAnqbW5zmxka6T/+4z/WdwLritu1a9fW0FtNwnMLUE309fFpT3tarQAAwAfaWlCfdDv5HhBU4TyXNapV+1KhVKIyNDDzohe9qGrIqVx77LFHDSbxlK5nfU/F9BJtjpb9iU98on4YDy9U6gBA7tXzFv4AVtKaeOfiSRsc92nchCGv6FGPetRYPgEQGnPZFlsbotJ93ghQld9ZZ51VexrymjCTD/eYtdqqdOJdC84XXnhhTQO7svpibEzFUb5AMENLt+Qr6cK7V7ziFdWPv/CC/8TJ3LO0lQNbqnwJzwVAUdL153/+59U88lnOZJ2h6UYL5Udj/rWvfa36S3z1pfy1cbaNSerAfMsm4e1I9w6gE6VNuFypSOUw41oxARpBLOOEFTSjvfBu3WaElxuahspiDWVLrSB6Fk8qCXfejzzyyBqPSnryySdX79y2ftswJ59TAQCxtEgHIE0lly/d/DI+Vu25+exnP7vRkEW6ocLWqBx44IGj27LFdHx+5jOfWaMPCE6mZfI9XWV5TmPVVt5J95PvrdvkUyWn0QWc5AdglbHHCj5xJ6xvf/vblb/pUp9xxhmTUdT3ubRBGnc5VLrygExoRMp5BxXIy9jjqJmXMeiZMv44gpx0PP7xj6/+NLDlcy1VxmiPKPKWciYLyD1DBvIo7YZhQnosZax17BmddNJJ1Uoefvazn82UMfg6tESeNOj4FXmaLLc0Gu7Sq4xanifOfr+EAx1AL+HFJtqeTxQHOFXMsl1xpgzSVx+twNMEyvfSR2DhVlcyFTFCmLsACHHCSBLYlx1LYzjGGpFKlIoVt7PdE754dbdpjMDcuGoqZPwZdlAhXT5b3BKtLvGpSBbQp4EQpvzhS1lxMFawuG/Dme1ZBY5mE3CT7jzP5idmiQPfDKsgABJAlC7jgNHM4g9QtPmnJZZJsFiPYJ50hY8BEg4T5kMf+tAx/wHtyEQ5+GWUl3JwTOUhEJJumj15IkPS6Spbfcc0eBCfuKNVxxLYcp9eA602AKlBT3i0ThQ+ef7ABz4wDh3gUxoudokH75N35uFVyiQbO9h12pgDHUA35kcVYAJEmGkyafXLYvgR8DL+xGuE0IRPK+QmMkLpFnsn3BHM2LuLDxkWSIUoW0GrWVshqsEcfyqI8doAnTG4Nv6A+m1ve9tasbh785vfPIaYtLknTfKS8bs0KIAERYtpK+YY2MSD8OSF23KKU7UNEE44nfM1Fbyc9F+16wDZscceu1F64i5pk9ZofAGqlId70idy+Y//8AFQapgAWeIESuWTJjOnnnrqWG6693YBhZfCC0A94QlPGOWkfLaF1Vg+KWfxJc53v/vdY+MVudB7QOXLBWM6DFFEFuWT/6TfJKIuPP/pxtcANvyFP+IXBnnRS8GjNCa5t/76c1n+0JlwCQciSEwyrknz0k37xje+UYUyFZ6ARmC5VzGiIQAtAhgBTmXgjpDGPO+EUwUj+GVXUxV03byy9GgUYG7nQyptVgGoMCpZS6nUZenVqC2VZTbVSfKTeyr9+973vhEchGkMGGiEX21+2rhmewYs1ymTcfL3jGc8YxMtfTY/rZk0JV3HH398TZcuLJAIpYy842nyE3tlELBiHwpvJss2Kxv0KqQ7QJahGkMDeiCZWPubv/mbcXsn3qTREs+rXvWqyncAbNxWnNzIUwtSMSufwR7zqLHjz9imsWjpMBHI3DACyjCJZ2HIi8Zdwyftb3zjG6tZ8hp37twavikna1X30hoKv/Le7+s50AF0FkkgLGZajR0S0uc973lVuCN07FPxIliHH374qA1kYkalCHjm3kbHLyEPtUuYVM7yHaSxUiWeuJ3trquVCYdojOXbStUp/wEWk2LRUC1zmSRpDUixe81rXjOCBn4cd9xx1YswXbPlbTJM7/hnNjgAZGIFtTyoBnP8he/yaiwy3Xdd8vAod3lIPoCTxqSsx5wBcCgNgGeaadzGvM2X8VLpBkJ4J95ooWWjxJinsitLcBtRwpH/nC3Ar9UMAU1xs8eLAP6ZG1ZkpKxSpgBUg5H35zznORvFl+GG5MfkYRp3KwTQZBkngD/7sz+reZE+4/Gd5uZAB9CGPxF0RoBFhVFRvv71r1dXqejpBurqaLEJfDsWxW+EuAXdNvwIt4A901IAijgJr+vCDbO7rduakDn+zMAGoHTbXv3qV2+kAVmWZHY6bp761KfW0JK3VN4WqMpRfDU96bqWE4jGFIQXAa3RYpYHvDK5kobp9NNPrxWZ3wDJLN42Mgo/DVPIA3DBe5S04307EcacNh/tEeAlvcl33lteOxAGcaPbLC48AMLyEfCWDj0VmrB1twFg2nbSJH/C1iXnnl+TTLNR5IH2KVxAae1nyizj0WSkfEaldrmlP5ouOQs/yWgmr/jXGIbCS+/8kHNusmRKz0SYCSv++v0SDnQAvYQX45PxOcKpshj0bytVKgfHMTfzGeHOGKGZ7VTKVNJWEANQwqFNpUsmnFTMVODWLfebo7L/vqZDGjLm9ZKXvKQ6F7cKY/2jvIlHBQU0GdPNWGnyxaMJpuQt6TJOy03bIGwuTa3585///HHYQJc38XHTVubWz2zP4rUCILPhtKZQy2N8T15OOOGEMd8aGSQc9ok7btnlmRtd2fAAuAjXUEv4yM6zceGUOeDJc8ITz5lFq4yMKIvYcdvK1gtf+MIap3ABtxn+aKJpCJRHuxxKWPKftEduDi+9o6TfeDdgT7z1YcNfOZKwpk2cFu636W+fWz87+nMH0EYCAnR//dd/PbbClu20FM2SmcpFYI3pRTtLZUrXuXXPT4TXM7+p8DQMYfBP4/B8YaOBprLzF1JR4h8ItmsTU0mf/vSnV+fSoYKn22e8bnL2ncNolJ4Be3bAqLTCDGgY9wvwcptKm3vA0burHHJSGwbak7xZjxqSt60h4T32sY8dQUFYiVc4rfaZsA899NCxUQG8KNph+9yaWQaEWr4agsAjwzQBJXfAakE9GZoEG2lIOh7zmMeMZaBBmXTPr3FMfE4ZGus1Bi+eNIx4qBufcGtCy18rbymDclZD9QuAy9bgscFoy9ryrDZ8O6lCk3HEvN/7JNKsMnDaaaeNwmQxO0F0TVYMAGNQnuAReF1JAOHZNr5UaoKaZxHmOYJJSxSGK1oVYbeNcjYK0Ld2tAyTO4BOF1NYNJSyT33GbL7KlgqpEmZnStIAOPIsX7SXE088seZFmLrdGR7gP2tAU+GlxXPbQAgHCTerFKSpfCCvmvtLJU/3c7SY40F4lnvhFV5nq2LCSjlZZoWYh78aEHwKeETL5w4Poo3mrpstv8rV8qHkKUM8udOCo/EJCx8y5uw9JAxpke53vetdMa7nx4pfg2j8PRNSeCUtJu2SB+XB3lbcAH4aUgEm7Z7LJ1fG+Pif1Iy5tbrAuKo8CttyLBR5mE3eqoP+12fhWxmIoBibi7DSGEIqpkuFjHBlbzlgMDaYdzOZ5ZtIG1WqVFpaQgADSEYrFCdthyAbT7vgggsq2OraqSABXveAsnQYVyP4/KtYltR4lyYXcxXWHRiYROE/la6t6AEBY4xmeKMVv/71r687sgLCwpX2hBEeuauUrXn2ziefJrpij59thW/Dme05PDjooINqnvDKBE+6vwHR+OXepgL5kHc8cH30ox+tTpKO3BniqXd8yngg/r3zne9MsDO77777GBZeRHY4CMh6xs8AumEdcStb5ZMyDM+5P3PDxBF3eG0MG+G1vLrY6RlEhqqD8hcwlX5xShOZ5J4/Y9lJZ6ulW64nD3gkbXoXbZm0jWLi6vf1HOhd+AlJUHEcAELgCFRaY5Mvk5Q1fTRPLTihNSkT7cFidaSrSyBTkdpwskg6Lb/1fATeuxnbAEP8tBWdncqqkkurNFsLibInPBVOeMYuaST8pQFIuIAmFVnlShdVuPvvv3+cjdqtNNrZkvS0FZJj+WVmeQ23uR796EfXsNjF72x8GSNsHgKejOw+EqaKr5eAkqdUfuFfWIZBNGr4kEaE5vr0MrTRxsut9wxLOGFf2OLgV3yIGyCkjDMmaZUG8GKX8koa+ImZg0w0IoCxnUAK79773veOPRDx3vOe9+S95suETnioLDXOLQU8495duBryNByTO6/Yt+tXhW8cPSArzJRReNvG2Z97F34TGSA8NL8Iq4mWdm2dikFjs2wmQMkt7YKw0RQIbDQ1mk6ASWTRQt11rxOPyqqbZuw0ZkcdddSYPlqrCkqQPdO0aCDAjXuV2VjX98ppREjFkAZpBBwmUfhvKZWj1WQASMY9hWvhuDwhvKGV0ZKT93Iu6KitsG/H4PDNelPhaGRMyLFPvG16Umnb9E0+yzsQVbHFC0jkW2MRavPi2Y4g8eOvceaAif390tKWR8IA+tymDKVbWNIrfhq1hgVfubFO1J578Zj8CQin3KX7zKJZ8sONy4y3+IGrMGnl17zmNUd7+92VcXik4cF3cbKjFWZlQDZcSH+r/d7pTneqfvDJOL3w8D6XNCU9hjUe8IAHVBa0ZRGNvm0Qwqd+7wC6iQykpQUcES6gBjQjWFp/FTAVLLtyVARubH2MHQCmzaio0RIAkvFE2gHhppVk26atd8zEraJ897vfHTWrpE2iVTxaDHc0JBcADqlI/DPnRnwmRQJAKmbSE0CztTAaMT80W5MJqcTC5t/6RWCQPJYDoGvlTNzuJivkK3kRXjsxkYqZPAl3PhSAxJcMCUgLjTKanspO09ZlTf5poRcWbfQWt7jFWK7WR4o3aZAmy51aIPOs7JVfeEc719WVJ5cxRHfgJk16MCgaXAtUeGa8NGnl7uMf//g4VCAcYCf90iNO8hJes/c9JttRPWuggB/QT5kqz4c85CF1CCb5N16KAoRZWcBe42bc3M6uyELc4U3MagD9byMO9C78Ruy4pLtlhjS7gggqAHLW5/5F40vFZW7tptnXllS2FoBNBBx99NF1skMXW2VuK4QtfYQ0oGKiIRqO8SkTHQEYAA08rP8TP41KxbVbCKlEEfhPfepT1Q13uq00GOO7iScV1Ay5RdPRzrLG0QRZKpI8tZVeGsMH7q0tNdaoC2jYg1m6uOJutaRoaPLUhtnycHPPSbt8PuIRj6hpDkhoMIATzR5wB7wBTMY83/72t1dQTdp0q3VtLQfSTY9mjWfGOR1K0pIGjl3KTzjykENWEq40WH+ZSSOAq5yYZ3afFvnwhz985KO4TUoZ005DwY097vyKV6OG1/iQYRbm8qjhlgcNM7Nc0qEcacS0ZXmOnTsNPhNu8hp5JkfkDa/TyLS86M9dA92sDBC4aGMZCyNseVYhVA4HRIQIGqJ5WLcXt/y13bcIL8ACngGphOMEqFQYboGlySygTvuLXbQgEwWhaMnAybMzQZMOaQjYAHEz8wkjFVx8KnJ26yTc3KVVZVKxdfVboGrz5Vk6J8MKAAovafWcBsLz5iiVuPWnjICZK+CHrwE42hXNWrrTuDzxiU+sABL30prGI/kHnnoOKEAiDDwLSKYcpAfoKKeUcxoX4QXIjUFzZ0mSXg1NM+UhTA1N4gTK8otf/Isr8QJhMvZ3f/d3tVEUR8KJW2YuWjbQxIPJY+/wyJh7hqjEF96KN/K8ufLo5h1AN5EBgptKTvAIndadMKbCqWxPetKTNgLPgGA7Bmhx/P4bxihbIfese2nSIERwozl6tuUu8QXkVM5UUGFYKnX22WcniFrhUgECoCyBaBoDFbENQ0VPBRemrp/xuABaQCuRCD8VyzCB5UxZysN/KrlnWlk0uMlwEt7W3BNv7vzqPtN8A1i5i5/2HkDC22i7AINWFtBs86+sHWSdcky5iov2Gj/ABx8BFzcumnx7mhZetGWWGX1pSzieNWaALFqgsOTR1R5LKCz504UP0ez1cNpy5U6epNEVoGcuPpe0ANfZJkcTdr9vmQOX4qQwtFPhQBHY8VtAYQgzX7osYFq/hVPAYiiTCkOZda9OirDX7w6VymI4ZPx+UqmsNSz25WCS+hVL3yPit0xsDKUbNpSuVg2jgFW9F0GvHywrmkh9L0tYhqJ1Dj4uV0C0fmenVKD6LaICTsMpp5wyFC2mfqOoVPwat/hKpa7+S0NQ/XkpoDEUsB3K+FxNT+li13AKINZv5gjv8MMPr9/uKbuEqn9/0iZdqOVP6Q7WD5ixLxpV/UZUGTKoacGbsqulfmyPX3xJmmpAC/An/gIOlccFnIcyTjkULauWUwGHoTRQQwGWGlPLkzY/5ayBoax0GMqQSOVTaWTqF0ZLl7bmtYDu+FVS8ZVJlqH0DirfChjVfMmfslYuwnaVNbZDOcu1fkRO2pil/CazXrT4oQzvVN4LpzSao5MC4lXOirZZv7NExqSpnM9a08G8DMvU71yVg72HMs45fkBPINyLW1o9Kz9XGXYaymqR4YAN32gqwzO1LLnptHUc6ADa8ItwIhVepSut+PiVw7wTxhBh9B6AIazC4E/lDgVYhcENe/74b93Ffe7cEm7AVMY4B8AKKH1GuGgh9YNi4m7DAIgqM+JfBc57whXmunXrahoAMMBpQYY772hzwJd8ygua9C9eaYu99zad1dNW/olDmOH35rzLN54nbu4AoPeY4X2bPm4m88AsAKgBBcj8a3zKEiDWFZjwMzzGF0BUxjCHsrtn+PjHP155XdZWjmVRJqbqxwbLJOBQjhUcG7kaYPnjVxhF4x18EhuoAlfplbeyvGkoi/ArWLIjS9JeJoGG0q2vsqJxKBptjbMMYwwaRXFpBDTgSANbNOEt8rM67n+zc6AIWqeGA6XCNG+XrC1kWIS32hVhrQPyrdt0nTmIOffMW7tScWsY/hKe51JB6ntrz1xcoVI581jvxsFCBSDyWONv/UkPv8ySttFxeWAmjcITTuuXO2lKuqQzxCzpZmZcdLbw434h7sJv45BWaciwizikyySMbvgkz2ZLg3IILz1nkofbmFtSVmpQvR74wAfWewG02hXmx5V4Z+OfNLZp4RbP5YU5+wLENXnCEoYx9gLYNS7DCuI3xGD1BfeIX3wPCa+Vt5i398QbM/G1aYt5v2+ZA+v7ZrNj6w5nWoR61LxkntYSDawIWW39mdNCaByxi5k7Yl+EtD7TJFxFQOu7cELciBPRBFC0DBoOO2GhUmHGMIRFSymTQ1XTigaUsNp08eud9ies2BVgGFyxF6/w5Ctxskt62SPhxKyIV013NCDdSeHHvoBATWd4UQPYzj/hJ44CFlX7wrt0ffFAWnWZaYrcSkcI75Qrdy5pk3559+6ZxobYMS+AOpRlZjXvwi7jxGM5eedHuMpIvIifkPilMbxLesiF9DFnL71JQ1lXPJS1opWXwrzf/e5XgxOP+MJjfvFdnoSr7ITLPhdzeaFxIvYI/5DwXJ22ngP9u/ANzwhfCx7tM8EmrATRFUF1V4ncmSMCCogAjErlmRlBdhFW7lXOEDBLmMJTKUIEXQXjD1jyp7IhZrrg7XineIWF+JUuaUDywU54Ie5VZMTelTy5txR3KmcqLHvPSWf8cJt0so/fNryteRa+MkDiSKWX3oSffAOUALx42zJr44x74414AqBSVuFZWfpVy1E8ZRZ+2HfffasbcQTIxME9M+VT1mfWNElXW87SHf4IL4AoTubSzLycQ1D9Ca8soh/zLB/CC1CTB8M6zKQlPBGvd+bCTfqS95QFnvKT99j3+/w40AG04VMrgIRKZSXQhIyAE2yVJBWLVwJN+FTE1lzFYB7NKECaypRwI+QqL7OQZ3aEP6DhHViiVD7xiicVSsVR6aTXxW/889c+ew8lLuG5xJ/KmLQKO0AuXfIrnyj5Eg53qZCeU4ET17bepV2+xdFW+qRZuOzFl/QkrpSN9LhawOIGCLWEh9EIy6lV1Q/70pWv4YsHhZ/SgBfilT5ywS7pCB/YoaS5bcgCvsZby0aEUbbKGt3BmCa/0om3eigaWeWOF8JnL07v8tcSGUZ4I+5Qntvyjl2/b5kDG6sXW3a/6l0QPhdhRp5TSQhfKBVIxSSEBJQAuwhjKmjcA9IIK2EPKKtgKh5/4mIXYY57YbAXP3vu2al8bUUJmKv4zJNG/mm4CVtYnl1IvMIOGMaMuzwLLxMWzDUIKPlMmMJhljA9q/CJq3raxj98Eb7yCEBLc/LJHl/CRzxmhsTvnT88Fw7i1sVdwgFO0Zy/8IUvDGWXT/Un/2UzRV3RICxhpIEUlrwi4ZGLpBFvPHPv7uK/5bd36VJOJoiUJSrf4hqsCohbmrL8p4cSc/lO/MySb3fx8+PiLmbClyZX3DPrNH8OdA204RVBCkVz8K5CtHfPBLElwjlfSsWK+wi+90m7xJ20TdrzE7toWcxQm8ZW0xFm/Kx3uf6/TQeT2dzEvAWOpKl1n3SvD3nTfMV8a+6TYfLbprm1T5oS/uR7zHPnN/wCTgAMP8sOpRFgjH0CGgDFLlpmwshdWG1awhcA7Zldm27+Ij/KqZxbUOUA8JUNFDVYDQB/4he3u4t7dkn7ZNjeXS3NZpY0tu7685Y50AF0yzzqLnYgDqQbDaTKRoG6LAhQAbNyYEgFKsBJYwRa0QS5mQSqSbYF5JhHI2fGH3B1lYNshrJ1t4IkkN1///0rUEoXd+IBtm1cntv3yXj7++Jx4BKVa/Hi6CF3DqwYDgA04Ig+9KEPDRdeeGEFynLYxlBON6rmJuwAKreAFnnfEgG/lgKezAAgLbCcP1CBVFe+7FkfynkM1c6qi1B6EwHN3GPf79PjQAfQ6fG6x7TMOQA4aXcZCy1H5tUUAyjdd3eaY+y5B3ptF3quLALQgKghhRb4hGNowM4o5tyV82bH4ABo/LbDJxzEfHTcH6bGgQ6gU2N1j2i5cyBapPFv3ehybOE4SWRHEKDSfQeggNa7ySaa5Hwo44yJhx+gGY3302Urqt1EANSWYTuGLFMSjy58gBKAes57G9580tHdLBwHOoAuHC97SCucA7rjATN73nWjrTYoZ7rWMwIAm3HJsvNn1EKNgTKfL4jFbcCPJpoJJBqvZ2GVb9hXblq2BrCz6oFhuvBhd8LKe79PjwMdQKfH6x7TCuBAJnfKl1nHmfKyjXJMOYArJxiNgJnudLr1o8NZHgJ0NNYAbrRSS6fKVw6qVsnekEFAE+iyR54BqLsrZvWh/02dAx1Ap87yHuFy5oDuu+6yA1yAIpDSfUcBQMCWyaMsR4oWOVfedP+RMAOg3s32l68J1O2fANzE0d57712HD7gDsrryiN/JuAKk1UH/myoHOoBOld09suXOAaBZPpdRxyaBmWMHy+dbxmQDNEDoAmzZGTY6mOMha1EBdEBQOI41dNRggLCcKVoBFmCLj3kAVBjla6ljLNKbcEfD/jA1DnQAnRqre0TLnQMmdICR8U/gCSCdawrs0kUHajmUA7Blx9J88hYNlvYaDdSzuMpXN+tdOI65EzegzQSVcVfxcZvzYrlNmJ47TZ8DHUCnz/Me4zLlQLrj5UsBNYVADphNksObEfBqtcFJd5PvQBEBQn4Dyt/73vfqgdTMAarF83EXt4YN+Jemq13tatW+/etA2nJjes8dQKfH6x7TCuCAg4/LZ0IqyJVPbdQuvGRHEwRixiwRMNP9ni94ZfKI+4QnHAv2kfFXY585GCbbiQGtPfCJx0lPkxS7SfP+vrgc6AC6uPztoa8gDgAhJy8hIOazIPnsCjsXjdDnUdyRs0OjSVaDOf4Ccum+B0TLd43qjL8ue/myZh1fbd1aWiXO+HMiU56Tjmi3c0TfrRaBAx1AF4GpPciVyQFg5Bg5wAbMDjjggFHrC1DJWTRUz+Xz1aMb73MR0AN0LmOZCPg68cn4K9Asn4Sud89xD0DZI5NWxmRbAA3YVgf9b6oc6AA6VXb3yJY7B8pnqiuoAbg73OEOI9BJd7S8dh2o8choklvKW0A4d8D3ta99rX4Qj1+TQ76XFJANMIovBLDZJwz3+WrACaPfF44DHUAXjpc9pBXOAWsxA1bAzHgkbQ+QBcyAlRlxBLzsRAJo0QjnYgF3CcdsvyVM559/fjUTz3777VdXAXCX8GmfvuaKAHVOfwqAMk+YnjtNlwMdQKfL7x7bMuFAtmxKTrrTvkPkGTgBz4BU7tz6xHU0PuOjdiJlTSj7LRG3IeH6iibAlB5fzfQcN0AZsNqXj8Sbz2kn/dwA4/kAeOLt94XjQAfQheNlD2kFcSBaniTnWXca0ehueMMbjs8egB2QMpkTjU93mnn8Vw9b+GvdenbafQD5pje9afUNNBFgBOjRirl3yAhKONLiynu17H9T40AH0Kmxuke0nDiQccsWfD7zmc+MSTQDj4BbtDtgZs0mP4DTd+KR5/lS3ApDeL51FKL1IsAZUOXO0irpBZKAnb+kP377fWk40AF0afjeY11CDgQQgVOe3Wmg0eT22muvTVJIMzTJhPjdc88963P81Jct/PGHxEezBJRAlWa5++67j9otM27F6fPG3AFO30dilzjdXQl3C9F36wXmQAfQBWZoD275c2A2sLG7yH7zgBMwQ9H8AB67b37zm2MGnVJvLDJgNlrM40EavvGNb4zgR5ttgdBztNBMIgl2zZo1o/YpjMQNXDtNnwMdQKfP8x7jEnMgAAoQ0xX2KWHvgNJpSDlzkxmKH6AXM93pgNx8s5T4uP/qV786fvbYmaMB44AiN4A9O59sNc0uJOnstPQc6AC69GXQUzAlDgQEc0+0wMhJ8NH6gFlAMm7Z/du//dvwrW99q4KucUrd6RYQE95c97h3F6dDm9Gaolm2wMnMu2EF2zilR3z5fr10MQuQZuKJv07T40AH0Onxuse0TDgQUExyaJFZ28lst912GwE0Giaw4sbBxsCPhmrcMsA1ny504hWm8IAnM5rl5IL87DwygYSA6R577LHJulTxBkSrw/43VQ50AJ0qu3tkS8kBoGWLJsAKMAIwIGh5Usxyyjw7fkLnnXdefWR+4IEH1kkdBgCMRjpfAsCOxAPGgBFY2lOftZ3SIY3snAxlUT+zu9zlLtWtNCVd4uVuPgA+3/R1d/PnQAfQ+fOqu1wFHAjwTN4DpAApZ3wyy2c1gJtPbvAH8A466KAKclgyX/BKnMKiwTptCfg6wg5oR5uN9incz3/+81Xzla5b3epWY5wpioDu1gB4/Pb79nOgA+j287CHsII4EBBrkwzEgBkwAloAFIjR7Iw5MufPsXPRSvONeOHMFmYb/uQzbTKaZ+zESzsWPu3T3SL7iy66qDoxS3+LW9yiPnObsVTuOi0dBzqALh3ve8xLwAHANUlAyHgm4HLakckdIAVEgSew+uhHP1q7+fze5ja3GdaUSZ8QzXE+QBY3OeeTP5qneKwJZW4bp/iA8umnnz4ODQDsrAxoxzyjtUYTTZr6fToc2FSaphNvj6VzYOocADytthggAlhm3gGZtaC+zw7YACo3QO34448f/R5xxBEjmGXfesZP58qUsFp3t771resQge63I+0QEDW5ZO3nueeeW9MEJI8++uhqL4xonwzyHHCujvrf1DjQAXRqrO4RLTUHJsGnBR2HdOTwZGsvP/axj9XkGp8844wzaneae13pQw89dMwKTRXNZwwS2EkDoAakxlGRMHyHyXIldjTNk046aTzmztinj9shGrRwpCVxM48m6rnT9DhwqVIQfRBlevzuMS0hB4h6NFAA5rnt0h933HEVuCTRrPh973vfqhG+/OUvr6l2eMixxx47HHPMMRXA+Adi8wHPZFu8Ln6kx5mjNF5knadv0H/wgx+sn1VmRiO1FtTOKBpxiF+X9Lf5in2/T2zSg74AAAIdSURBVIcDHUCnw+ceyzLjABADPi0IWnN58MEHD+vWravmtE/d6XTlfW74nHPOGUHXuCPNrw1rrmwCuoBn3PmEyEMe8pCqeUoLYBWuuA0PnHXWWRVUmWcIwDO3SJgmnzI+mnD7fToc6F346fC5x7LMOKAbHBACSMje9lNPPbV+Bx5YAc90ux/xiEfUMclWY023uQ1rrmzqnieuLI+6z33uM7zgBS+ogAkMMxlEAz7xxBMruPKTNaPiTLrF5bmD51xcX1y7roEuLn976CuQAz/84Q+H88qieXdf5rzlLW9ZZ963Nyvpagco0yUH1A5N1nW3XdR47J3vfOe6Jx/o0kSzhXN709D9LywHOoAuLD97aCucA8Aq3Wf3kG5ylh/FbFvuuvA01pAxVFqty/OkNhvQjft+X14c6F345VUePTVLzAHaIAp40kJ15xcCPIULIIFiLl1woAq4M7ZJ69TFd2+76/x3Wl4c6Bro8iqPnpplwAGABrwWemxRmOm2y+akNgqoaaGTbpgF0JcBe3oSGg50AG2Y0R93bA6YqPHVS0DWThZlMqkFtm3hFK1T2G0XHqgGSNsJIhop99F842Zb4u1+Fo8DHUAXj7c95BXKgWiKAdIsV1qI7ABF46m665nFb8OlbQLLrnG2XFm+zx1Al2/Z9JRNmQPAC2hG0/SeZUft87YmKxNUs/kH2uKK5isd4qStZty0j4fOxrmlNfv/AT19M4K5OOHsAAAAAElFTkSuQmCC;" vertex="1" parent="1">
          <mxGeometry x="1799.46" y="320" width="315.08" height="395" as="geometry" />
        </mxCell>
        <mxCell id="QaM1sbVamnLzecE5Oj-k-59" value="" style="shape=flexArrow;endArrow=classic;html=1;entryX=0;entryY=0.25;entryDx=0;entryDy=0;" edge="1" parent="1">
          <mxGeometry width="50" height="50" relative="1" as="geometry">
            <mxPoint x="1570" y="644" as="sourcePoint" />
            <mxPoint x="1770" y="644" as="targetPoint" />
          </mxGeometry>
        </mxCell>
        <mxCell id="QaM1sbVamnLzecE5Oj-k-60" value="" style="shape=flexArrow;endArrow=classic;html=1;entryX=0;entryY=0.25;entryDx=0;entryDy=0;" edge="1" parent="1">
          <mxGeometry width="50" height="50" relative="1" as="geometry">
            <mxPoint x="1570" y="424" as="sourcePoint" />
            <mxPoint x="1770" y="424" as="targetPoint" />
          </mxGeometry>
        </mxCell>
        <mxCell id="QaM1sbVamnLzecE5Oj-k-61" value="&lt;font style=&quot;font-size: 24px&quot;&gt;IMPORT&lt;/font&gt;" style="text;html=1;strokeColor=none;fillColor=none;align=center;verticalAlign=middle;whiteSpace=wrap;rounded=0;" vertex="1" parent="1">
          <mxGeometry x="1540" y="379" width="250" height="40" as="geometry" />
        </mxCell>
        <mxCell id="QaM1sbVamnLzecE5Oj-k-62" value="&lt;font style=&quot;font-size: 24px&quot;&gt;IMPORT&lt;/font&gt;" style="text;html=1;strokeColor=none;fillColor=none;align=center;verticalAlign=middle;whiteSpace=wrap;rounded=0;" vertex="1" parent="1">
          <mxGeometry x="1540" y="600" width="250" height="40" as="geometry" />
        </mxCell>
      </root>
    </mxGraphModel>
  </diagram>
</mxfile>
